<?xml version="1.0" encoding="utf-8" standalone="no"?>
<!DOCTYPE svg PUBLIC "-//W3C//DTD SVG 1.1//EN"
  "http://www.w3.org/Graphics/SVG/1.1/DTD/svg11.dtd">
<svg xmlns:xlink="http://www.w3.org/1999/xlink" width="957.35pt" height="347.910375pt" viewBox="0 0 957.35 347.910375" xmlns="http://www.w3.org/2000/svg" version="1.1">
 <metadata>
  <rdf:RDF xmlns:dc="http://purl.org/dc/elements/1.1/" xmlns:cc="http://creativecommons.org/ns#" xmlns:rdf="http://www.w3.org/1999/02/22-rdf-syntax-ns#">
   <cc:Work>
    <dc:type rdf:resource="http://purl.org/dc/dcmitype/StillImage"/>
    <dc:date>2026-05-10T01:31:00.325200</dc:date>
    <dc:format>image/svg+xml</dc:format>
    <dc:creator>
     <cc:Agent>
      <dc:title>Matplotlib v3.10.8, https://matplotlib.org/</dc:title>
     </cc:Agent>
    </dc:creator>
   </cc:Work>
  </rdf:RDF>
 </metadata>
 <defs>
  <style type="text/css">*{stroke-linejoin: round; stroke-linecap: butt}</style>
 </defs>
 <g id="figure_1">
  <g id="patch_1">
   <path d="M 0 347.910375 
L 957.35 347.910375 
L 957.35 0 
L 0 0 
z
" style="fill: #fafbfc"/>
  </g>
  <g id="axes_1">
   <g id="patch_2">
    <path d="M 202.825 295.954125 
L 935.75 295.954125 
L 935.75 60.024125 
L 202.825 60.024125 
z
" style="fill: #fafbfc"/>
   </g>
   <g id="matplotlib.axis_1">
    <g id="xtick_1">
     <g id="line2d_1">
      <path d="M 289.051471 295.954125 
L 289.051471 60.024125 
" clip-path="url(#p7e81f26f29)" style="fill: none; stroke: #d0d4dd; stroke-opacity: 0.25; stroke-width: 0.8; stroke-linecap: square"/>
     </g>
     <g id="line2d_2">
      <defs>
       <path id="m266ac62211" d="M 0 0 
L 0 3.5 
" style="stroke: #000000; stroke-width: 0.8"/>
      </defs>
      <g>
       <use xlink:href="#m266ac62211" x="289.051471" y="295.954125" style="stroke: #000000; stroke-width: 0.8"/>
      </g>
     </g>
     <g id="text_1">
      <!-- 0 -->
      <g transform="translate(285.870221 310.552562) scale(0.1 -0.1)">
       <defs>
        <path id="DejaVuSans-30" d="M 2034 4250 
Q 1547 4250 1301 3770 
Q 1056 3291 1056 2328 
Q 1056 1369 1301 889 
Q 1547 409 2034 409 
Q 2525 409 2770 889 
Q 3016 1369 3016 2328 
Q 3016 3291 2770 3770 
Q 2525 4250 2034 4250 
z
M 2034 4750 
Q 2819 4750 3233 4129 
Q 3647 3509 3647 2328 
Q 3647 1150 3233 529 
Q 2819 -91 2034 -91 
Q 1250 -91 836 529 
Q 422 1150 422 2328 
Q 422 3509 836 4129 
Q 1250 4750 2034 4750 
z
" transform="scale(0.015625)"/>
       </defs>
       <use xlink:href="#DejaVuSans-30"/>
      </g>
     </g>
    </g>
    <g id="xtick_2">
     <g id="line2d_3">
      <path d="M 387.036096 295.954125 
L 387.036096 60.024125 
" clip-path="url(#p7e81f26f29)" style="fill: none; stroke: #d0d4dd; stroke-opacity: 0.25; stroke-width: 0.8; stroke-linecap: square"/>
     </g>
     <g id="line2d_4">
      <g>
       <use xlink:href="#m266ac62211" x="387.036096" y="295.954125" style="stroke: #000000; stroke-width: 0.8"/>
      </g>
     </g>
     <g id="text_2">
      <!-- 2500 -->
      <g transform="translate(374.311096 310.552562) scale(0.1 -0.1)">
       <defs>
        <path id="DejaVuSans-32" d="M 1228 531 
L 3431 531 
L 3431 0 
L 469 0 
L 469 531 
Q 828 903 1448 1529 
Q 2069 2156 2228 2338 
Q 2531 2678 2651 2914 
Q 2772 3150 2772 3378 
Q 2772 3750 2511 3984 
Q 2250 4219 1831 4219 
Q 1534 4219 1204 4116 
Q 875 4013 500 3803 
L 500 4441 
Q 881 4594 1212 4672 
Q 1544 4750 1819 4750 
Q 2544 4750 2975 4387 
Q 3406 4025 3406 3419 
Q 3406 3131 3298 2873 
Q 3191 2616 2906 2266 
Q 2828 2175 2409 1742 
Q 1991 1309 1228 531 
z
" transform="scale(0.015625)"/>
        <path id="DejaVuSans-35" d="M 691 4666 
L 3169 4666 
L 3169 4134 
L 1269 4134 
L 1269 2991 
Q 1406 3038 1543 3061 
Q 1681 3084 1819 3084 
Q 2600 3084 3056 2656 
Q 3513 2228 3513 1497 
Q 3513 744 3044 326 
Q 2575 -91 1722 -91 
Q 1428 -91 1123 -41 
Q 819 9 494 109 
L 494 744 
Q 775 591 1075 516 
Q 1375 441 1709 441 
Q 2250 441 2565 725 
Q 2881 1009 2881 1497 
Q 2881 1984 2565 2268 
Q 2250 2553 1709 2553 
Q 1456 2553 1204 2497 
Q 953 2441 691 2322 
L 691 4666 
z
" transform="scale(0.015625)"/>
       </defs>
       <use xlink:href="#DejaVuSans-32"/>
       <use xlink:href="#DejaVuSans-35" transform="translate(63.623047 0)"/>
       <use xlink:href="#DejaVuSans-30" transform="translate(127.246094 0)"/>
       <use xlink:href="#DejaVuSans-30" transform="translate(190.869141 0)"/>
      </g>
     </g>
    </g>
    <g id="xtick_3">
     <g id="line2d_5">
      <path d="M 485.020722 295.954125 
L 485.020722 60.024125 
" clip-path="url(#p7e81f26f29)" style="fill: none; stroke: #d0d4dd; stroke-opacity: 0.25; stroke-width: 0.8; stroke-linecap: square"/>
     </g>
     <g id="line2d_6">
      <g>
       <use xlink:href="#m266ac62211" x="485.020722" y="295.954125" style="stroke: #000000; stroke-width: 0.8"/>
      </g>
     </g>
     <g id="text_3">
      <!-- 5000 -->
      <g transform="translate(472.295722 310.552562) scale(0.1 -0.1)">
       <use xlink:href="#DejaVuSans-35"/>
       <use xlink:href="#DejaVuSans-30" transform="translate(63.623047 0)"/>
       <use xlink:href="#DejaVuSans-30" transform="translate(127.246094 0)"/>
       <use xlink:href="#DejaVuSans-30" transform="translate(190.869141 0)"/>
      </g>
     </g>
    </g>
    <g id="xtick_4">
     <g id="line2d_7">
      <path d="M 583.005348 295.954125 
L 583.005348 60.024125 
" clip-path="url(#p7e81f26f29)" style="fill: none; stroke: #d0d4dd; stroke-opacity: 0.25; stroke-width: 0.8; stroke-linecap: square"/>
     </g>
     <g id="line2d_8">
      <g>
       <use xlink:href="#m266ac62211" x="583.005348" y="295.954125" style="stroke: #000000; stroke-width: 0.8"/>
      </g>
     </g>
     <g id="text_4">
      <!-- 7500 -->
      <g transform="translate(570.280348 310.552562) scale(0.1 -0.1)">
       <defs>
        <path id="DejaVuSans-37" d="M 525 4666 
L 3525 4666 
L 3525 4397 
L 1831 0 
L 1172 0 
L 2766 4134 
L 525 4134 
L 525 4666 
z
" transform="scale(0.015625)"/>
       </defs>
       <use xlink:href="#DejaVuSans-37"/>
       <use xlink:href="#DejaVuSans-35" transform="translate(63.623047 0)"/>
       <use xlink:href="#DejaVuSans-30" transform="translate(127.246094 0)"/>
       <use xlink:href="#DejaVuSans-30" transform="translate(190.869141 0)"/>
      </g>
     </g>
    </g>
    <g id="xtick_5">
     <g id="line2d_9">
      <path d="M 680.989973 295.954125 
L 680.989973 60.024125 
" clip-path="url(#p7e81f26f29)" style="fill: none; stroke: #d0d4dd; stroke-opacity: 0.25; stroke-width: 0.8; stroke-linecap: square"/>
     </g>
     <g id="line2d_10">
      <g>
       <use xlink:href="#m266ac62211" x="680.989973" y="295.954125" style="stroke: #000000; stroke-width: 0.8"/>
      </g>
     </g>
     <g id="text_5">
      <!-- 10000 -->
      <g transform="translate(665.083723 310.552562) scale(0.1 -0.1)">
       <defs>
        <path id="DejaVuSans-31" d="M 794 531 
L 1825 531 
L 1825 4091 
L 703 3866 
L 703 4441 
L 1819 4666 
L 2450 4666 
L 2450 531 
L 3481 531 
L 3481 0 
L 794 0 
L 794 531 
z
" transform="scale(0.015625)"/>
       </defs>
       <use xlink:href="#DejaVuSans-31"/>
       <use xlink:href="#DejaVuSans-30" transform="translate(63.623047 0)"/>
       <use xlink:href="#DejaVuSans-30" transform="translate(127.246094 0)"/>
       <use xlink:href="#DejaVuSans-30" transform="translate(190.869141 0)"/>
       <use xlink:href="#DejaVuSans-30" transform="translate(254.492188 0)"/>
      </g>
     </g>
    </g>
    <g id="xtick_6">
     <g id="line2d_11">
      <path d="M 778.974599 295.954125 
L 778.974599 60.024125 
" clip-path="url(#p7e81f26f29)" style="fill: none; stroke: #d0d4dd; stroke-opacity: 0.25; stroke-width: 0.8; stroke-linecap: square"/>
     </g>
     <g id="line2d_12">
      <g>
       <use xlink:href="#m266ac62211" x="778.974599" y="295.954125" style="stroke: #000000; stroke-width: 0.8"/>
      </g>
     </g>
     <g id="text_6">
      <!-- 12500 -->
      <g transform="translate(763.068349 310.552562) scale(0.1 -0.1)">
       <use xlink:href="#DejaVuSans-31"/>
       <use xlink:href="#DejaVuSans-32" transform="translate(63.623047 0)"/>
       <use xlink:href="#DejaVuSans-35" transform="translate(127.246094 0)"/>
       <use xlink:href="#DejaVuSans-30" transform="translate(190.869141 0)"/>
       <use xlink:href="#DejaVuSans-30" transform="translate(254.492188 0)"/>
      </g>
     </g>
    </g>
    <g id="xtick_7">
     <g id="line2d_13">
      <path d="M 876.959225 295.954125 
L 876.959225 60.024125 
" clip-path="url(#p7e81f26f29)" style="fill: none; stroke: #d0d4dd; stroke-opacity: 0.25; stroke-width: 0.8; stroke-linecap: square"/>
     </g>
     <g id="line2d_14">
      <g>
       <use xlink:href="#m266ac62211" x="876.959225" y="295.954125" style="stroke: #000000; stroke-width: 0.8"/>
      </g>
     </g>
     <g id="text_7">
      <!-- 15000 -->
      <g transform="translate(861.052975 310.552562) scale(0.1 -0.1)">
       <use xlink:href="#DejaVuSans-31"/>
       <use xlink:href="#DejaVuSans-35" transform="translate(63.623047 0)"/>
       <use xlink:href="#DejaVuSans-30" transform="translate(127.246094 0)"/>
       <use xlink:href="#DejaVuSans-30" transform="translate(190.869141 0)"/>
       <use xlink:href="#DejaVuSans-30" transform="translate(254.492188 0)"/>
      </g>
     </g>
    </g>
    <g id="text_8">
     <!-- Annual cost net of employer HSA contribution — $ -->
     <g style="fill: #5b6573" transform="translate(443.203906 324.230687) scale(0.1 -0.1)">
      <defs>
       <path id="DejaVuSans-41" d="M 2188 4044 
L 1331 1722 
L 3047 1722 
L 2188 4044 
z
M 1831 4666 
L 2547 4666 
L 4325 0 
L 3669 0 
L 3244 1197 
L 1141 1197 
L 716 0 
L 50 0 
L 1831 4666 
z
" transform="scale(0.015625)"/>
       <path id="DejaVuSans-6e" d="M 3513 2113 
L 3513 0 
L 2938 0 
L 2938 2094 
Q 2938 2591 2744 2837 
Q 2550 3084 2163 3084 
Q 1697 3084 1428 2787 
Q 1159 2491 1159 1978 
L 1159 0 
L 581 0 
L 581 3500 
L 1159 3500 
L 1159 2956 
Q 1366 3272 1645 3428 
Q 1925 3584 2291 3584 
Q 2894 3584 3203 3211 
Q 3513 2838 3513 2113 
z
" transform="scale(0.015625)"/>
       <path id="DejaVuSans-75" d="M 544 1381 
L 544 3500 
L 1119 3500 
L 1119 1403 
Q 1119 906 1312 657 
Q 1506 409 1894 409 
Q 2359 409 2629 706 
Q 2900 1003 2900 1516 
L 2900 3500 
L 3475 3500 
L 3475 0 
L 2900 0 
L 2900 538 
Q 2691 219 2414 64 
Q 2138 -91 1772 -91 
Q 1169 -91 856 284 
Q 544 659 544 1381 
z
M 1991 3584 
L 1991 3584 
z
" transform="scale(0.015625)"/>
       <path id="DejaVuSans-61" d="M 2194 1759 
Q 1497 1759 1228 1600 
Q 959 1441 959 1056 
Q 959 750 1161 570 
Q 1363 391 1709 391 
Q 2188 391 2477 730 
Q 2766 1069 2766 1631 
L 2766 1759 
L 2194 1759 
z
M 3341 1997 
L 3341 0 
L 2766 0 
L 2766 531 
Q 2569 213 2275 61 
Q 1981 -91 1556 -91 
Q 1019 -91 701 211 
Q 384 513 384 1019 
Q 384 1609 779 1909 
Q 1175 2209 1959 2209 
L 2766 2209 
L 2766 2266 
Q 2766 2663 2505 2880 
Q 2244 3097 1772 3097 
Q 1472 3097 1187 3025 
Q 903 2953 641 2809 
L 641 3341 
Q 956 3463 1253 3523 
Q 1550 3584 1831 3584 
Q 2591 3584 2966 3190 
Q 3341 2797 3341 1997 
z
" transform="scale(0.015625)"/>
       <path id="DejaVuSans-6c" d="M 603 4863 
L 1178 4863 
L 1178 0 
L 603 0 
L 603 4863 
z
" transform="scale(0.015625)"/>
       <path id="DejaVuSans-20" transform="scale(0.015625)"/>
       <path id="DejaVuSans-63" d="M 3122 3366 
L 3122 2828 
Q 2878 2963 2633 3030 
Q 2388 3097 2138 3097 
Q 1578 3097 1268 2742 
Q 959 2388 959 1747 
Q 959 1106 1268 751 
Q 1578 397 2138 397 
Q 2388 397 2633 464 
Q 2878 531 3122 666 
L 3122 134 
Q 2881 22 2623 -34 
Q 2366 -91 2075 -91 
Q 1284 -91 818 406 
Q 353 903 353 1747 
Q 353 2603 823 3093 
Q 1294 3584 2113 3584 
Q 2378 3584 2631 3529 
Q 2884 3475 3122 3366 
z
" transform="scale(0.015625)"/>
       <path id="DejaVuSans-6f" d="M 1959 3097 
Q 1497 3097 1228 2736 
Q 959 2375 959 1747 
Q 959 1119 1226 758 
Q 1494 397 1959 397 
Q 2419 397 2687 759 
Q 2956 1122 2956 1747 
Q 2956 2369 2687 2733 
Q 2419 3097 1959 3097 
z
M 1959 3584 
Q 2709 3584 3137 3096 
Q 3566 2609 3566 1747 
Q 3566 888 3137 398 
Q 2709 -91 1959 -91 
Q 1206 -91 779 398 
Q 353 888 353 1747 
Q 353 2609 779 3096 
Q 1206 3584 1959 3584 
z
" transform="scale(0.015625)"/>
       <path id="DejaVuSans-73" d="M 2834 3397 
L 2834 2853 
Q 2591 2978 2328 3040 
Q 2066 3103 1784 3103 
Q 1356 3103 1142 2972 
Q 928 2841 928 2578 
Q 928 2378 1081 2264 
Q 1234 2150 1697 2047 
L 1894 2003 
Q 2506 1872 2764 1633 
Q 3022 1394 3022 966 
Q 3022 478 2636 193 
Q 2250 -91 1575 -91 
Q 1294 -91 989 -36 
Q 684 19 347 128 
L 347 722 
Q 666 556 975 473 
Q 1284 391 1588 391 
Q 1994 391 2212 530 
Q 2431 669 2431 922 
Q 2431 1156 2273 1281 
Q 2116 1406 1581 1522 
L 1381 1569 
Q 847 1681 609 1914 
Q 372 2147 372 2553 
Q 372 3047 722 3315 
Q 1072 3584 1716 3584 
Q 2034 3584 2315 3537 
Q 2597 3491 2834 3397 
z
" transform="scale(0.015625)"/>
       <path id="DejaVuSans-74" d="M 1172 4494 
L 1172 3500 
L 2356 3500 
L 2356 3053 
L 1172 3053 
L 1172 1153 
Q 1172 725 1289 603 
Q 1406 481 1766 481 
L 2356 481 
L 2356 0 
L 1766 0 
Q 1100 0 847 248 
Q 594 497 594 1153 
L 594 3053 
L 172 3053 
L 172 3500 
L 594 3500 
L 594 4494 
L 1172 4494 
z
" transform="scale(0.015625)"/>
       <path id="DejaVuSans-65" d="M 3597 1894 
L 3597 1613 
L 953 1613 
Q 991 1019 1311 708 
Q 1631 397 2203 397 
Q 2534 397 2845 478 
Q 3156 559 3463 722 
L 3463 178 
Q 3153 47 2828 -22 
Q 2503 -91 2169 -91 
Q 1331 -91 842 396 
Q 353 884 353 1716 
Q 353 2575 817 3079 
Q 1281 3584 2069 3584 
Q 2775 3584 3186 3129 
Q 3597 2675 3597 1894 
z
M 3022 2063 
Q 3016 2534 2758 2815 
Q 2500 3097 2075 3097 
Q 1594 3097 1305 2825 
Q 1016 2553 972 2059 
L 3022 2063 
z
" transform="scale(0.015625)"/>
       <path id="DejaVuSans-66" d="M 2375 4863 
L 2375 4384 
L 1825 4384 
Q 1516 4384 1395 4259 
Q 1275 4134 1275 3809 
L 1275 3500 
L 2222 3500 
L 2222 3053 
L 1275 3053 
L 1275 0 
L 697 0 
L 697 3053 
L 147 3053 
L 147 3500 
L 697 3500 
L 697 3744 
Q 697 4328 969 4595 
Q 1241 4863 1831 4863 
L 2375 4863 
z
" transform="scale(0.015625)"/>
       <path id="DejaVuSans-6d" d="M 3328 2828 
Q 3544 3216 3844 3400 
Q 4144 3584 4550 3584 
Q 5097 3584 5394 3201 
Q 5691 2819 5691 2113 
L 5691 0 
L 5113 0 
L 5113 2094 
Q 5113 2597 4934 2840 
Q 4756 3084 4391 3084 
Q 3944 3084 3684 2787 
Q 3425 2491 3425 1978 
L 3425 0 
L 2847 0 
L 2847 2094 
Q 2847 2600 2669 2842 
Q 2491 3084 2119 3084 
Q 1678 3084 1418 2786 
Q 1159 2488 1159 1978 
L 1159 0 
L 581 0 
L 581 3500 
L 1159 3500 
L 1159 2956 
Q 1356 3278 1631 3431 
Q 1906 3584 2284 3584 
Q 2666 3584 2933 3390 
Q 3200 3197 3328 2828 
z
" transform="scale(0.015625)"/>
       <path id="DejaVuSans-70" d="M 1159 525 
L 1159 -1331 
L 581 -1331 
L 581 3500 
L 1159 3500 
L 1159 2969 
Q 1341 3281 1617 3432 
Q 1894 3584 2278 3584 
Q 2916 3584 3314 3078 
Q 3713 2572 3713 1747 
Q 3713 922 3314 415 
Q 2916 -91 2278 -91 
Q 1894 -91 1617 61 
Q 1341 213 1159 525 
z
M 3116 1747 
Q 3116 2381 2855 2742 
Q 2594 3103 2138 3103 
Q 1681 3103 1420 2742 
Q 1159 2381 1159 1747 
Q 1159 1113 1420 752 
Q 1681 391 2138 391 
Q 2594 391 2855 752 
Q 3116 1113 3116 1747 
z
" transform="scale(0.015625)"/>
       <path id="DejaVuSans-79" d="M 2059 -325 
Q 1816 -950 1584 -1140 
Q 1353 -1331 966 -1331 
L 506 -1331 
L 506 -850 
L 844 -850 
Q 1081 -850 1212 -737 
Q 1344 -625 1503 -206 
L 1606 56 
L 191 3500 
L 800 3500 
L 1894 763 
L 2988 3500 
L 3597 3500 
L 2059 -325 
z
" transform="scale(0.015625)"/>
       <path id="DejaVuSans-72" d="M 2631 2963 
Q 2534 3019 2420 3045 
Q 2306 3072 2169 3072 
Q 1681 3072 1420 2755 
Q 1159 2438 1159 1844 
L 1159 0 
L 581 0 
L 581 3500 
L 1159 3500 
L 1159 2956 
Q 1341 3275 1631 3429 
Q 1922 3584 2338 3584 
Q 2397 3584 2469 3576 
Q 2541 3569 2628 3553 
L 2631 2963 
z
" transform="scale(0.015625)"/>
       <path id="DejaVuSans-48" d="M 628 4666 
L 1259 4666 
L 1259 2753 
L 3553 2753 
L 3553 4666 
L 4184 4666 
L 4184 0 
L 3553 0 
L 3553 2222 
L 1259 2222 
L 1259 0 
L 628 0 
L 628 4666 
z
" transform="scale(0.015625)"/>
       <path id="DejaVuSans-53" d="M 3425 4513 
L 3425 3897 
Q 3066 4069 2747 4153 
Q 2428 4238 2131 4238 
Q 1616 4238 1336 4038 
Q 1056 3838 1056 3469 
Q 1056 3159 1242 3001 
Q 1428 2844 1947 2747 
L 2328 2669 
Q 3034 2534 3370 2195 
Q 3706 1856 3706 1288 
Q 3706 609 3251 259 
Q 2797 -91 1919 -91 
Q 1588 -91 1214 -16 
Q 841 59 441 206 
L 441 856 
Q 825 641 1194 531 
Q 1563 422 1919 422 
Q 2459 422 2753 634 
Q 3047 847 3047 1241 
Q 3047 1584 2836 1778 
Q 2625 1972 2144 2069 
L 1759 2144 
Q 1053 2284 737 2584 
Q 422 2884 422 3419 
Q 422 4038 858 4394 
Q 1294 4750 2059 4750 
Q 2388 4750 2728 4690 
Q 3069 4631 3425 4513 
z
" transform="scale(0.015625)"/>
       <path id="DejaVuSans-69" d="M 603 3500 
L 1178 3500 
L 1178 0 
L 603 0 
L 603 3500 
z
M 603 4863 
L 1178 4863 
L 1178 4134 
L 603 4134 
L 603 4863 
z
" transform="scale(0.015625)"/>
       <path id="DejaVuSans-62" d="M 3116 1747 
Q 3116 2381 2855 2742 
Q 2594 3103 2138 3103 
Q 1681 3103 1420 2742 
Q 1159 2381 1159 1747 
Q 1159 1113 1420 752 
Q 1681 391 2138 391 
Q 2594 391 2855 752 
Q 3116 1113 3116 1747 
z
M 1159 2969 
Q 1341 3281 1617 3432 
Q 1894 3584 2278 3584 
Q 2916 3584 3314 3078 
Q 3713 2572 3713 1747 
Q 3713 922 3314 415 
Q 2916 -91 2278 -91 
Q 1894 -91 1617 61 
Q 1341 213 1159 525 
L 1159 0 
L 581 0 
L 581 4863 
L 1159 4863 
L 1159 2969 
z
" transform="scale(0.015625)"/>
       <path id="DejaVuSans-2014" d="M 313 1978 
L 6088 1978 
L 6088 1528 
L 313 1528 
L 313 1978 
z
" transform="scale(0.015625)"/>
       <path id="DejaVuSans-24" d="M 2163 -941 
L 1850 -941 
L 1847 0 
Q 1519 6 1191 76 
Q 863 147 531 288 
L 531 850 
Q 850 650 1176 548 
Q 1503 447 1850 444 
L 1850 1869 
Q 1159 1981 845 2250 
Q 531 2519 531 2988 
Q 531 3497 872 3790 
Q 1213 4084 1850 4128 
L 1850 4863 
L 2163 4863 
L 2163 4138 
Q 2453 4125 2725 4076 
Q 2997 4028 3256 3944 
L 3256 3397 
Q 2997 3528 2723 3600 
Q 2450 3672 2163 3684 
L 2163 2350 
Q 2872 2241 3206 1959 
Q 3541 1678 3541 1191 
Q 3541 663 3186 358 
Q 2831 53 2163 6 
L 2163 -941 
z
M 1850 2406 
L 1850 3688 
Q 1488 3647 1297 3481 
Q 1106 3316 1106 3041 
Q 1106 2772 1282 2622 
Q 1459 2472 1850 2406 
z
M 2163 1806 
L 2163 453 
Q 2559 506 2761 678 
Q 2963 850 2963 1131 
Q 2963 1406 2770 1568 
Q 2578 1731 2163 1806 
z
" transform="scale(0.015625)"/>
      </defs>
      <use xlink:href="#DejaVuSans-41"/>
      <use xlink:href="#DejaVuSans-6e" transform="translate(68.408203 0)"/>
      <use xlink:href="#DejaVuSans-6e" transform="translate(131.787109 0)"/>
      <use xlink:href="#DejaVuSans-75" transform="translate(195.166016 0)"/>
      <use xlink:href="#DejaVuSans-61" transform="translate(258.544922 0)"/>
      <use xlink:href="#DejaVuSans-6c" transform="translate(319.824219 0)"/>
      <use xlink:href="#DejaVuSans-20" transform="translate(347.607422 0)"/>
      <use xlink:href="#DejaVuSans-63" transform="translate(379.394531 0)"/>
      <use xlink:href="#DejaVuSans-6f" transform="translate(434.375 0)"/>
      <use xlink:href="#DejaVuSans-73" transform="translate(495.556641 0)"/>
      <use xlink:href="#DejaVuSans-74" transform="translate(547.65625 0)"/>
      <use xlink:href="#DejaVuSans-20" transform="translate(586.865234 0)"/>
      <use xlink:href="#DejaVuSans-6e" transform="translate(618.652344 0)"/>
      <use xlink:href="#DejaVuSans-65" transform="translate(682.03125 0)"/>
      <use xlink:href="#DejaVuSans-74" transform="translate(743.554688 0)"/>
      <use xlink:href="#DejaVuSans-20" transform="translate(782.763672 0)"/>
      <use xlink:href="#DejaVuSans-6f" transform="translate(814.550781 0)"/>
      <use xlink:href="#DejaVuSans-66" transform="translate(875.732422 0)"/>
      <use xlink:href="#DejaVuSans-20" transform="translate(910.9375 0)"/>
      <use xlink:href="#DejaVuSans-65" transform="translate(942.724609 0)"/>
      <use xlink:href="#DejaVuSans-6d" transform="translate(1004.248047 0)"/>
      <use xlink:href="#DejaVuSans-70" transform="translate(1101.660156 0)"/>
      <use xlink:href="#DejaVuSans-6c" transform="translate(1165.136719 0)"/>
      <use xlink:href="#DejaVuSans-6f" transform="translate(1192.919922 0)"/>
      <use xlink:href="#DejaVuSans-79" transform="translate(1254.101562 0)"/>
      <use xlink:href="#DejaVuSans-65" transform="translate(1313.28125 0)"/>
      <use xlink:href="#DejaVuSans-72" transform="translate(1374.804688 0)"/>
      <use xlink:href="#DejaVuSans-20" transform="translate(1415.917969 0)"/>
      <use xlink:href="#DejaVuSans-48" transform="translate(1447.705078 0)"/>
      <use xlink:href="#DejaVuSans-53" transform="translate(1522.900391 0)"/>
      <use xlink:href="#DejaVuSans-41" transform="translate(1588.251953 0)"/>
      <use xlink:href="#DejaVuSans-20" transform="translate(1656.660156 0)"/>
      <use xlink:href="#DejaVuSans-63" transform="translate(1688.447266 0)"/>
      <use xlink:href="#DejaVuSans-6f" transform="translate(1743.427734 0)"/>
      <use xlink:href="#DejaVuSans-6e" transform="translate(1804.609375 0)"/>
      <use xlink:href="#DejaVuSans-74" transform="translate(1867.988281 0)"/>
      <use xlink:href="#DejaVuSans-72" transform="translate(1907.197266 0)"/>
      <use xlink:href="#DejaVuSans-69" transform="translate(1948.310547 0)"/>
      <use xlink:href="#DejaVuSans-62" transform="translate(1976.09375 0)"/>
      <use xlink:href="#DejaVuSans-75" transform="translate(2039.570312 0)"/>
      <use xlink:href="#DejaVuSans-74" transform="translate(2102.949219 0)"/>
      <use xlink:href="#DejaVuSans-69" transform="translate(2142.158203 0)"/>
      <use xlink:href="#DejaVuSans-6f" transform="translate(2169.941406 0)"/>
      <use xlink:href="#DejaVuSans-6e" transform="translate(2231.123047 0)"/>
      <use xlink:href="#DejaVuSans-20" transform="translate(2294.501953 0)"/>
      <use xlink:href="#DejaVuSans-2014" transform="translate(2326.289062 0)"/>
      <use xlink:href="#DejaVuSans-20" transform="translate(2426.289062 0)"/>
      <use xlink:href="#DejaVuSans-24" transform="translate(2458.076172 0)"/>
     </g>
    </g>
   </g>
   <g id="matplotlib.axis_2">
    <g id="ytick_1">
     <g id="line2d_15"/>
     <g id="text_9">
      <!-- FCCPS  ·  TLC QHP (dental bundled) -->
      <g style="fill: #1d2330" transform="translate(21.6 265.898861) scale(0.1 -0.1)">
       <defs>
        <path id="DejaVuSans-46" d="M 628 4666 
L 3309 4666 
L 3309 4134 
L 1259 4134 
L 1259 2759 
L 3109 2759 
L 3109 2228 
L 1259 2228 
L 1259 0 
L 628 0 
L 628 4666 
z
" transform="scale(0.015625)"/>
        <path id="DejaVuSans-43" d="M 4122 4306 
L 4122 3641 
Q 3803 3938 3442 4084 
Q 3081 4231 2675 4231 
Q 1875 4231 1450 3742 
Q 1025 3253 1025 2328 
Q 1025 1406 1450 917 
Q 1875 428 2675 428 
Q 3081 428 3442 575 
Q 3803 722 4122 1019 
L 4122 359 
Q 3791 134 3420 21 
Q 3050 -91 2638 -91 
Q 1578 -91 968 557 
Q 359 1206 359 2328 
Q 359 3453 968 4101 
Q 1578 4750 2638 4750 
Q 3056 4750 3426 4639 
Q 3797 4528 4122 4306 
z
" transform="scale(0.015625)"/>
        <path id="DejaVuSans-50" d="M 1259 4147 
L 1259 2394 
L 2053 2394 
Q 2494 2394 2734 2622 
Q 2975 2850 2975 3272 
Q 2975 3691 2734 3919 
Q 2494 4147 2053 4147 
L 1259 4147 
z
M 628 4666 
L 2053 4666 
Q 2838 4666 3239 4311 
Q 3641 3956 3641 3272 
Q 3641 2581 3239 2228 
Q 2838 1875 2053 1875 
L 1259 1875 
L 1259 0 
L 628 0 
L 628 4666 
z
" transform="scale(0.015625)"/>
        <path id="DejaVuSans-b7" d="M 684 2619 
L 1344 2619 
L 1344 1825 
L 684 1825 
L 684 2619 
z
" transform="scale(0.015625)"/>
        <path id="DejaVuSans-54" d="M -19 4666 
L 3928 4666 
L 3928 4134 
L 2272 4134 
L 2272 0 
L 1638 0 
L 1638 4134 
L -19 4134 
L -19 4666 
z
" transform="scale(0.015625)"/>
        <path id="DejaVuSans-4c" d="M 628 4666 
L 1259 4666 
L 1259 531 
L 3531 531 
L 3531 0 
L 628 0 
L 628 4666 
z
" transform="scale(0.015625)"/>
        <path id="DejaVuSans-51" d="M 2522 4238 
Q 1834 4238 1429 3725 
Q 1025 3213 1025 2328 
Q 1025 1447 1429 934 
Q 1834 422 2522 422 
Q 3209 422 3611 934 
Q 4013 1447 4013 2328 
Q 4013 3213 3611 3725 
Q 3209 4238 2522 4238 
z
M 3406 84 
L 4238 -825 
L 3475 -825 
L 2784 -78 
Q 2681 -84 2626 -87 
Q 2572 -91 2522 -91 
Q 1538 -91 948 567 
Q 359 1225 359 2328 
Q 359 3434 948 4092 
Q 1538 4750 2522 4750 
Q 3503 4750 4090 4092 
Q 4678 3434 4678 2328 
Q 4678 1516 4351 937 
Q 4025 359 3406 84 
z
" transform="scale(0.015625)"/>
        <path id="DejaVuSans-28" d="M 1984 4856 
Q 1566 4138 1362 3434 
Q 1159 2731 1159 2009 
Q 1159 1288 1364 580 
Q 1569 -128 1984 -844 
L 1484 -844 
Q 1016 -109 783 600 
Q 550 1309 550 2009 
Q 550 2706 781 3412 
Q 1013 4119 1484 4856 
L 1984 4856 
z
" transform="scale(0.015625)"/>
        <path id="DejaVuSans-64" d="M 2906 2969 
L 2906 4863 
L 3481 4863 
L 3481 0 
L 2906 0 
L 2906 525 
Q 2725 213 2448 61 
Q 2172 -91 1784 -91 
Q 1150 -91 751 415 
Q 353 922 353 1747 
Q 353 2572 751 3078 
Q 1150 3584 1784 3584 
Q 2172 3584 2448 3432 
Q 2725 3281 2906 2969 
z
M 947 1747 
Q 947 1113 1208 752 
Q 1469 391 1925 391 
Q 2381 391 2643 752 
Q 2906 1113 2906 1747 
Q 2906 2381 2643 2742 
Q 2381 3103 1925 3103 
Q 1469 3103 1208 2742 
Q 947 2381 947 1747 
z
" transform="scale(0.015625)"/>
        <path id="DejaVuSans-29" d="M 513 4856 
L 1013 4856 
Q 1481 4119 1714 3412 
Q 1947 2706 1947 2009 
Q 1947 1309 1714 600 
Q 1481 -109 1013 -844 
L 513 -844 
Q 928 -128 1133 580 
Q 1338 1288 1338 2009 
Q 1338 2731 1133 3434 
Q 928 4138 513 4856 
z
" transform="scale(0.015625)"/>
       </defs>
       <use xlink:href="#DejaVuSans-46"/>
       <use xlink:href="#DejaVuSans-43" transform="translate(57.519531 0)"/>
       <use xlink:href="#DejaVuSans-43" transform="translate(127.34375 0)"/>
       <use xlink:href="#DejaVuSans-50" transform="translate(197.167969 0)"/>
       <use xlink:href="#DejaVuSans-53" transform="translate(257.470703 0)"/>
       <use xlink:href="#DejaVuSans-20" transform="translate(320.947266 0)"/>
       <use xlink:href="#DejaVuSans-20" transform="translate(352.734375 0)"/>
       <use xlink:href="#DejaVuSans-b7" transform="translate(384.521484 0)"/>
       <use xlink:href="#DejaVuSans-20" transform="translate(416.308594 0)"/>
       <use xlink:href="#DejaVuSans-20" transform="translate(448.095703 0)"/>
       <use xlink:href="#DejaVuSans-54" transform="translate(479.882812 0)"/>
       <use xlink:href="#DejaVuSans-4c" transform="translate(540.966797 0)"/>
       <use xlink:href="#DejaVuSans-43" transform="translate(596.679688 0)"/>
       <use xlink:href="#DejaVuSans-20" transform="translate(666.503906 0)"/>
       <use xlink:href="#DejaVuSans-51" transform="translate(698.291016 0)"/>
       <use xlink:href="#DejaVuSans-48" transform="translate(777.001953 0)"/>
       <use xlink:href="#DejaVuSans-50" transform="translate(852.197266 0)"/>
       <use xlink:href="#DejaVuSans-20" transform="translate(912.5 0)"/>
       <use xlink:href="#DejaVuSans-28" transform="translate(944.287109 0)"/>
       <use xlink:href="#DejaVuSans-64" transform="translate(983.300781 0)"/>
       <use xlink:href="#DejaVuSans-65" transform="translate(1046.777344 0)"/>
       <use xlink:href="#DejaVuSans-6e" transform="translate(1108.300781 0)"/>
       <use xlink:href="#DejaVuSans-74" transform="translate(1171.679688 0)"/>
       <use xlink:href="#DejaVuSans-61" transform="translate(1210.888672 0)"/>
       <use xlink:href="#DejaVuSans-6c" transform="translate(1272.167969 0)"/>
       <use xlink:href="#DejaVuSans-20" transform="translate(1299.951172 0)"/>
       <use xlink:href="#DejaVuSans-62" transform="translate(1331.738281 0)"/>
       <use xlink:href="#DejaVuSans-75" transform="translate(1395.214844 0)"/>
       <use xlink:href="#DejaVuSans-6e" transform="translate(1458.59375 0)"/>
       <use xlink:href="#DejaVuSans-64" transform="translate(1521.972656 0)"/>
       <use xlink:href="#DejaVuSans-6c" transform="translate(1585.449219 0)"/>
       <use xlink:href="#DejaVuSans-65" transform="translate(1613.232422 0)"/>
       <use xlink:href="#DejaVuSans-64" transform="translate(1674.755859 0)"/>
       <use xlink:href="#DejaVuSans-29" transform="translate(1738.232422 0)"/>
      </g>
     </g>
    </g>
    <g id="ytick_2">
     <g id="line2d_16"/>
     <g id="text_10">
      <!-- ACPS  ·  UHC QHP w/ HSA -->
      <g style="fill: #1d2330" transform="translate(72.185938 181.788344) scale(0.1 -0.1)">
       <defs>
        <path id="DejaVuSans-55" d="M 556 4666 
L 1191 4666 
L 1191 1831 
Q 1191 1081 1462 751 
Q 1734 422 2344 422 
Q 2950 422 3222 751 
Q 3494 1081 3494 1831 
L 3494 4666 
L 4128 4666 
L 4128 1753 
Q 4128 841 3676 375 
Q 3225 -91 2344 -91 
Q 1459 -91 1007 375 
Q 556 841 556 1753 
L 556 4666 
z
" transform="scale(0.015625)"/>
        <path id="DejaVuSans-77" d="M 269 3500 
L 844 3500 
L 1563 769 
L 2278 3500 
L 2956 3500 
L 3675 769 
L 4391 3500 
L 4966 3500 
L 4050 0 
L 3372 0 
L 2619 2869 
L 1863 0 
L 1184 0 
L 269 3500 
z
" transform="scale(0.015625)"/>
        <path id="DejaVuSans-2f" d="M 1625 4666 
L 2156 4666 
L 531 -594 
L 0 -594 
L 1625 4666 
z
" transform="scale(0.015625)"/>
       </defs>
       <use xlink:href="#DejaVuSans-41"/>
       <use xlink:href="#DejaVuSans-43" transform="translate(66.658203 0)"/>
       <use xlink:href="#DejaVuSans-50" transform="translate(136.482422 0)"/>
       <use xlink:href="#DejaVuSans-53" transform="translate(196.785156 0)"/>
       <use xlink:href="#DejaVuSans-20" transform="translate(260.261719 0)"/>
       <use xlink:href="#DejaVuSans-20" transform="translate(292.048828 0)"/>
       <use xlink:href="#DejaVuSans-b7" transform="translate(323.835938 0)"/>
       <use xlink:href="#DejaVuSans-20" transform="translate(355.623047 0)"/>
       <use xlink:href="#DejaVuSans-20" transform="translate(387.410156 0)"/>
       <use xlink:href="#DejaVuSans-55" transform="translate(419.197266 0)"/>
       <use xlink:href="#DejaVuSans-48" transform="translate(492.390625 0)"/>
       <use xlink:href="#DejaVuSans-43" transform="translate(567.585938 0)"/>
       <use xlink:href="#DejaVuSans-20" transform="translate(637.410156 0)"/>
       <use xlink:href="#DejaVuSans-51" transform="translate(669.197266 0)"/>
       <use xlink:href="#DejaVuSans-48" transform="translate(747.908203 0)"/>
       <use xlink:href="#DejaVuSans-50" transform="translate(823.103516 0)"/>
       <use xlink:href="#DejaVuSans-20" transform="translate(883.40625 0)"/>
       <use xlink:href="#DejaVuSans-77" transform="translate(915.193359 0)"/>
       <use xlink:href="#DejaVuSans-2f" transform="translate(996.980469 0)"/>
       <use xlink:href="#DejaVuSans-20" transform="translate(1030.671875 0)"/>
       <use xlink:href="#DejaVuSans-48" transform="translate(1062.458984 0)"/>
       <use xlink:href="#DejaVuSans-53" transform="translate(1137.654297 0)"/>
       <use xlink:href="#DejaVuSans-41" transform="translate(1203.005859 0)"/>
      </g>
     </g>
    </g>
    <g id="ytick_3">
     <g id="line2d_17"/>
     <g id="text_11">
      <!-- LCPS  ·  Cigna QHP w/ HSA -->
      <g style="fill: #1d2330" transform="translate(66.526563 97.677827) scale(0.1 -0.1)">
       <defs>
        <path id="DejaVuSans-67" d="M 2906 1791 
Q 2906 2416 2648 2759 
Q 2391 3103 1925 3103 
Q 1463 3103 1205 2759 
Q 947 2416 947 1791 
Q 947 1169 1205 825 
Q 1463 481 1925 481 
Q 2391 481 2648 825 
Q 2906 1169 2906 1791 
z
M 3481 434 
Q 3481 -459 3084 -895 
Q 2688 -1331 1869 -1331 
Q 1566 -1331 1297 -1286 
Q 1028 -1241 775 -1147 
L 775 -588 
Q 1028 -725 1275 -790 
Q 1522 -856 1778 -856 
Q 2344 -856 2625 -561 
Q 2906 -266 2906 331 
L 2906 616 
Q 2728 306 2450 153 
Q 2172 0 1784 0 
Q 1141 0 747 490 
Q 353 981 353 1791 
Q 353 2603 747 3093 
Q 1141 3584 1784 3584 
Q 2172 3584 2450 3431 
Q 2728 3278 2906 2969 
L 2906 3500 
L 3481 3500 
L 3481 434 
z
" transform="scale(0.015625)"/>
       </defs>
       <use xlink:href="#DejaVuSans-4c"/>
       <use xlink:href="#DejaVuSans-43" transform="translate(55.712891 0)"/>
       <use xlink:href="#DejaVuSans-50" transform="translate(125.537109 0)"/>
       <use xlink:href="#DejaVuSans-53" transform="translate(185.839844 0)"/>
       <use xlink:href="#DejaVuSans-20" transform="translate(249.316406 0)"/>
       <use xlink:href="#DejaVuSans-20" transform="translate(281.103516 0)"/>
       <use xlink:href="#DejaVuSans-b7" transform="translate(312.890625 0)"/>
       <use xlink:href="#DejaVuSans-20" transform="translate(344.677734 0)"/>
       <use xlink:href="#DejaVuSans-20" transform="translate(376.464844 0)"/>
       <use xlink:href="#DejaVuSans-43" transform="translate(408.251953 0)"/>
       <use xlink:href="#DejaVuSans-69" transform="translate(478.076172 0)"/>
       <use xlink:href="#DejaVuSans-67" transform="translate(505.859375 0)"/>
       <use xlink:href="#DejaVuSans-6e" transform="translate(569.335938 0)"/>
       <use xlink:href="#DejaVuSans-61" transform="translate(632.714844 0)"/>
       <use xlink:href="#DejaVuSans-20" transform="translate(693.994141 0)"/>
       <use xlink:href="#DejaVuSans-51" transform="translate(725.78125 0)"/>
       <use xlink:href="#DejaVuSans-48" transform="translate(804.492188 0)"/>
       <use xlink:href="#DejaVuSans-50" transform="translate(879.6875 0)"/>
       <use xlink:href="#DejaVuSans-20" transform="translate(939.990234 0)"/>
       <use xlink:href="#DejaVuSans-77" transform="translate(971.777344 0)"/>
       <use xlink:href="#DejaVuSans-2f" transform="translate(1053.564453 0)"/>
       <use xlink:href="#DejaVuSans-20" transform="translate(1087.255859 0)"/>
       <use xlink:href="#DejaVuSans-48" transform="translate(1119.042969 0)"/>
       <use xlink:href="#DejaVuSans-53" transform="translate(1194.238281 0)"/>
       <use xlink:href="#DejaVuSans-41" transform="translate(1259.589844 0)"/>
      </g>
     </g>
    </g>
   </g>
   <g id="patch_3">
    <path d="M 289.051471 285.230034 
L 534.914493 285.230034 
L 534.914493 238.96925 
L 289.051471 238.96925 
z
" clip-path="url(#p7e81f26f29)" style="fill: #6b21a8; opacity: 0.9; stroke: #ffffff; stroke-width: 0.5; stroke-linejoin: miter"/>
   </g>
   <g id="patch_4">
    <path d="M 289.051471 201.119517 
L 548.985086 201.119517 
L 548.985086 154.858733 
L 289.051471 154.858733 
z
" clip-path="url(#p7e81f26f29)" style="fill: #1a8cc4; opacity: 0.9; stroke: #ffffff; stroke-width: 0.5; stroke-linejoin: miter"/>
   </g>
   <g id="patch_5">
    <path d="M 289.051471 117.009 
L 399.656516 117.009 
L 399.656516 70.748216 
L 289.051471 70.748216 
z
" clip-path="url(#p7e81f26f29)" style="fill: #991b1b; opacity: 0.9; stroke: #ffffff; stroke-width: 0.5; stroke-linejoin: miter"/>
   </g>
   <g id="patch_6">
    <path d="M 534.914493 285.230034 
L 801.432675 285.230034 
L 801.432675 238.96925 
L 534.914493 238.96925 
z
" clip-path="url(#p7e81f26f29)" style="fill: #6b21a8; opacity: 0.45; stroke: #ffffff; stroke-width: 0.5; stroke-linejoin: miter"/>
   </g>
   <g id="patch_7">
    <path d="M 548.985086 201.119517 
L 635.211556 201.119517 
L 635.211556 154.858733 
L 548.985086 154.858733 
z
" clip-path="url(#p7e81f26f29)" style="fill: #1a8cc4; opacity: 0.45; stroke: #ffffff; stroke-width: 0.5; stroke-linejoin: miter"/>
   </g>
   <g id="patch_8">
    <path d="M 399.656516 117.009 
L 454.527906 117.009 
L 454.527906 70.748216 
L 399.656516 70.748216 
z
" clip-path="url(#p7e81f26f29)" style="fill: #991b1b; opacity: 0.45; stroke: #ffffff; stroke-width: 0.5; stroke-linejoin: miter"/>
   </g>
   <g id="patch_9">
    <path d="M 202.825 295.954125 
L 935.75 295.954125 
" style="fill: none; stroke: #000000; stroke-width: 0.8; stroke-linejoin: miter; stroke-linecap: square"/>
   </g>
   <g id="text_12">
    <!-- $13,073 net -->
    <g style="fill: #1d2330" transform="translate(809.271445 264.859017) scale(0.1 -0.1)">
     <defs>
      <path id="DejaVuSans-Bold-24" d="M 2484 -941 
L 1978 -941 
L 1975 0 
Q 1584 16 1218 87 
Q 853 159 506 288 
L 506 1106 
Q 866 922 1233 823 
Q 1600 725 1978 713 
L 1978 1684 
L 1875 1703 
Q 1128 1834 814 2115 
Q 500 2397 500 2925 
Q 500 3484 883 3798 
Q 1266 4113 1975 4141 
L 1978 4863 
L 2484 4863 
L 2484 4153 
Q 2797 4128 3109 4075 
Q 3422 4022 3738 3938 
L 3738 3144 
Q 3425 3275 3112 3348 
Q 2800 3422 2484 3438 
L 2484 2541 
L 2584 2522 
Q 3378 2397 3698 2105 
Q 4019 1813 4019 1241 
Q 4019 666 3637 358 
Q 3256 50 2484 6 
L 2484 -941 
z
M 1978 2613 
L 1978 3428 
Q 1756 3416 1623 3308 
Q 1491 3200 1491 3034 
Q 1491 2850 1612 2745 
Q 1734 2641 1978 2613 
z
M 2484 1594 
L 2484 725 
Q 2756 728 2892 831 
Q 3028 934 3028 1141 
Q 3028 1353 2903 1458 
Q 2778 1563 2484 1594 
z
" transform="scale(0.015625)"/>
      <path id="DejaVuSans-Bold-31" d="M 750 831 
L 1813 831 
L 1813 3847 
L 722 3622 
L 722 4441 
L 1806 4666 
L 2950 4666 
L 2950 831 
L 4013 831 
L 4013 0 
L 750 0 
L 750 831 
z
" transform="scale(0.015625)"/>
      <path id="DejaVuSans-Bold-33" d="M 2981 2516 
Q 3453 2394 3698 2092 
Q 3944 1791 3944 1325 
Q 3944 631 3412 270 
Q 2881 -91 1863 -91 
Q 1503 -91 1142 -33 
Q 781 25 428 141 
L 428 1069 
Q 766 900 1098 814 
Q 1431 728 1753 728 
Q 2231 728 2486 893 
Q 2741 1059 2741 1369 
Q 2741 1688 2480 1852 
Q 2219 2016 1709 2016 
L 1228 2016 
L 1228 2791 
L 1734 2791 
Q 2188 2791 2409 2933 
Q 2631 3075 2631 3366 
Q 2631 3634 2415 3781 
Q 2200 3928 1806 3928 
Q 1516 3928 1219 3862 
Q 922 3797 628 3669 
L 628 4550 
Q 984 4650 1334 4700 
Q 1684 4750 2022 4750 
Q 2931 4750 3382 4451 
Q 3834 4153 3834 3553 
Q 3834 3144 3618 2883 
Q 3403 2622 2981 2516 
z
" transform="scale(0.015625)"/>
      <path id="DejaVuSans-Bold-2c" d="M 653 1209 
L 1778 1209 
L 1778 256 
L 1006 -909 
L 341 -909 
L 653 256 
L 653 1209 
z
" transform="scale(0.015625)"/>
      <path id="DejaVuSans-Bold-30" d="M 2944 2338 
Q 2944 3213 2780 3570 
Q 2616 3928 2228 3928 
Q 1841 3928 1675 3570 
Q 1509 3213 1509 2338 
Q 1509 1453 1675 1090 
Q 1841 728 2228 728 
Q 2613 728 2778 1090 
Q 2944 1453 2944 2338 
z
M 4147 2328 
Q 4147 1169 3647 539 
Q 3147 -91 2228 -91 
Q 1306 -91 806 539 
Q 306 1169 306 2328 
Q 306 3491 806 4120 
Q 1306 4750 2228 4750 
Q 3147 4750 3647 4120 
Q 4147 3491 4147 2328 
z
" transform="scale(0.015625)"/>
      <path id="DejaVuSans-Bold-37" d="M 428 4666 
L 3944 4666 
L 3944 3988 
L 2125 0 
L 953 0 
L 2675 3781 
L 428 3781 
L 428 4666 
z
" transform="scale(0.015625)"/>
      <path id="DejaVuSans-Bold-20" transform="scale(0.015625)"/>
      <path id="DejaVuSans-Bold-6e" d="M 4056 2131 
L 4056 0 
L 2931 0 
L 2931 347 
L 2931 1631 
Q 2931 2084 2911 2256 
Q 2891 2428 2841 2509 
Q 2775 2619 2662 2680 
Q 2550 2741 2406 2741 
Q 2056 2741 1856 2470 
Q 1656 2200 1656 1722 
L 1656 0 
L 538 0 
L 538 3500 
L 1656 3500 
L 1656 2988 
Q 1909 3294 2193 3439 
Q 2478 3584 2822 3584 
Q 3428 3584 3742 3212 
Q 4056 2841 4056 2131 
z
" transform="scale(0.015625)"/>
      <path id="DejaVuSans-Bold-65" d="M 4031 1759 
L 4031 1441 
L 1416 1441 
Q 1456 1047 1700 850 
Q 1944 653 2381 653 
Q 2734 653 3104 758 
Q 3475 863 3866 1075 
L 3866 213 
Q 3469 63 3072 -14 
Q 2675 -91 2278 -91 
Q 1328 -91 801 392 
Q 275 875 275 1747 
Q 275 2603 792 3093 
Q 1309 3584 2216 3584 
Q 3041 3584 3536 3087 
Q 4031 2591 4031 1759 
z
M 2881 2131 
Q 2881 2450 2695 2645 
Q 2509 2841 2209 2841 
Q 1884 2841 1681 2658 
Q 1478 2475 1428 2131 
L 2881 2131 
z
" transform="scale(0.015625)"/>
      <path id="DejaVuSans-Bold-74" d="M 1759 4494 
L 1759 3500 
L 2913 3500 
L 2913 2700 
L 1759 2700 
L 1759 1216 
Q 1759 972 1856 886 
Q 1953 800 2241 800 
L 2816 800 
L 2816 0 
L 1856 0 
Q 1194 0 917 276 
Q 641 553 641 1216 
L 641 2700 
L 84 2700 
L 84 3500 
L 641 3500 
L 641 4494 
L 1759 4494 
z
" transform="scale(0.015625)"/>
     </defs>
     <use xlink:href="#DejaVuSans-Bold-24"/>
     <use xlink:href="#DejaVuSans-Bold-31" transform="translate(69.580078 0)"/>
     <use xlink:href="#DejaVuSans-Bold-33" transform="translate(139.160156 0)"/>
     <use xlink:href="#DejaVuSans-Bold-2c" transform="translate(208.740234 0)"/>
     <use xlink:href="#DejaVuSans-Bold-30" transform="translate(246.728516 0)"/>
     <use xlink:href="#DejaVuSans-Bold-37" transform="translate(316.308594 0)"/>
     <use xlink:href="#DejaVuSans-Bold-33" transform="translate(385.888672 0)"/>
     <use xlink:href="#DejaVuSans-Bold-20" transform="translate(455.46875 0)"/>
     <use xlink:href="#DejaVuSans-Bold-6e" transform="translate(490.283203 0)"/>
     <use xlink:href="#DejaVuSans-Bold-65" transform="translate(561.474609 0)"/>
     <use xlink:href="#DejaVuSans-Bold-74" transform="translate(629.296875 0)"/>
    </g>
   </g>
   <g id="text_13">
    <!-- $6,273 -->
    <g style="fill: #ffffff" transform="translate(395.583294 264.445111) scale(0.085 -0.085)">
     <defs>
      <path id="DejaVuSans-Bold-36" d="M 2316 2303 
Q 2000 2303 1842 2098 
Q 1684 1894 1684 1484 
Q 1684 1075 1842 870 
Q 2000 666 2316 666 
Q 2634 666 2792 870 
Q 2950 1075 2950 1484 
Q 2950 1894 2792 2098 
Q 2634 2303 2316 2303 
z
M 3803 4544 
L 3803 3681 
Q 3506 3822 3243 3889 
Q 2981 3956 2731 3956 
Q 2194 3956 1894 3657 
Q 1594 3359 1544 2772 
Q 1750 2925 1990 3001 
Q 2231 3078 2516 3078 
Q 3231 3078 3670 2659 
Q 4109 2241 4109 1563 
Q 4109 813 3618 361 
Q 3128 -91 2303 -91 
Q 1394 -91 895 523 
Q 397 1138 397 2266 
Q 397 3422 980 4083 
Q 1563 4744 2578 4744 
Q 2900 4744 3203 4694 
Q 3506 4644 3803 4544 
z
" transform="scale(0.015625)"/>
      <path id="DejaVuSans-Bold-32" d="M 1844 884 
L 3897 884 
L 3897 0 
L 506 0 
L 506 884 
L 2209 2388 
Q 2438 2594 2547 2791 
Q 2656 2988 2656 3200 
Q 2656 3528 2436 3728 
Q 2216 3928 1850 3928 
Q 1569 3928 1234 3808 
Q 900 3688 519 3450 
L 519 4475 
Q 925 4609 1322 4679 
Q 1719 4750 2100 4750 
Q 2938 4750 3402 4381 
Q 3866 4013 3866 3353 
Q 3866 2972 3669 2642 
Q 3472 2313 2841 1759 
L 1844 884 
z
" transform="scale(0.015625)"/>
     </defs>
     <use xlink:href="#DejaVuSans-Bold-24"/>
     <use xlink:href="#DejaVuSans-Bold-36" transform="translate(69.580078 0)"/>
     <use xlink:href="#DejaVuSans-Bold-2c" transform="translate(139.160156 0)"/>
     <use xlink:href="#DejaVuSans-Bold-32" transform="translate(177.148438 0)"/>
     <use xlink:href="#DejaVuSans-Bold-37" transform="translate(246.728516 0)"/>
     <use xlink:href="#DejaVuSans-Bold-33" transform="translate(316.308594 0)"/>
    </g>
   </g>
   <g id="text_14">
    <!-- gap $6,800 -->
    <g style="fill: #1d2330" transform="translate(642.920459 264.275892) scale(0.08 -0.08)">
     <defs>
      <path id="DejaVuSans-Bold-67" d="M 2919 594 
Q 2688 288 2409 144 
Q 2131 0 1766 0 
Q 1125 0 706 504 
Q 288 1009 288 1791 
Q 288 2575 706 3076 
Q 1125 3578 1766 3578 
Q 2131 3578 2409 3434 
Q 2688 3291 2919 2981 
L 2919 3500 
L 4044 3500 
L 4044 353 
Q 4044 -491 3511 -936 
Q 2978 -1381 1966 -1381 
Q 1638 -1381 1331 -1331 
Q 1025 -1281 716 -1178 
L 716 -306 
Q 1009 -475 1290 -558 
Q 1572 -641 1856 -641 
Q 2406 -641 2662 -400 
Q 2919 -159 2919 353 
L 2919 594 
z
M 2181 2772 
Q 1834 2772 1640 2515 
Q 1447 2259 1447 1791 
Q 1447 1309 1634 1061 
Q 1822 813 2181 813 
Q 2531 813 2725 1069 
Q 2919 1325 2919 1791 
Q 2919 2259 2725 2515 
Q 2531 2772 2181 2772 
z
" transform="scale(0.015625)"/>
      <path id="DejaVuSans-Bold-61" d="M 2106 1575 
Q 1756 1575 1579 1456 
Q 1403 1338 1403 1106 
Q 1403 894 1545 773 
Q 1688 653 1941 653 
Q 2256 653 2472 879 
Q 2688 1106 2688 1447 
L 2688 1575 
L 2106 1575 
z
M 3816 1997 
L 3816 0 
L 2688 0 
L 2688 519 
Q 2463 200 2181 54 
Q 1900 -91 1497 -91 
Q 953 -91 614 226 
Q 275 544 275 1050 
Q 275 1666 698 1953 
Q 1122 2241 2028 2241 
L 2688 2241 
L 2688 2328 
Q 2688 2594 2478 2717 
Q 2269 2841 1825 2841 
Q 1466 2841 1156 2769 
Q 847 2697 581 2553 
L 581 3406 
Q 941 3494 1303 3539 
Q 1666 3584 2028 3584 
Q 2975 3584 3395 3211 
Q 3816 2838 3816 1997 
z
" transform="scale(0.015625)"/>
      <path id="DejaVuSans-Bold-70" d="M 1656 506 
L 1656 -1331 
L 538 -1331 
L 538 3500 
L 1656 3500 
L 1656 2988 
Q 1888 3294 2169 3439 
Q 2450 3584 2816 3584 
Q 3463 3584 3878 3070 
Q 4294 2556 4294 1747 
Q 4294 938 3878 423 
Q 3463 -91 2816 -91 
Q 2450 -91 2169 54 
Q 1888 200 1656 506 
z
M 2400 2772 
Q 2041 2772 1848 2508 
Q 1656 2244 1656 1747 
Q 1656 1250 1848 986 
Q 2041 722 2400 722 
Q 2759 722 2948 984 
Q 3138 1247 3138 1747 
Q 3138 2247 2948 2509 
Q 2759 2772 2400 2772 
z
" transform="scale(0.015625)"/>
      <path id="DejaVuSans-Bold-38" d="M 2228 2088 
Q 1891 2088 1709 1903 
Q 1528 1719 1528 1375 
Q 1528 1031 1709 848 
Q 1891 666 2228 666 
Q 2563 666 2741 848 
Q 2919 1031 2919 1375 
Q 2919 1722 2741 1905 
Q 2563 2088 2228 2088 
z
M 1350 2484 
Q 925 2613 709 2878 
Q 494 3144 494 3541 
Q 494 4131 934 4440 
Q 1375 4750 2228 4750 
Q 3075 4750 3515 4442 
Q 3956 4134 3956 3541 
Q 3956 3144 3739 2878 
Q 3522 2613 3097 2484 
Q 3572 2353 3814 2058 
Q 4056 1763 4056 1313 
Q 4056 619 3595 264 
Q 3134 -91 2228 -91 
Q 1319 -91 855 264 
Q 391 619 391 1313 
Q 391 1763 633 2058 
Q 875 2353 1350 2484 
z
M 1631 3419 
Q 1631 3141 1786 2991 
Q 1941 2841 2228 2841 
Q 2509 2841 2662 2991 
Q 2816 3141 2816 3419 
Q 2816 3697 2662 3845 
Q 2509 3994 2228 3994 
Q 1941 3994 1786 3844 
Q 1631 3694 1631 3419 
z
" transform="scale(0.015625)"/>
     </defs>
     <use xlink:href="#DejaVuSans-Bold-67"/>
     <use xlink:href="#DejaVuSans-Bold-61" transform="translate(71.582031 0)"/>
     <use xlink:href="#DejaVuSans-Bold-70" transform="translate(139.0625 0)"/>
     <use xlink:href="#DejaVuSans-Bold-20" transform="translate(210.644531 0)"/>
     <use xlink:href="#DejaVuSans-Bold-24" transform="translate(245.458984 0)"/>
     <use xlink:href="#DejaVuSans-Bold-36" transform="translate(315.039062 0)"/>
     <use xlink:href="#DejaVuSans-Bold-2c" transform="translate(384.619141 0)"/>
     <use xlink:href="#DejaVuSans-Bold-38" transform="translate(422.607422 0)"/>
     <use xlink:href="#DejaVuSans-Bold-30" transform="translate(492.1875 0)"/>
     <use xlink:href="#DejaVuSans-Bold-30" transform="translate(561.767578 0)"/>
    </g>
   </g>
   <g id="text_15">
    <!-- HSA: not specified -->
    <g style="fill: #5b6573" transform="translate(825.706961 264.583079) scale(0.09 -0.09)">
     <defs>
      <path id="DejaVuSans-Oblique-48" d="M 1081 4666 
L 1716 4666 
L 1344 2753 
L 3634 2753 
L 4006 4666 
L 4641 4666 
L 3731 0 
L 3097 0 
L 3531 2222 
L 1241 2222 
L 806 0 
L 172 0 
L 1081 4666 
z
" transform="scale(0.015625)"/>
      <path id="DejaVuSans-Oblique-53" d="M 3859 4513 
L 3738 3897 
Q 3422 4066 3111 4152 
Q 2800 4238 2509 4238 
Q 1944 4238 1609 3991 
Q 1275 3744 1275 3334 
Q 1275 3109 1398 2989 
Q 1522 2869 2034 2731 
L 2413 2638 
Q 3053 2472 3303 2217 
Q 3553 1963 3553 1503 
Q 3553 797 2998 353 
Q 2444 -91 1538 -91 
Q 1166 -91 791 -17 
Q 416 56 38 206 
L 166 856 
Q 513 641 861 531 
Q 1209 422 1556 422 
Q 2147 422 2503 684 
Q 2859 947 2859 1369 
Q 2859 1650 2717 1795 
Q 2575 1941 2106 2059 
L 1728 2156 
Q 1081 2325 845 2545 
Q 609 2766 609 3163 
Q 609 3859 1145 4304 
Q 1681 4750 2541 4750 
Q 2875 4750 3203 4690 
Q 3531 4631 3859 4513 
z
" transform="scale(0.015625)"/>
      <path id="DejaVuSans-Oblique-41" d="M 2356 4666 
L 3072 4666 
L 3938 0 
L 3278 0 
L 3084 1197 
L 984 1197 
L 325 0 
L -341 0 
L 2356 4666 
z
M 2584 4044 
L 1275 1722 
L 2988 1722 
L 2584 4044 
z
" transform="scale(0.015625)"/>
      <path id="DejaVuSans-Oblique-3a" d="M 978 3309 
L 1638 3309 
L 1484 2516 
L 825 2516 
L 978 3309 
z
M 488 794 
L 1147 794 
L 991 0 
L 331 0 
L 488 794 
z
" transform="scale(0.015625)"/>
      <path id="DejaVuSans-Oblique-20" transform="scale(0.015625)"/>
      <path id="DejaVuSans-Oblique-6e" d="M 3566 2113 
L 3156 0 
L 2578 0 
L 2988 2091 
Q 3016 2238 3031 2350 
Q 3047 2463 3047 2528 
Q 3047 2791 2881 2937 
Q 2716 3084 2419 3084 
Q 1956 3084 1622 2776 
Q 1288 2469 1184 1941 
L 800 0 
L 225 0 
L 903 3500 
L 1478 3500 
L 1363 2950 
Q 1603 3253 1940 3418 
Q 2278 3584 2650 3584 
Q 3113 3584 3367 3334 
Q 3622 3084 3622 2631 
Q 3622 2519 3608 2391 
Q 3594 2263 3566 2113 
z
" transform="scale(0.015625)"/>
      <path id="DejaVuSans-Oblique-6f" d="M 1625 -91 
Q 1009 -91 651 289 
Q 294 669 294 1325 
Q 294 1706 417 2101 
Q 541 2497 738 2766 
Q 1047 3184 1428 3384 
Q 1809 3584 2291 3584 
Q 2888 3584 3255 3212 
Q 3622 2841 3622 2241 
Q 3622 1825 3500 1412 
Q 3378 1000 3181 728 
Q 2875 309 2494 109 
Q 2113 -91 1625 -91 
z
M 891 1344 
Q 891 869 1089 633 
Q 1288 397 1691 397 
Q 2269 397 2648 901 
Q 3028 1406 3028 2181 
Q 3028 2634 2825 2865 
Q 2622 3097 2228 3097 
Q 1903 3097 1650 2945 
Q 1397 2794 1197 2484 
Q 1050 2253 970 1956 
Q 891 1659 891 1344 
z
" transform="scale(0.015625)"/>
      <path id="DejaVuSans-Oblique-74" d="M 2706 3500 
L 2619 3053 
L 1472 3053 
L 1100 1153 
Q 1081 1047 1072 975 
Q 1063 903 1063 863 
Q 1063 663 1183 572 
Q 1303 481 1569 481 
L 2150 481 
L 2053 0 
L 1503 0 
Q 991 0 739 200 
Q 488 400 488 806 
Q 488 878 497 964 
Q 506 1050 525 1153 
L 897 3053 
L 409 3053 
L 500 3500 
L 978 3500 
L 1172 4494 
L 1747 4494 
L 1556 3500 
L 2706 3500 
z
" transform="scale(0.015625)"/>
      <path id="DejaVuSans-Oblique-73" d="M 3200 3397 
L 3091 2853 
Q 2863 2978 2609 3040 
Q 2356 3103 2088 3103 
Q 1634 3103 1373 2948 
Q 1113 2794 1113 2528 
Q 1113 2219 1719 2053 
Q 1766 2041 1788 2034 
L 1972 1978 
Q 2547 1819 2739 1644 
Q 2931 1469 2931 1166 
Q 2931 609 2489 259 
Q 2047 -91 1331 -91 
Q 1053 -91 747 -37 
Q 441 16 72 128 
L 184 722 
Q 500 559 806 475 
Q 1113 391 1394 391 
Q 1816 391 2080 572 
Q 2344 753 2344 1031 
Q 2344 1331 1650 1516 
L 1591 1531 
L 1394 1581 
Q 956 1697 753 1886 
Q 550 2075 550 2369 
Q 550 2928 970 3256 
Q 1391 3584 2113 3584 
Q 2397 3584 2667 3537 
Q 2938 3491 3200 3397 
z
" transform="scale(0.015625)"/>
      <path id="DejaVuSans-Oblique-70" d="M 3175 2156 
Q 3175 2616 2975 2859 
Q 2775 3103 2400 3103 
Q 2144 3103 1911 2972 
Q 1678 2841 1497 2591 
Q 1319 2344 1212 1994 
Q 1106 1644 1106 1300 
Q 1106 863 1306 627 
Q 1506 391 1875 391 
Q 2147 391 2380 519 
Q 2613 647 2778 891 
Q 2956 1147 3065 1494 
Q 3175 1841 3175 2156 
z
M 1394 2969 
Q 1625 3272 1939 3428 
Q 2253 3584 2638 3584 
Q 3175 3584 3472 3232 
Q 3769 2881 3769 2247 
Q 3769 1728 3584 1258 
Q 3400 788 3053 416 
Q 2822 169 2531 39 
Q 2241 -91 1919 -91 
Q 1547 -91 1294 64 
Q 1041 219 916 525 
L 556 -1331 
L -19 -1331 
L 922 3500 
L 1497 3500 
L 1394 2969 
z
" transform="scale(0.015625)"/>
      <path id="DejaVuSans-Oblique-65" d="M 3078 2063 
Q 3088 2113 3092 2166 
Q 3097 2219 3097 2272 
Q 3097 2653 2873 2875 
Q 2650 3097 2266 3097 
Q 1838 3097 1509 2826 
Q 1181 2556 1013 2059 
L 3078 2063 
z
M 3578 1613 
L 903 1613 
Q 884 1494 878 1425 
Q 872 1356 872 1306 
Q 872 872 1139 634 
Q 1406 397 1894 397 
Q 2269 397 2603 481 
Q 2938 566 3225 728 
L 3116 159 
Q 2806 34 2476 -28 
Q 2147 -91 1806 -91 
Q 1078 -91 686 257 
Q 294 606 294 1247 
Q 294 1794 489 2264 
Q 684 2734 1063 3103 
Q 1306 3334 1642 3459 
Q 1978 3584 2356 3584 
Q 2950 3584 3301 3228 
Q 3653 2872 3653 2272 
Q 3653 2128 3634 1964 
Q 3616 1800 3578 1613 
z
" transform="scale(0.015625)"/>
      <path id="DejaVuSans-Oblique-63" d="M 3431 3366 
L 3316 2797 
Q 3109 2947 2876 3022 
Q 2644 3097 2394 3097 
Q 2119 3097 1870 3000 
Q 1622 2903 1453 2725 
Q 1184 2453 1037 2087 
Q 891 1722 891 1331 
Q 891 859 1127 628 
Q 1363 397 1844 397 
Q 2081 397 2348 469 
Q 2616 541 2906 684 
L 2797 116 
Q 2547 13 2283 -39 
Q 2019 -91 1741 -91 
Q 1044 -91 669 257 
Q 294 606 294 1253 
Q 294 1797 489 2255 
Q 684 2713 1069 3078 
Q 1331 3328 1684 3456 
Q 2038 3584 2456 3584 
Q 2700 3584 2940 3529 
Q 3181 3475 3431 3366 
z
" transform="scale(0.015625)"/>
      <path id="DejaVuSans-Oblique-69" d="M 1172 4863 
L 1747 4863 
L 1606 4134 
L 1031 4134 
L 1172 4863 
z
M 909 3500 
L 1484 3500 
L 800 0 
L 225 0 
L 909 3500 
z
" transform="scale(0.015625)"/>
      <path id="DejaVuSans-Oblique-66" d="M 3059 4863 
L 2969 4384 
L 2419 4384 
Q 2106 4384 1964 4261 
Q 1822 4138 1753 3809 
L 1691 3500 
L 2638 3500 
L 2553 3053 
L 1606 3053 
L 1013 0 
L 434 0 
L 1031 3053 
L 481 3053 
L 563 3500 
L 1113 3500 
L 1159 3744 
Q 1278 4363 1576 4613 
Q 1875 4863 2516 4863 
L 3059 4863 
z
" transform="scale(0.015625)"/>
      <path id="DejaVuSans-Oblique-64" d="M 2675 525 
Q 2444 222 2128 65 
Q 1813 -91 1428 -91 
Q 903 -91 598 267 
Q 294 625 294 1247 
Q 294 1766 478 2236 
Q 663 2706 1013 3078 
Q 1244 3325 1534 3454 
Q 1825 3584 2144 3584 
Q 2481 3584 2739 3421 
Q 2997 3259 3138 2956 
L 3513 4863 
L 4091 4863 
L 3144 0 
L 2566 0 
L 2675 525 
z
M 891 1350 
Q 891 897 1095 644 
Q 1300 391 1663 391 
Q 1931 391 2161 520 
Q 2391 650 2566 903 
Q 2750 1166 2856 1509 
Q 2963 1853 2963 2188 
Q 2963 2622 2758 2865 
Q 2553 3109 2194 3109 
Q 1922 3109 1687 2981 
Q 1453 2853 1288 2613 
Q 1106 2353 998 2009 
Q 891 1666 891 1350 
z
" transform="scale(0.015625)"/>
     </defs>
     <use xlink:href="#DejaVuSans-Oblique-48"/>
     <use xlink:href="#DejaVuSans-Oblique-53" transform="translate(75.195312 0)"/>
     <use xlink:href="#DejaVuSans-Oblique-41" transform="translate(138.671875 0)"/>
     <use xlink:href="#DejaVuSans-Oblique-3a" transform="translate(208.955078 0)"/>
     <use xlink:href="#DejaVuSans-Oblique-20" transform="translate(242.646484 0)"/>
     <use xlink:href="#DejaVuSans-Oblique-6e" transform="translate(274.433594 0)"/>
     <use xlink:href="#DejaVuSans-Oblique-6f" transform="translate(337.8125 0)"/>
     <use xlink:href="#DejaVuSans-Oblique-74" transform="translate(398.994141 0)"/>
     <use xlink:href="#DejaVuSans-Oblique-20" transform="translate(438.203125 0)"/>
     <use xlink:href="#DejaVuSans-Oblique-73" transform="translate(469.990234 0)"/>
     <use xlink:href="#DejaVuSans-Oblique-70" transform="translate(522.089844 0)"/>
     <use xlink:href="#DejaVuSans-Oblique-65" transform="translate(585.566406 0)"/>
     <use xlink:href="#DejaVuSans-Oblique-63" transform="translate(647.089844 0)"/>
     <use xlink:href="#DejaVuSans-Oblique-69" transform="translate(702.070312 0)"/>
     <use xlink:href="#DejaVuSans-Oblique-66" transform="translate(729.853516 0)"/>
     <use xlink:href="#DejaVuSans-Oblique-69" transform="translate(765.058594 0)"/>
     <use xlink:href="#DejaVuSans-Oblique-65" transform="translate(792.841797 0)"/>
     <use xlink:href="#DejaVuSans-Oblique-64" transform="translate(854.365234 0)"/>
    </g>
   </g>
   <g id="text_16">
    <!-- $8,832 net -->
    <g style="fill: #1d2330" transform="translate(643.050326 180.7485) scale(0.1 -0.1)">
     <use xlink:href="#DejaVuSans-Bold-24"/>
     <use xlink:href="#DejaVuSans-Bold-38" transform="translate(69.580078 0)"/>
     <use xlink:href="#DejaVuSans-Bold-2c" transform="translate(139.160156 0)"/>
     <use xlink:href="#DejaVuSans-Bold-38" transform="translate(177.148438 0)"/>
     <use xlink:href="#DejaVuSans-Bold-33" transform="translate(246.728516 0)"/>
     <use xlink:href="#DejaVuSans-Bold-32" transform="translate(316.308594 0)"/>
     <use xlink:href="#DejaVuSans-Bold-20" transform="translate(385.888672 0)"/>
     <use xlink:href="#DejaVuSans-Bold-6e" transform="translate(420.703125 0)"/>
     <use xlink:href="#DejaVuSans-Bold-65" transform="translate(491.894531 0)"/>
     <use xlink:href="#DejaVuSans-Bold-74" transform="translate(559.716797 0)"/>
    </g>
   </g>
   <g id="text_17">
    <!-- $6,632 -->
    <g style="fill: #ffffff" transform="translate(402.618591 180.334594) scale(0.085 -0.085)">
     <use xlink:href="#DejaVuSans-Bold-24"/>
     <use xlink:href="#DejaVuSans-Bold-36" transform="translate(69.580078 0)"/>
     <use xlink:href="#DejaVuSans-Bold-2c" transform="translate(139.160156 0)"/>
     <use xlink:href="#DejaVuSans-Bold-36" transform="translate(177.148438 0)"/>
     <use xlink:href="#DejaVuSans-Bold-33" transform="translate(246.728516 0)"/>
     <use xlink:href="#DejaVuSans-Bold-32" transform="translate(316.308594 0)"/>
    </g>
   </g>
   <g id="text_18">
    <!-- gap $2,200 -->
    <g style="fill: #1d2330" transform="translate(566.845196 180.165375) scale(0.08 -0.08)">
     <use xlink:href="#DejaVuSans-Bold-67"/>
     <use xlink:href="#DejaVuSans-Bold-61" transform="translate(71.582031 0)"/>
     <use xlink:href="#DejaVuSans-Bold-70" transform="translate(139.0625 0)"/>
     <use xlink:href="#DejaVuSans-Bold-20" transform="translate(210.644531 0)"/>
     <use xlink:href="#DejaVuSans-Bold-24" transform="translate(245.458984 0)"/>
     <use xlink:href="#DejaVuSans-Bold-32" transform="translate(315.039062 0)"/>
     <use xlink:href="#DejaVuSans-Bold-2c" transform="translate(384.619141 0)"/>
     <use xlink:href="#DejaVuSans-Bold-32" transform="translate(422.607422 0)"/>
     <use xlink:href="#DejaVuSans-Bold-30" transform="translate(492.1875 0)"/>
     <use xlink:href="#DejaVuSans-Bold-30" transform="translate(561.767578 0)"/>
    </g>
   </g>
   <g id="text_19">
    <!-- HSA: +$1,200/yr -->
    <g style="fill: #5b6573" transform="translate(832.523055 180.472563) scale(0.09 -0.09)">
     <defs>
      <path id="DejaVuSans-Oblique-2b" d="M 2944 4013 
L 2944 2272 
L 4684 2272 
L 4684 1741 
L 2944 1741 
L 2944 0 
L 2419 0 
L 2419 1741 
L 678 1741 
L 678 2272 
L 2419 2272 
L 2419 4013 
L 2944 4013 
z
" transform="scale(0.015625)"/>
      <path id="DejaVuSans-Oblique-24" d="M 1875 453 
Q 2309 472 2562 673 
Q 2816 875 2816 1197 
Q 2816 1459 2656 1603 
Q 2497 1747 2138 1806 
L 1875 453 
z
M 2188 3688 
Q 1775 3644 1540 3444 
Q 1306 3244 1306 2931 
Q 1306 2713 1454 2589 
Q 1603 2466 1941 2406 
L 2188 3688 
z
M 3647 3944 
L 3541 3378 
Q 3272 3522 3011 3600 
Q 2750 3678 2503 3684 
L 2241 2350 
Q 2816 2259 3117 1990 
Q 3419 1722 3419 1300 
Q 3419 753 2972 395 
Q 2525 38 1784 0 
L 1600 -941 
L 1288 -941 
L 1472 0 
Q 1109 9 790 82 
Q 472 156 213 288 
L 319 863 
Q 606 669 918 562 
Q 1231 456 1563 444 
L 1838 1869 
Q 1247 1981 978 2214 
Q 709 2447 709 2841 
Q 709 3359 1139 3718 
Q 1569 4078 2272 4134 
L 2419 4863 
L 2731 4863 
L 2594 4134 
Q 2875 4125 3142 4076 
Q 3409 4028 3647 3944 
z
" transform="scale(0.015625)"/>
      <path id="DejaVuSans-Oblique-31" d="M 416 531 
L 1447 531 
L 2144 4122 
L 978 3897 
L 1088 4441 
L 2247 4666 
L 2881 4666 
L 2075 531 
L 3103 531 
L 3003 0 
L 313 0 
L 416 531 
z
" transform="scale(0.015625)"/>
      <path id="DejaVuSans-Oblique-2c" d="M 575 794 
L 1234 794 
L 1131 256 
L 422 -744 
L 19 -744 
L 469 256 
L 575 794 
z
" transform="scale(0.015625)"/>
      <path id="DejaVuSans-Oblique-32" d="M 2950 2253 
L 934 525 
L 3163 525 
L 3053 0 
L 25 0 
L 128 531 
L 2234 2338 
Q 2656 2703 2832 2979 
Q 3009 3256 3009 3547 
Q 3009 3850 2796 4040 
Q 2584 4231 2241 4231 
Q 1944 4231 1581 4125 
Q 1219 4019 806 3816 
L 922 4441 
Q 1309 4594 1662 4672 
Q 2016 4750 2316 4750 
Q 2928 4750 3301 4425 
Q 3675 4100 3675 3572 
Q 3675 3216 3497 2892 
Q 3319 2569 2950 2253 
z
" transform="scale(0.015625)"/>
      <path id="DejaVuSans-Oblique-30" d="M 2444 4750 
Q 3078 4750 3414 4328 
Q 3750 3906 3750 3116 
Q 3750 2516 3592 1923 
Q 3434 1331 3150 863 
Q 2859 394 2467 151 
Q 2075 -91 1600 -91 
Q 988 -91 653 334 
Q 319 759 319 1544 
Q 319 2138 480 2733 
Q 641 3328 928 3794 
Q 1216 4263 1602 4506 
Q 1988 4750 2444 4750 
z
M 2406 4250 
Q 2169 4250 1955 4123 
Q 1741 3997 1569 3750 
Q 1281 3338 1111 2720 
Q 941 2103 941 1453 
Q 941 938 1123 673 
Q 1306 409 1663 409 
Q 1913 409 2125 536 
Q 2338 663 2509 909 
Q 2794 1319 2961 1936 
Q 3128 2553 3128 3206 
Q 3128 3722 2945 3986 
Q 2763 4250 2406 4250 
z
" transform="scale(0.015625)"/>
      <path id="DejaVuSans-Oblique-2f" d="M 2175 4666 
L 2731 4666 
L 84 -594 
L -469 -594 
L 2175 4666 
z
" transform="scale(0.015625)"/>
      <path id="DejaVuSans-Oblique-79" d="M 1588 -325 
Q 1188 -997 936 -1164 
Q 684 -1331 294 -1331 
L -159 -1331 
L -63 -850 
L 269 -850 
Q 509 -850 678 -719 
Q 847 -588 1056 -206 
L 1234 128 
L 459 3500 
L 1069 3500 
L 1650 819 
L 3256 3500 
L 3859 3500 
L 1588 -325 
z
" transform="scale(0.015625)"/>
      <path id="DejaVuSans-Oblique-72" d="M 2853 2969 
Q 2766 3016 2653 3041 
Q 2541 3066 2413 3066 
Q 1953 3066 1609 2717 
Q 1266 2369 1153 1784 
L 800 0 
L 225 0 
L 909 3500 
L 1484 3500 
L 1375 2956 
Q 1603 3259 1920 3421 
Q 2238 3584 2597 3584 
Q 2691 3584 2781 3573 
Q 2872 3563 2963 3538 
L 2853 2969 
z
" transform="scale(0.015625)"/>
     </defs>
     <use xlink:href="#DejaVuSans-Oblique-48"/>
     <use xlink:href="#DejaVuSans-Oblique-53" transform="translate(75.195312 0)"/>
     <use xlink:href="#DejaVuSans-Oblique-41" transform="translate(138.671875 0)"/>
     <use xlink:href="#DejaVuSans-Oblique-3a" transform="translate(208.955078 0)"/>
     <use xlink:href="#DejaVuSans-Oblique-20" transform="translate(242.646484 0)"/>
     <use xlink:href="#DejaVuSans-Oblique-2b" transform="translate(274.433594 0)"/>
     <use xlink:href="#DejaVuSans-Oblique-24" transform="translate(358.222656 0)"/>
     <use xlink:href="#DejaVuSans-Oblique-31" transform="translate(421.845703 0)"/>
     <use xlink:href="#DejaVuSans-Oblique-2c" transform="translate(485.46875 0)"/>
     <use xlink:href="#DejaVuSans-Oblique-32" transform="translate(517.255859 0)"/>
     <use xlink:href="#DejaVuSans-Oblique-30" transform="translate(580.878906 0)"/>
     <use xlink:href="#DejaVuSans-Oblique-30" transform="translate(644.501953 0)"/>
     <use xlink:href="#DejaVuSans-Oblique-2f" transform="translate(708.125 0)"/>
     <use xlink:href="#DejaVuSans-Oblique-79" transform="translate(741.816406 0)"/>
     <use xlink:href="#DejaVuSans-Oblique-72" transform="translate(800.996094 0)"/>
    </g>
   </g>
   <g id="text_20">
    <!-- $4,222 net -->
    <g style="fill: #1d2330" transform="translate(462.366676 96.637983) scale(0.1 -0.1)">
     <defs>
      <path id="DejaVuSans-Bold-34" d="M 2356 3675 
L 1038 1722 
L 2356 1722 
L 2356 3675 
z
M 2156 4666 
L 3494 4666 
L 3494 1722 
L 4159 1722 
L 4159 850 
L 3494 850 
L 3494 0 
L 2356 0 
L 2356 850 
L 288 850 
L 288 1881 
L 2156 4666 
z
" transform="scale(0.015625)"/>
     </defs>
     <use xlink:href="#DejaVuSans-Bold-24"/>
     <use xlink:href="#DejaVuSans-Bold-34" transform="translate(69.580078 0)"/>
     <use xlink:href="#DejaVuSans-Bold-2c" transform="translate(139.160156 0)"/>
     <use xlink:href="#DejaVuSans-Bold-32" transform="translate(177.148438 0)"/>
     <use xlink:href="#DejaVuSans-Bold-32" transform="translate(246.728516 0)"/>
     <use xlink:href="#DejaVuSans-Bold-32" transform="translate(316.308594 0)"/>
     <use xlink:href="#DejaVuSans-Bold-20" transform="translate(385.888672 0)"/>
     <use xlink:href="#DejaVuSans-Bold-6e" transform="translate(420.703125 0)"/>
     <use xlink:href="#DejaVuSans-Bold-65" transform="translate(491.894531 0)"/>
     <use xlink:href="#DejaVuSans-Bold-74" transform="translate(559.716797 0)"/>
    </g>
   </g>
   <g id="text_21">
    <!-- $2,822 -->
    <g style="fill: #ffffff" transform="translate(327.954306 96.224077) scale(0.085 -0.085)">
     <use xlink:href="#DejaVuSans-Bold-24"/>
     <use xlink:href="#DejaVuSans-Bold-32" transform="translate(69.580078 0)"/>
     <use xlink:href="#DejaVuSans-Bold-2c" transform="translate(139.160156 0)"/>
     <use xlink:href="#DejaVuSans-Bold-38" transform="translate(177.148438 0)"/>
     <use xlink:href="#DejaVuSans-Bold-32" transform="translate(246.728516 0)"/>
     <use xlink:href="#DejaVuSans-Bold-32" transform="translate(316.308594 0)"/>
    </g>
   </g>
   <g id="text_22">
    <!-- gap $1,400 -->
    <g style="fill: #1d2330" transform="translate(401.839086 96.054858) scale(0.08 -0.08)">
     <use xlink:href="#DejaVuSans-Bold-67"/>
     <use xlink:href="#DejaVuSans-Bold-61" transform="translate(71.582031 0)"/>
     <use xlink:href="#DejaVuSans-Bold-70" transform="translate(139.0625 0)"/>
     <use xlink:href="#DejaVuSans-Bold-20" transform="translate(210.644531 0)"/>
     <use xlink:href="#DejaVuSans-Bold-24" transform="translate(245.458984 0)"/>
     <use xlink:href="#DejaVuSans-Bold-31" transform="translate(315.039062 0)"/>
     <use xlink:href="#DejaVuSans-Bold-2c" transform="translate(384.619141 0)"/>
     <use xlink:href="#DejaVuSans-Bold-34" transform="translate(422.607422 0)"/>
     <use xlink:href="#DejaVuSans-Bold-30" transform="translate(492.1875 0)"/>
     <use xlink:href="#DejaVuSans-Bold-30" transform="translate(561.767578 0)"/>
    </g>
   </g>
   <g id="text_23">
    <!-- HSA: +$2,200/yr -->
    <g style="fill: #5b6573" transform="translate(832.523055 96.362046) scale(0.09 -0.09)">
     <use xlink:href="#DejaVuSans-Oblique-48"/>
     <use xlink:href="#DejaVuSans-Oblique-53" transform="translate(75.195312 0)"/>
     <use xlink:href="#DejaVuSans-Oblique-41" transform="translate(138.671875 0)"/>
     <use xlink:href="#DejaVuSans-Oblique-3a" transform="translate(208.955078 0)"/>
     <use xlink:href="#DejaVuSans-Oblique-20" transform="translate(242.646484 0)"/>
     <use xlink:href="#DejaVuSans-Oblique-2b" transform="translate(274.433594 0)"/>
     <use xlink:href="#DejaVuSans-Oblique-24" transform="translate(358.222656 0)"/>
     <use xlink:href="#DejaVuSans-Oblique-32" transform="translate(421.845703 0)"/>
     <use xlink:href="#DejaVuSans-Oblique-2c" transform="translate(485.46875 0)"/>
     <use xlink:href="#DejaVuSans-Oblique-32" transform="translate(517.255859 0)"/>
     <use xlink:href="#DejaVuSans-Oblique-30" transform="translate(580.878906 0)"/>
     <use xlink:href="#DejaVuSans-Oblique-30" transform="translate(644.501953 0)"/>
     <use xlink:href="#DejaVuSans-Oblique-2f" transform="translate(708.125 0)"/>
     <use xlink:href="#DejaVuSans-Oblique-79" transform="translate(741.816406 0)"/>
     <use xlink:href="#DejaVuSans-Oblique-72" transform="translate(800.996094 0)"/>
    </g>
   </g>
   <g id="text_24">
    <g id="patch_10">
     <path d="M 224.551638 269.438704 
L 239.889138 269.438704 
Q 242.389138 269.438704 242.389138 266.938704 
L 242.389138 257.260579 
Q 242.389138 254.760579 239.889138 254.760579 
L 224.551638 254.760579 
Q 222.051638 254.760579 222.051638 257.260579 
L 222.051638 266.938704 
Q 222.051638 269.438704 224.551638 269.438704 
z
" style="fill: #e5e8ee"/>
    </g>
    <!-- #3 -->
    <g style="fill: #5b6573" transform="translate(224.551638 264.859017) scale(0.1 -0.1)">
     <defs>
      <path id="DejaVuSans-Bold-23" d="M 2847 4594 
L 2547 3391 
L 3372 3391 
L 3675 4594 
L 4366 4594 
L 4063 3391 
L 4928 3391 
L 4928 2725 
L 3897 2725 
L 3681 1869 
L 4569 1869 
L 4569 1197 
L 3519 1197 
L 3219 0 
L 2528 0 
L 2828 1197 
L 2003 1197 
L 1703 0 
L 1006 0 
L 1306 1197 
L 434 1197 
L 434 1869 
L 1459 1869 
L 1678 2725 
L 794 2725 
L 794 3391 
L 1850 3391 
L 2150 4594 
L 2847 4594 
z
M 3200 2725 
L 2375 2725 
L 2156 1869 
L 2981 1869 
L 3200 2725 
z
" transform="scale(0.015625)"/>
     </defs>
     <use xlink:href="#DejaVuSans-Bold-23"/>
     <use xlink:href="#DejaVuSans-Bold-33" transform="translate(83.789062 0)"/>
    </g>
   </g>
   <g id="text_25">
    <g id="patch_11">
     <path d="M 224.551638 185.328188 
L 239.889138 185.328188 
Q 242.389138 185.328188 242.389138 182.828188 
L 242.389138 173.150063 
Q 242.389138 170.650063 239.889138 170.650063 
L 224.551638 170.650063 
Q 222.051638 170.650063 222.051638 173.150063 
L 222.051638 182.828188 
Q 222.051638 185.328188 224.551638 185.328188 
z
" style="fill: #e5e8ee"/>
    </g>
    <!-- #2 -->
    <g style="fill: #5b6573" transform="translate(224.551638 180.7485) scale(0.1 -0.1)">
     <use xlink:href="#DejaVuSans-Bold-23"/>
     <use xlink:href="#DejaVuSans-Bold-32" transform="translate(83.789062 0)"/>
    </g>
   </g>
   <g id="text_26">
    <g id="patch_12">
     <path d="M 224.551638 101.217671 
L 239.889138 101.217671 
Q 242.389138 101.217671 242.389138 98.717671 
L 242.389138 89.039546 
Q 242.389138 86.539546 239.889138 86.539546 
L 224.551638 86.539546 
Q 222.051638 86.539546 222.051638 89.039546 
L 222.051638 98.717671 
Q 222.051638 101.217671 224.551638 101.217671 
z
" style="fill: #15803d"/>
    </g>
    <!-- #1 -->
    <g style="fill: #ffffff" transform="translate(224.551638 96.637983) scale(0.1 -0.1)">
     <use xlink:href="#DejaVuSans-Bold-23"/>
     <use xlink:href="#DejaVuSans-Bold-31" transform="translate(83.789062 0)"/>
    </g>
   </g>
   <g id="text_27">
    <!-- HSA-Eligible Plans (QHPs) — ranked by Avg-year net cost -->
    <g style="fill: #1d2330" transform="translate(202.825 32.237813) scale(0.14 -0.14)">
     <defs>
      <path id="DejaVuSans-Bold-48" d="M 588 4666 
L 1791 4666 
L 1791 2888 
L 3566 2888 
L 3566 4666 
L 4769 4666 
L 4769 0 
L 3566 0 
L 3566 1978 
L 1791 1978 
L 1791 0 
L 588 0 
L 588 4666 
z
" transform="scale(0.015625)"/>
      <path id="DejaVuSans-Bold-53" d="M 3834 4519 
L 3834 3531 
Q 3450 3703 3084 3790 
Q 2719 3878 2394 3878 
Q 1963 3878 1756 3759 
Q 1550 3641 1550 3391 
Q 1550 3203 1689 3098 
Q 1828 2994 2194 2919 
L 2706 2816 
Q 3484 2659 3812 2340 
Q 4141 2022 4141 1434 
Q 4141 663 3683 286 
Q 3225 -91 2284 -91 
Q 1841 -91 1394 -6 
Q 947 78 500 244 
L 500 1259 
Q 947 1022 1364 901 
Q 1781 781 2169 781 
Q 2563 781 2772 912 
Q 2981 1044 2981 1288 
Q 2981 1506 2839 1625 
Q 2697 1744 2272 1838 
L 1806 1941 
Q 1106 2091 782 2419 
Q 459 2747 459 3303 
Q 459 4000 909 4375 
Q 1359 4750 2203 4750 
Q 2588 4750 2994 4692 
Q 3400 4634 3834 4519 
z
" transform="scale(0.015625)"/>
      <path id="DejaVuSans-Bold-41" d="M 3419 850 
L 1538 850 
L 1241 0 
L 31 0 
L 1759 4666 
L 3194 4666 
L 4922 0 
L 3713 0 
L 3419 850 
z
M 1838 1716 
L 3116 1716 
L 2478 3572 
L 1838 1716 
z
" transform="scale(0.015625)"/>
      <path id="DejaVuSans-Bold-2d" d="M 347 2297 
L 2309 2297 
L 2309 1388 
L 347 1388 
L 347 2297 
z
" transform="scale(0.015625)"/>
      <path id="DejaVuSans-Bold-45" d="M 588 4666 
L 3834 4666 
L 3834 3756 
L 1791 3756 
L 1791 2888 
L 3713 2888 
L 3713 1978 
L 1791 1978 
L 1791 909 
L 3903 909 
L 3903 0 
L 588 0 
L 588 4666 
z
" transform="scale(0.015625)"/>
      <path id="DejaVuSans-Bold-6c" d="M 538 4863 
L 1656 4863 
L 1656 0 
L 538 0 
L 538 4863 
z
" transform="scale(0.015625)"/>
      <path id="DejaVuSans-Bold-69" d="M 538 3500 
L 1656 3500 
L 1656 0 
L 538 0 
L 538 3500 
z
M 538 4863 
L 1656 4863 
L 1656 3950 
L 538 3950 
L 538 4863 
z
" transform="scale(0.015625)"/>
      <path id="DejaVuSans-Bold-62" d="M 2400 722 
Q 2759 722 2948 984 
Q 3138 1247 3138 1747 
Q 3138 2247 2948 2509 
Q 2759 2772 2400 2772 
Q 2041 2772 1848 2508 
Q 1656 2244 1656 1747 
Q 1656 1250 1848 986 
Q 2041 722 2400 722 
z
M 1656 2988 
Q 1888 3294 2169 3439 
Q 2450 3584 2816 3584 
Q 3463 3584 3878 3070 
Q 4294 2556 4294 1747 
Q 4294 938 3878 423 
Q 3463 -91 2816 -91 
Q 2450 -91 2169 54 
Q 1888 200 1656 506 
L 1656 0 
L 538 0 
L 538 4863 
L 1656 4863 
L 1656 2988 
z
" transform="scale(0.015625)"/>
      <path id="DejaVuSans-Bold-50" d="M 588 4666 
L 2584 4666 
Q 3475 4666 3951 4270 
Q 4428 3875 4428 3144 
Q 4428 2409 3951 2014 
Q 3475 1619 2584 1619 
L 1791 1619 
L 1791 0 
L 588 0 
L 588 4666 
z
M 1791 3794 
L 1791 2491 
L 2456 2491 
Q 2806 2491 2997 2661 
Q 3188 2831 3188 3144 
Q 3188 3456 2997 3625 
Q 2806 3794 2456 3794 
L 1791 3794 
z
" transform="scale(0.015625)"/>
      <path id="DejaVuSans-Bold-73" d="M 3272 3391 
L 3272 2541 
Q 2913 2691 2578 2766 
Q 2244 2841 1947 2841 
Q 1628 2841 1473 2761 
Q 1319 2681 1319 2516 
Q 1319 2381 1436 2309 
Q 1553 2238 1856 2203 
L 2053 2175 
Q 2913 2066 3209 1816 
Q 3506 1566 3506 1031 
Q 3506 472 3093 190 
Q 2681 -91 1863 -91 
Q 1516 -91 1145 -36 
Q 775 19 384 128 
L 384 978 
Q 719 816 1070 734 
Q 1422 653 1784 653 
Q 2113 653 2278 743 
Q 2444 834 2444 1013 
Q 2444 1163 2330 1236 
Q 2216 1309 1875 1350 
L 1678 1375 
Q 931 1469 631 1722 
Q 331 1975 331 2491 
Q 331 3047 712 3315 
Q 1094 3584 1881 3584 
Q 2191 3584 2531 3537 
Q 2872 3491 3272 3391 
z
" transform="scale(0.015625)"/>
      <path id="DejaVuSans-Bold-28" d="M 2413 -844 
L 1484 -844 
Q 1006 -72 778 623 
Q 550 1319 550 2003 
Q 550 2688 779 3389 
Q 1009 4091 1484 4856 
L 2413 4856 
Q 2013 4116 1813 3408 
Q 1613 2700 1613 2009 
Q 1613 1319 1811 609 
Q 2009 -100 2413 -844 
z
" transform="scale(0.015625)"/>
      <path id="DejaVuSans-Bold-51" d="M 2847 -84 
L 2753 -84 
Q 1600 -84 959 553 
Q 319 1191 319 2328 
Q 319 3463 958 4106 
Q 1597 4750 2719 4750 
Q 3853 4750 4486 4112 
Q 5119 3475 5119 2328 
Q 5119 1541 4783 972 
Q 4447 403 3816 116 
L 4756 -934 
L 3609 -934 
L 2847 -84 
z
M 2719 3878 
Q 2169 3878 1866 3472 
Q 1563 3066 1563 2328 
Q 1563 1578 1859 1179 
Q 2156 781 2719 781 
Q 3272 781 3575 1187 
Q 3878 1594 3878 2328 
Q 3878 3066 3575 3472 
Q 3272 3878 2719 3878 
z
" transform="scale(0.015625)"/>
      <path id="DejaVuSans-Bold-29" d="M 513 -844 
Q 913 -100 1113 609 
Q 1313 1319 1313 2009 
Q 1313 2700 1113 3408 
Q 913 4116 513 4856 
L 1441 4856 
Q 1916 4091 2145 3389 
Q 2375 2688 2375 2003 
Q 2375 1319 2147 623 
Q 1919 -72 1441 -844 
L 513 -844 
z
" transform="scale(0.015625)"/>
      <path id="DejaVuSans-Bold-2014" d="M 344 2156 
L 6056 2156 
L 6056 1350 
L 344 1350 
L 344 2156 
z
" transform="scale(0.015625)"/>
      <path id="DejaVuSans-Bold-72" d="M 3138 2547 
Q 2991 2616 2845 2648 
Q 2700 2681 2553 2681 
Q 2122 2681 1889 2404 
Q 1656 2128 1656 1613 
L 1656 0 
L 538 0 
L 538 3500 
L 1656 3500 
L 1656 2925 
Q 1872 3269 2151 3426 
Q 2431 3584 2822 3584 
Q 2878 3584 2943 3579 
Q 3009 3575 3134 3559 
L 3138 2547 
z
" transform="scale(0.015625)"/>
      <path id="DejaVuSans-Bold-6b" d="M 538 4863 
L 1656 4863 
L 1656 2216 
L 2944 3500 
L 4244 3500 
L 2534 1894 
L 4378 0 
L 3022 0 
L 1656 1459 
L 1656 0 
L 538 0 
L 538 4863 
z
" transform="scale(0.015625)"/>
      <path id="DejaVuSans-Bold-64" d="M 2919 2988 
L 2919 4863 
L 4044 4863 
L 4044 0 
L 2919 0 
L 2919 506 
Q 2688 197 2409 53 
Q 2131 -91 1766 -91 
Q 1119 -91 703 423 
Q 288 938 288 1747 
Q 288 2556 703 3070 
Q 1119 3584 1766 3584 
Q 2128 3584 2408 3439 
Q 2688 3294 2919 2988 
z
M 2181 722 
Q 2541 722 2730 984 
Q 2919 1247 2919 1747 
Q 2919 2247 2730 2509 
Q 2541 2772 2181 2772 
Q 1825 2772 1636 2509 
Q 1447 2247 1447 1747 
Q 1447 1247 1636 984 
Q 1825 722 2181 722 
z
" transform="scale(0.015625)"/>
      <path id="DejaVuSans-Bold-79" d="M 78 3500 
L 1197 3500 
L 2138 1125 
L 2938 3500 
L 4056 3500 
L 2584 -331 
Q 2363 -916 2067 -1148 
Q 1772 -1381 1288 -1381 
L 641 -1381 
L 641 -647 
L 991 -647 
Q 1275 -647 1404 -556 
Q 1534 -466 1606 -231 
L 1638 -134 
L 78 3500 
z
" transform="scale(0.015625)"/>
      <path id="DejaVuSans-Bold-76" d="M 97 3500 
L 1216 3500 
L 2088 1081 
L 2956 3500 
L 4078 3500 
L 2700 0 
L 1472 0 
L 97 3500 
z
" transform="scale(0.015625)"/>
      <path id="DejaVuSans-Bold-63" d="M 3366 3391 
L 3366 2478 
Q 3138 2634 2908 2709 
Q 2678 2784 2431 2784 
Q 1963 2784 1702 2511 
Q 1441 2238 1441 1747 
Q 1441 1256 1702 982 
Q 1963 709 2431 709 
Q 2694 709 2930 787 
Q 3166 866 3366 1019 
L 3366 103 
Q 3103 6 2833 -42 
Q 2563 -91 2291 -91 
Q 1344 -91 809 395 
Q 275 881 275 1747 
Q 275 2613 809 3098 
Q 1344 3584 2291 3584 
Q 2566 3584 2833 3536 
Q 3100 3488 3366 3391 
z
" transform="scale(0.015625)"/>
      <path id="DejaVuSans-Bold-6f" d="M 2203 2784 
Q 1831 2784 1636 2517 
Q 1441 2250 1441 1747 
Q 1441 1244 1636 976 
Q 1831 709 2203 709 
Q 2569 709 2762 976 
Q 2956 1244 2956 1747 
Q 2956 2250 2762 2517 
Q 2569 2784 2203 2784 
z
M 2203 3584 
Q 3106 3584 3614 3096 
Q 4122 2609 4122 1747 
Q 4122 884 3614 396 
Q 3106 -91 2203 -91 
Q 1297 -91 786 396 
Q 275 884 275 1747 
Q 275 2609 786 3096 
Q 1297 3584 2203 3584 
z
" transform="scale(0.015625)"/>
     </defs>
     <use xlink:href="#DejaVuSans-Bold-48"/>
     <use xlink:href="#DejaVuSans-Bold-53" transform="translate(83.691406 0)"/>
     <use xlink:href="#DejaVuSans-Bold-41" transform="translate(155.712891 0)"/>
     <use xlink:href="#DejaVuSans-Bold-2d" transform="translate(233.105469 0)"/>
     <use xlink:href="#DejaVuSans-Bold-45" transform="translate(274.609375 0)"/>
     <use xlink:href="#DejaVuSans-Bold-6c" transform="translate(342.919922 0)"/>
     <use xlink:href="#DejaVuSans-Bold-69" transform="translate(377.197266 0)"/>
     <use xlink:href="#DejaVuSans-Bold-67" transform="translate(411.474609 0)"/>
     <use xlink:href="#DejaVuSans-Bold-69" transform="translate(483.056641 0)"/>
     <use xlink:href="#DejaVuSans-Bold-62" transform="translate(517.333984 0)"/>
     <use xlink:href="#DejaVuSans-Bold-6c" transform="translate(588.916016 0)"/>
     <use xlink:href="#DejaVuSans-Bold-65" transform="translate(623.193359 0)"/>
     <use xlink:href="#DejaVuSans-Bold-20" transform="translate(691.015625 0)"/>
     <use xlink:href="#DejaVuSans-Bold-50" transform="translate(725.830078 0)"/>
     <use xlink:href="#DejaVuSans-Bold-6c" transform="translate(799.121094 0)"/>
     <use xlink:href="#DejaVuSans-Bold-61" transform="translate(833.398438 0)"/>
     <use xlink:href="#DejaVuSans-Bold-6e" transform="translate(900.878906 0)"/>
     <use xlink:href="#DejaVuSans-Bold-73" transform="translate(972.070312 0)"/>
     <use xlink:href="#DejaVuSans-Bold-20" transform="translate(1031.591797 0)"/>
     <use xlink:href="#DejaVuSans-Bold-28" transform="translate(1066.40625 0)"/>
     <use xlink:href="#DejaVuSans-Bold-51" transform="translate(1112.109375 0)"/>
     <use xlink:href="#DejaVuSans-Bold-48" transform="translate(1197.119141 0)"/>
     <use xlink:href="#DejaVuSans-Bold-50" transform="translate(1280.810547 0)"/>
     <use xlink:href="#DejaVuSans-Bold-73" transform="translate(1352.351562 0)"/>
     <use xlink:href="#DejaVuSans-Bold-29" transform="translate(1411.873047 0)"/>
     <use xlink:href="#DejaVuSans-Bold-20" transform="translate(1457.576172 0)"/>
     <use xlink:href="#DejaVuSans-Bold-2014" transform="translate(1492.390625 0)"/>
     <use xlink:href="#DejaVuSans-Bold-20" transform="translate(1592.390625 0)"/>
     <use xlink:href="#DejaVuSans-Bold-72" transform="translate(1627.205078 0)"/>
     <use xlink:href="#DejaVuSans-Bold-61" transform="translate(1676.521484 0)"/>
     <use xlink:href="#DejaVuSans-Bold-6e" transform="translate(1744.001953 0)"/>
     <use xlink:href="#DejaVuSans-Bold-6b" transform="translate(1815.193359 0)"/>
     <use xlink:href="#DejaVuSans-Bold-65" transform="translate(1879.072266 0)"/>
     <use xlink:href="#DejaVuSans-Bold-64" transform="translate(1946.894531 0)"/>
     <use xlink:href="#DejaVuSans-Bold-20" transform="translate(2018.476562 0)"/>
     <use xlink:href="#DejaVuSans-Bold-62" transform="translate(2053.291016 0)"/>
     <use xlink:href="#DejaVuSans-Bold-79" transform="translate(2124.873047 0)"/>
     <use xlink:href="#DejaVuSans-Bold-20" transform="translate(2190.058594 0)"/>
     <use xlink:href="#DejaVuSans-Bold-41" transform="translate(2224.873047 0)"/>
     <use xlink:href="#DejaVuSans-Bold-76" transform="translate(2298.640625 0)"/>
     <use xlink:href="#DejaVuSans-Bold-67" transform="translate(2363.826172 0)"/>
     <use xlink:href="#DejaVuSans-Bold-2d" transform="translate(2435.408203 0)"/>
     <use xlink:href="#DejaVuSans-Bold-79" transform="translate(2476.912109 0)"/>
     <use xlink:href="#DejaVuSans-Bold-65" transform="translate(2542.097656 0)"/>
     <use xlink:href="#DejaVuSans-Bold-61" transform="translate(2609.919922 0)"/>
     <use xlink:href="#DejaVuSans-Bold-72" transform="translate(2677.400391 0)"/>
     <use xlink:href="#DejaVuSans-Bold-20" transform="translate(2726.716797 0)"/>
     <use xlink:href="#DejaVuSans-Bold-6e" transform="translate(2761.53125 0)"/>
     <use xlink:href="#DejaVuSans-Bold-65" transform="translate(2832.722656 0)"/>
     <use xlink:href="#DejaVuSans-Bold-74" transform="translate(2900.544922 0)"/>
     <use xlink:href="#DejaVuSans-Bold-20" transform="translate(2948.347656 0)"/>
     <use xlink:href="#DejaVuSans-Bold-63" transform="translate(2983.162109 0)"/>
     <use xlink:href="#DejaVuSans-Bold-6f" transform="translate(3042.439453 0)"/>
     <use xlink:href="#DejaVuSans-Bold-73" transform="translate(3111.140625 0)"/>
     <use xlink:href="#DejaVuSans-Bold-74" transform="translate(3170.662109 0)"/>
    </g>
    <!-- FY 2026 · NoVA School Districts -->
    <g style="fill: #1d2330" transform="translate(202.825 48.024125) scale(0.14 -0.14)">
     <defs>
      <path id="DejaVuSans-Bold-46" d="M 588 4666 
L 3834 4666 
L 3834 3756 
L 1791 3756 
L 1791 2888 
L 3713 2888 
L 3713 1978 
L 1791 1978 
L 1791 0 
L 588 0 
L 588 4666 
z
" transform="scale(0.015625)"/>
      <path id="DejaVuSans-Bold-59" d="M -63 4666 
L 1253 4666 
L 2316 3003 
L 3378 4666 
L 4697 4666 
L 2919 1966 
L 2919 0 
L 1716 0 
L 1716 1966 
L -63 4666 
z
" transform="scale(0.015625)"/>
      <path id="DejaVuSans-Bold-b7" d="M 653 2828 
L 1778 2828 
L 1778 1619 
L 653 1619 
L 653 2828 
z
" transform="scale(0.015625)"/>
      <path id="DejaVuSans-Bold-4e" d="M 588 4666 
L 1931 4666 
L 3628 1466 
L 3628 4666 
L 4769 4666 
L 4769 0 
L 3425 0 
L 1728 3200 
L 1728 0 
L 588 0 
L 588 4666 
z
" transform="scale(0.015625)"/>
      <path id="DejaVuSans-Bold-56" d="M 31 4666 
L 1241 4666 
L 2478 1222 
L 3713 4666 
L 4922 4666 
L 3194 0 
L 1759 0 
L 31 4666 
z
" transform="scale(0.015625)"/>
      <path id="DejaVuSans-Bold-68" d="M 4056 2131 
L 4056 0 
L 2931 0 
L 2931 347 
L 2931 1625 
Q 2931 2084 2911 2256 
Q 2891 2428 2841 2509 
Q 2775 2619 2662 2680 
Q 2550 2741 2406 2741 
Q 2056 2741 1856 2470 
Q 1656 2200 1656 1722 
L 1656 0 
L 538 0 
L 538 4863 
L 1656 4863 
L 1656 2988 
Q 1909 3294 2193 3439 
Q 2478 3584 2822 3584 
Q 3428 3584 3742 3212 
Q 4056 2841 4056 2131 
z
" transform="scale(0.015625)"/>
      <path id="DejaVuSans-Bold-44" d="M 1791 3756 
L 1791 909 
L 2222 909 
Q 2959 909 3348 1275 
Q 3738 1641 3738 2338 
Q 3738 3031 3350 3393 
Q 2963 3756 2222 3756 
L 1791 3756 
z
M 588 4666 
L 1856 4666 
Q 2919 4666 3439 4514 
Q 3959 4363 4331 4000 
Q 4659 3684 4818 3271 
Q 4978 2859 4978 2338 
Q 4978 1809 4818 1395 
Q 4659 981 4331 666 
Q 3956 303 3431 151 
Q 2906 0 1856 0 
L 588 0 
L 588 4666 
z
" transform="scale(0.015625)"/>
     </defs>
     <use xlink:href="#DejaVuSans-Bold-46"/>
     <use xlink:href="#DejaVuSans-Bold-59" transform="translate(68.310547 0)"/>
     <use xlink:href="#DejaVuSans-Bold-20" transform="translate(140.722656 0)"/>
     <use xlink:href="#DejaVuSans-Bold-32" transform="translate(175.537109 0)"/>
     <use xlink:href="#DejaVuSans-Bold-30" transform="translate(245.117188 0)"/>
     <use xlink:href="#DejaVuSans-Bold-32" transform="translate(314.697266 0)"/>
     <use xlink:href="#DejaVuSans-Bold-36" transform="translate(384.277344 0)"/>
     <use xlink:href="#DejaVuSans-Bold-20" transform="translate(453.857422 0)"/>
     <use xlink:href="#DejaVuSans-Bold-b7" transform="translate(488.671875 0)"/>
     <use xlink:href="#DejaVuSans-Bold-20" transform="translate(526.660156 0)"/>
     <use xlink:href="#DejaVuSans-Bold-4e" transform="translate(561.474609 0)"/>
     <use xlink:href="#DejaVuSans-Bold-6f" transform="translate(645.166016 0)"/>
     <use xlink:href="#DejaVuSans-Bold-56" transform="translate(713.867188 0)"/>
     <use xlink:href="#DejaVuSans-Bold-41" transform="translate(784.509766 0)"/>
     <use xlink:href="#DejaVuSans-Bold-20" transform="translate(861.902344 0)"/>
     <use xlink:href="#DejaVuSans-Bold-53" transform="translate(896.716797 0)"/>
     <use xlink:href="#DejaVuSans-Bold-63" transform="translate(968.738281 0)"/>
     <use xlink:href="#DejaVuSans-Bold-68" transform="translate(1028.015625 0)"/>
     <use xlink:href="#DejaVuSans-Bold-6f" transform="translate(1099.207031 0)"/>
     <use xlink:href="#DejaVuSans-Bold-6f" transform="translate(1167.908203 0)"/>
     <use xlink:href="#DejaVuSans-Bold-6c" transform="translate(1236.609375 0)"/>
     <use xlink:href="#DejaVuSans-Bold-20" transform="translate(1270.886719 0)"/>
     <use xlink:href="#DejaVuSans-Bold-44" transform="translate(1305.701172 0)"/>
     <use xlink:href="#DejaVuSans-Bold-69" transform="translate(1388.708984 0)"/>
     <use xlink:href="#DejaVuSans-Bold-73" transform="translate(1422.986328 0)"/>
     <use xlink:href="#DejaVuSans-Bold-74" transform="translate(1482.507812 0)"/>
     <use xlink:href="#DejaVuSans-Bold-72" transform="translate(1530.310547 0)"/>
     <use xlink:href="#DejaVuSans-Bold-69" transform="translate(1579.626953 0)"/>
     <use xlink:href="#DejaVuSans-Bold-63" transform="translate(1613.904297 0)"/>
     <use xlink:href="#DejaVuSans-Bold-74" transform="translate(1673.181641 0)"/>
     <use xlink:href="#DejaVuSans-Bold-73" transform="translate(1720.984375 0)"/>
    </g>
   </g>
   <g id="legend_1">
    <g id="patch_13">
     <path d="M 687.570781 272.772094 
L 705.570781 272.772094 
L 705.570781 266.472094 
L 687.570781 266.472094 
z
" style="fill: #6b21a8; opacity: 0.9; stroke: #ffffff; stroke-width: 0.5; stroke-linejoin: miter"/>
    </g>
    <g id="text_28">
     <!-- Premium -->
     <g transform="translate(712.770781 272.772094) scale(0.09 -0.09)">
      <use xlink:href="#DejaVuSans-50"/>
      <use xlink:href="#DejaVuSans-72" transform="translate(58.552734 0)"/>
      <use xlink:href="#DejaVuSans-65" transform="translate(97.416016 0)"/>
      <use xlink:href="#DejaVuSans-6d" transform="translate(158.939453 0)"/>
      <use xlink:href="#DejaVuSans-69" transform="translate(256.351562 0)"/>
      <use xlink:href="#DejaVuSans-75" transform="translate(284.134766 0)"/>
      <use xlink:href="#DejaVuSans-6d" transform="translate(347.513672 0)"/>
     </g>
    </g>
    <g id="patch_14">
     <path d="M 687.570781 285.982406 
L 705.570781 285.982406 
L 705.570781 279.682406 
L 687.570781 279.682406 
z
" style="fill: #6b21a8; opacity: 0.45; stroke: #ffffff; stroke-width: 0.5; stroke-linejoin: miter"/>
    </g>
    <g id="text_29">
     <!-- + Deductible Gap (deductible − employer HSA) -->
     <g transform="translate(712.770781 285.982406) scale(0.09 -0.09)">
      <defs>
       <path id="DejaVuSans-2b" d="M 2944 4013 
L 2944 2272 
L 4684 2272 
L 4684 1741 
L 2944 1741 
L 2944 0 
L 2419 0 
L 2419 1741 
L 678 1741 
L 678 2272 
L 2419 2272 
L 2419 4013 
L 2944 4013 
z
" transform="scale(0.015625)"/>
       <path id="DejaVuSans-44" d="M 1259 4147 
L 1259 519 
L 2022 519 
Q 2988 519 3436 956 
Q 3884 1394 3884 2338 
Q 3884 3275 3436 3711 
Q 2988 4147 2022 4147 
L 1259 4147 
z
M 628 4666 
L 1925 4666 
Q 3281 4666 3915 4102 
Q 4550 3538 4550 2338 
Q 4550 1131 3912 565 
Q 3275 0 1925 0 
L 628 0 
L 628 4666 
z
" transform="scale(0.015625)"/>
       <path id="DejaVuSans-47" d="M 3809 666 
L 3809 1919 
L 2778 1919 
L 2778 2438 
L 4434 2438 
L 4434 434 
Q 4069 175 3628 42 
Q 3188 -91 2688 -91 
Q 1594 -91 976 548 
Q 359 1188 359 2328 
Q 359 3472 976 4111 
Q 1594 4750 2688 4750 
Q 3144 4750 3555 4637 
Q 3966 4525 4313 4306 
L 4313 3634 
Q 3963 3931 3569 4081 
Q 3175 4231 2741 4231 
Q 1884 4231 1454 3753 
Q 1025 3275 1025 2328 
Q 1025 1384 1454 906 
Q 1884 428 2741 428 
Q 3075 428 3337 486 
Q 3600 544 3809 666 
z
" transform="scale(0.015625)"/>
       <path id="DejaVuSans-2212" d="M 678 2272 
L 4684 2272 
L 4684 1741 
L 678 1741 
L 678 2272 
z
" transform="scale(0.015625)"/>
      </defs>
      <use xlink:href="#DejaVuSans-2b"/>
      <use xlink:href="#DejaVuSans-20" transform="translate(83.789062 0)"/>
      <use xlink:href="#DejaVuSans-44" transform="translate(115.576172 0)"/>
      <use xlink:href="#DejaVuSans-65" transform="translate(192.578125 0)"/>
      <use xlink:href="#DejaVuSans-64" transform="translate(254.101562 0)"/>
      <use xlink:href="#DejaVuSans-75" transform="translate(317.578125 0)"/>
      <use xlink:href="#DejaVuSans-63" transform="translate(380.957031 0)"/>
      <use xlink:href="#DejaVuSans-74" transform="translate(435.9375 0)"/>
      <use xlink:href="#DejaVuSans-69" transform="translate(475.146484 0)"/>
      <use xlink:href="#DejaVuSans-62" transform="translate(502.929688 0)"/>
      <use xlink:href="#DejaVuSans-6c" transform="translate(566.40625 0)"/>
      <use xlink:href="#DejaVuSans-65" transform="translate(594.189453 0)"/>
      <use xlink:href="#DejaVuSans-20" transform="translate(655.712891 0)"/>
      <use xlink:href="#DejaVuSans-47" transform="translate(687.5 0)"/>
      <use xlink:href="#DejaVuSans-61" transform="translate(764.990234 0)"/>
      <use xlink:href="#DejaVuSans-70" transform="translate(826.269531 0)"/>
      <use xlink:href="#DejaVuSans-20" transform="translate(889.746094 0)"/>
      <use xlink:href="#DejaVuSans-28" transform="translate(921.533203 0)"/>
      <use xlink:href="#DejaVuSans-64" transform="translate(960.546875 0)"/>
      <use xlink:href="#DejaVuSans-65" transform="translate(1024.023438 0)"/>
      <use xlink:href="#DejaVuSans-64" transform="translate(1085.546875 0)"/>
      <use xlink:href="#DejaVuSans-75" transform="translate(1149.023438 0)"/>
      <use xlink:href="#DejaVuSans-63" transform="translate(1212.402344 0)"/>
      <use xlink:href="#DejaVuSans-74" transform="translate(1267.382812 0)"/>
      <use xlink:href="#DejaVuSans-69" transform="translate(1306.591797 0)"/>
      <use xlink:href="#DejaVuSans-62" transform="translate(1334.375 0)"/>
      <use xlink:href="#DejaVuSans-6c" transform="translate(1397.851562 0)"/>
      <use xlink:href="#DejaVuSans-65" transform="translate(1425.634766 0)"/>
      <use xlink:href="#DejaVuSans-20" transform="translate(1487.158203 0)"/>
      <use xlink:href="#DejaVuSans-2212" transform="translate(1518.945312 0)"/>
      <use xlink:href="#DejaVuSans-20" transform="translate(1602.734375 0)"/>
      <use xlink:href="#DejaVuSans-65" transform="translate(1634.521484 0)"/>
      <use xlink:href="#DejaVuSans-6d" transform="translate(1696.044922 0)"/>
      <use xlink:href="#DejaVuSans-70" transform="translate(1793.457031 0)"/>
      <use xlink:href="#DejaVuSans-6c" transform="translate(1856.933594 0)"/>
      <use xlink:href="#DejaVuSans-6f" transform="translate(1884.716797 0)"/>
      <use xlink:href="#DejaVuSans-79" transform="translate(1945.898438 0)"/>
      <use xlink:href="#DejaVuSans-65" transform="translate(2005.078125 0)"/>
      <use xlink:href="#DejaVuSans-72" transform="translate(2066.601562 0)"/>
      <use xlink:href="#DejaVuSans-20" transform="translate(2107.714844 0)"/>
      <use xlink:href="#DejaVuSans-48" transform="translate(2139.501953 0)"/>
      <use xlink:href="#DejaVuSans-53" transform="translate(2214.697266 0)"/>
      <use xlink:href="#DejaVuSans-41" transform="translate(2280.048828 0)"/>
      <use xlink:href="#DejaVuSans-29" transform="translate(2348.457031 0)"/>
     </g>
    </g>
   </g>
  </g>
 </g>
 <defs>
  <clipPath id="p7e81f26f29">
   <rect x="202.825" y="60.024125" width="732.925" height="235.93"/>
  </clipPath>
 </defs>
</svg>
