<?xml version="1.0" encoding="utf-8" standalone="no"?>
<!DOCTYPE svg PUBLIC "-//W3C//DTD SVG 1.1//EN"
  "http://www.w3.org/Graphics/SVG/1.1/DTD/svg11.dtd">
<svg xmlns:xlink="http://www.w3.org/1999/xlink" width="957.310938pt" height="383.910375pt" viewBox="0 0 957.310938 383.910375" xmlns="http://www.w3.org/2000/svg" version="1.1">
 <metadata>
  <rdf:RDF xmlns:dc="http://purl.org/dc/elements/1.1/" xmlns:cc="http://creativecommons.org/ns#" xmlns:rdf="http://www.w3.org/1999/02/22-rdf-syntax-ns#">
   <cc:Work>
    <dc:type rdf:resource="http://purl.org/dc/dcmitype/StillImage"/>
    <dc:date>2026-05-10T01:31:00.200433</dc:date>
    <dc:format>image/svg+xml</dc:format>
    <dc:creator>
     <cc:Agent>
      <dc:title>Matplotlib v3.10.8, https://matplotlib.org/</dc:title>
     </cc:Agent>
    </dc:creator>
   </cc:Work>
  </rdf:RDF>
 </metadata>
 <defs>
  <style type="text/css">*{stroke-linejoin: round; stroke-linecap: butt}</style>
 </defs>
 <g id="figure_1">
  <g id="patch_1">
   <path d="M 0 383.910375 
L 957.310938 383.910375 
L 957.310938 0 
L 0 0 
z
" style="fill: #fafbfc"/>
  </g>
  <g id="axes_1">
   <g id="patch_2">
    <path d="M 217.523438 331.954125 
L 935.710938 331.954125 
L 935.710938 60.024125 
L 217.523438 60.024125 
z
" style="fill: #fafbfc"/>
   </g>
   <g id="matplotlib.axis_1">
    <g id="xtick_1">
     <g id="line2d_1">
      <path d="M 302.016085 331.954125 
L 302.016085 60.024125 
" clip-path="url(#p8ebf3d7d87)" style="fill: none; stroke: #d0d4dd; stroke-opacity: 0.25; stroke-width: 0.8; stroke-linecap: square"/>
     </g>
     <g id="line2d_2">
      <defs>
       <path id="m820778168d" d="M 0 0 
L 0 3.5 
" style="stroke: #000000; stroke-width: 0.8"/>
      </defs>
      <g>
       <use xlink:href="#m820778168d" x="302.016085" y="331.954125" style="stroke: #000000; stroke-width: 0.8"/>
      </g>
     </g>
     <g id="text_1">
      <!-- 0 -->
      <g transform="translate(298.834835 346.552562) scale(0.1 -0.1)">
       <defs>
        <path id="DejaVuSans-30" d="M 2034 4250 
Q 1547 4250 1301 3770 
Q 1056 3291 1056 2328 
Q 1056 1369 1301 889 
Q 1547 409 2034 409 
Q 2525 409 2770 889 
Q 3016 1369 3016 2328 
Q 3016 3291 2770 3770 
Q 2525 4250 2034 4250 
z
M 2034 4750 
Q 2819 4750 3233 4129 
Q 3647 3509 3647 2328 
Q 3647 1150 3233 529 
Q 2819 -91 2034 -91 
Q 1250 -91 836 529 
Q 422 1150 422 2328 
Q 422 3509 836 4129 
Q 1250 4750 2034 4750 
z
" transform="scale(0.015625)"/>
       </defs>
       <use xlink:href="#DejaVuSans-30"/>
      </g>
     </g>
    </g>
    <g id="xtick_2">
     <g id="line2d_3">
      <path d="M 398.030456 331.954125 
L 398.030456 60.024125 
" clip-path="url(#p8ebf3d7d87)" style="fill: none; stroke: #d0d4dd; stroke-opacity: 0.25; stroke-width: 0.8; stroke-linecap: square"/>
     </g>
     <g id="line2d_4">
      <g>
       <use xlink:href="#m820778168d" x="398.030456" y="331.954125" style="stroke: #000000; stroke-width: 0.8"/>
      </g>
     </g>
     <g id="text_2">
      <!-- 2500 -->
      <g transform="translate(385.305456 346.552562) scale(0.1 -0.1)">
       <defs>
        <path id="DejaVuSans-32" d="M 1228 531 
L 3431 531 
L 3431 0 
L 469 0 
L 469 531 
Q 828 903 1448 1529 
Q 2069 2156 2228 2338 
Q 2531 2678 2651 2914 
Q 2772 3150 2772 3378 
Q 2772 3750 2511 3984 
Q 2250 4219 1831 4219 
Q 1534 4219 1204 4116 
Q 875 4013 500 3803 
L 500 4441 
Q 881 4594 1212 4672 
Q 1544 4750 1819 4750 
Q 2544 4750 2975 4387 
Q 3406 4025 3406 3419 
Q 3406 3131 3298 2873 
Q 3191 2616 2906 2266 
Q 2828 2175 2409 1742 
Q 1991 1309 1228 531 
z
" transform="scale(0.015625)"/>
        <path id="DejaVuSans-35" d="M 691 4666 
L 3169 4666 
L 3169 4134 
L 1269 4134 
L 1269 2991 
Q 1406 3038 1543 3061 
Q 1681 3084 1819 3084 
Q 2600 3084 3056 2656 
Q 3513 2228 3513 1497 
Q 3513 744 3044 326 
Q 2575 -91 1722 -91 
Q 1428 -91 1123 -41 
Q 819 9 494 109 
L 494 744 
Q 775 591 1075 516 
Q 1375 441 1709 441 
Q 2250 441 2565 725 
Q 2881 1009 2881 1497 
Q 2881 1984 2565 2268 
Q 2250 2553 1709 2553 
Q 1456 2553 1204 2497 
Q 953 2441 691 2322 
L 691 4666 
z
" transform="scale(0.015625)"/>
       </defs>
       <use xlink:href="#DejaVuSans-32"/>
       <use xlink:href="#DejaVuSans-35" transform="translate(63.623047 0)"/>
       <use xlink:href="#DejaVuSans-30" transform="translate(127.246094 0)"/>
       <use xlink:href="#DejaVuSans-30" transform="translate(190.869141 0)"/>
      </g>
     </g>
    </g>
    <g id="xtick_3">
     <g id="line2d_5">
      <path d="M 494.044828 331.954125 
L 494.044828 60.024125 
" clip-path="url(#p8ebf3d7d87)" style="fill: none; stroke: #d0d4dd; stroke-opacity: 0.25; stroke-width: 0.8; stroke-linecap: square"/>
     </g>
     <g id="line2d_6">
      <g>
       <use xlink:href="#m820778168d" x="494.044828" y="331.954125" style="stroke: #000000; stroke-width: 0.8"/>
      </g>
     </g>
     <g id="text_3">
      <!-- 5000 -->
      <g transform="translate(481.319828 346.552562) scale(0.1 -0.1)">
       <use xlink:href="#DejaVuSans-35"/>
       <use xlink:href="#DejaVuSans-30" transform="translate(63.623047 0)"/>
       <use xlink:href="#DejaVuSans-30" transform="translate(127.246094 0)"/>
       <use xlink:href="#DejaVuSans-30" transform="translate(190.869141 0)"/>
      </g>
     </g>
    </g>
    <g id="xtick_4">
     <g id="line2d_7">
      <path d="M 590.0592 331.954125 
L 590.0592 60.024125 
" clip-path="url(#p8ebf3d7d87)" style="fill: none; stroke: #d0d4dd; stroke-opacity: 0.25; stroke-width: 0.8; stroke-linecap: square"/>
     </g>
     <g id="line2d_8">
      <g>
       <use xlink:href="#m820778168d" x="590.0592" y="331.954125" style="stroke: #000000; stroke-width: 0.8"/>
      </g>
     </g>
     <g id="text_4">
      <!-- 7500 -->
      <g transform="translate(577.3342 346.552562) scale(0.1 -0.1)">
       <defs>
        <path id="DejaVuSans-37" d="M 525 4666 
L 3525 4666 
L 3525 4397 
L 1831 0 
L 1172 0 
L 2766 4134 
L 525 4134 
L 525 4666 
z
" transform="scale(0.015625)"/>
       </defs>
       <use xlink:href="#DejaVuSans-37"/>
       <use xlink:href="#DejaVuSans-35" transform="translate(63.623047 0)"/>
       <use xlink:href="#DejaVuSans-30" transform="translate(127.246094 0)"/>
       <use xlink:href="#DejaVuSans-30" transform="translate(190.869141 0)"/>
      </g>
     </g>
    </g>
    <g id="xtick_5">
     <g id="line2d_9">
      <path d="M 686.073571 331.954125 
L 686.073571 60.024125 
" clip-path="url(#p8ebf3d7d87)" style="fill: none; stroke: #d0d4dd; stroke-opacity: 0.25; stroke-width: 0.8; stroke-linecap: square"/>
     </g>
     <g id="line2d_10">
      <g>
       <use xlink:href="#m820778168d" x="686.073571" y="331.954125" style="stroke: #000000; stroke-width: 0.8"/>
      </g>
     </g>
     <g id="text_5">
      <!-- 10000 -->
      <g transform="translate(670.167321 346.552562) scale(0.1 -0.1)">
       <defs>
        <path id="DejaVuSans-31" d="M 794 531 
L 1825 531 
L 1825 4091 
L 703 3866 
L 703 4441 
L 1819 4666 
L 2450 4666 
L 2450 531 
L 3481 531 
L 3481 0 
L 794 0 
L 794 531 
z
" transform="scale(0.015625)"/>
       </defs>
       <use xlink:href="#DejaVuSans-31"/>
       <use xlink:href="#DejaVuSans-30" transform="translate(63.623047 0)"/>
       <use xlink:href="#DejaVuSans-30" transform="translate(127.246094 0)"/>
       <use xlink:href="#DejaVuSans-30" transform="translate(190.869141 0)"/>
       <use xlink:href="#DejaVuSans-30" transform="translate(254.492188 0)"/>
      </g>
     </g>
    </g>
    <g id="xtick_6">
     <g id="line2d_11">
      <path d="M 782.087943 331.954125 
L 782.087943 60.024125 
" clip-path="url(#p8ebf3d7d87)" style="fill: none; stroke: #d0d4dd; stroke-opacity: 0.25; stroke-width: 0.8; stroke-linecap: square"/>
     </g>
     <g id="line2d_12">
      <g>
       <use xlink:href="#m820778168d" x="782.087943" y="331.954125" style="stroke: #000000; stroke-width: 0.8"/>
      </g>
     </g>
     <g id="text_6">
      <!-- 12500 -->
      <g transform="translate(766.181693 346.552562) scale(0.1 -0.1)">
       <use xlink:href="#DejaVuSans-31"/>
       <use xlink:href="#DejaVuSans-32" transform="translate(63.623047 0)"/>
       <use xlink:href="#DejaVuSans-35" transform="translate(127.246094 0)"/>
       <use xlink:href="#DejaVuSans-30" transform="translate(190.869141 0)"/>
       <use xlink:href="#DejaVuSans-30" transform="translate(254.492188 0)"/>
      </g>
     </g>
    </g>
    <g id="xtick_7">
     <g id="line2d_13">
      <path d="M 878.102315 331.954125 
L 878.102315 60.024125 
" clip-path="url(#p8ebf3d7d87)" style="fill: none; stroke: #d0d4dd; stroke-opacity: 0.25; stroke-width: 0.8; stroke-linecap: square"/>
     </g>
     <g id="line2d_14">
      <g>
       <use xlink:href="#m820778168d" x="878.102315" y="331.954125" style="stroke: #000000; stroke-width: 0.8"/>
      </g>
     </g>
     <g id="text_7">
      <!-- 15000 -->
      <g transform="translate(862.196065 346.552562) scale(0.1 -0.1)">
       <use xlink:href="#DejaVuSans-31"/>
       <use xlink:href="#DejaVuSans-35" transform="translate(63.623047 0)"/>
       <use xlink:href="#DejaVuSans-30" transform="translate(127.246094 0)"/>
       <use xlink:href="#DejaVuSans-30" transform="translate(190.869141 0)"/>
       <use xlink:href="#DejaVuSans-30" transform="translate(254.492188 0)"/>
      </g>
     </g>
    </g>
    <g id="text_8">
     <!-- Annual cost (employee portion, family coverage) — $ -->
     <g style="fill: #5b6573" transform="translate(442.873438 360.230687) scale(0.1 -0.1)">
      <defs>
       <path id="DejaVuSans-41" d="M 2188 4044 
L 1331 1722 
L 3047 1722 
L 2188 4044 
z
M 1831 4666 
L 2547 4666 
L 4325 0 
L 3669 0 
L 3244 1197 
L 1141 1197 
L 716 0 
L 50 0 
L 1831 4666 
z
" transform="scale(0.015625)"/>
       <path id="DejaVuSans-6e" d="M 3513 2113 
L 3513 0 
L 2938 0 
L 2938 2094 
Q 2938 2591 2744 2837 
Q 2550 3084 2163 3084 
Q 1697 3084 1428 2787 
Q 1159 2491 1159 1978 
L 1159 0 
L 581 0 
L 581 3500 
L 1159 3500 
L 1159 2956 
Q 1366 3272 1645 3428 
Q 1925 3584 2291 3584 
Q 2894 3584 3203 3211 
Q 3513 2838 3513 2113 
z
" transform="scale(0.015625)"/>
       <path id="DejaVuSans-75" d="M 544 1381 
L 544 3500 
L 1119 3500 
L 1119 1403 
Q 1119 906 1312 657 
Q 1506 409 1894 409 
Q 2359 409 2629 706 
Q 2900 1003 2900 1516 
L 2900 3500 
L 3475 3500 
L 3475 0 
L 2900 0 
L 2900 538 
Q 2691 219 2414 64 
Q 2138 -91 1772 -91 
Q 1169 -91 856 284 
Q 544 659 544 1381 
z
M 1991 3584 
L 1991 3584 
z
" transform="scale(0.015625)"/>
       <path id="DejaVuSans-61" d="M 2194 1759 
Q 1497 1759 1228 1600 
Q 959 1441 959 1056 
Q 959 750 1161 570 
Q 1363 391 1709 391 
Q 2188 391 2477 730 
Q 2766 1069 2766 1631 
L 2766 1759 
L 2194 1759 
z
M 3341 1997 
L 3341 0 
L 2766 0 
L 2766 531 
Q 2569 213 2275 61 
Q 1981 -91 1556 -91 
Q 1019 -91 701 211 
Q 384 513 384 1019 
Q 384 1609 779 1909 
Q 1175 2209 1959 2209 
L 2766 2209 
L 2766 2266 
Q 2766 2663 2505 2880 
Q 2244 3097 1772 3097 
Q 1472 3097 1187 3025 
Q 903 2953 641 2809 
L 641 3341 
Q 956 3463 1253 3523 
Q 1550 3584 1831 3584 
Q 2591 3584 2966 3190 
Q 3341 2797 3341 1997 
z
" transform="scale(0.015625)"/>
       <path id="DejaVuSans-6c" d="M 603 4863 
L 1178 4863 
L 1178 0 
L 603 0 
L 603 4863 
z
" transform="scale(0.015625)"/>
       <path id="DejaVuSans-20" transform="scale(0.015625)"/>
       <path id="DejaVuSans-63" d="M 3122 3366 
L 3122 2828 
Q 2878 2963 2633 3030 
Q 2388 3097 2138 3097 
Q 1578 3097 1268 2742 
Q 959 2388 959 1747 
Q 959 1106 1268 751 
Q 1578 397 2138 397 
Q 2388 397 2633 464 
Q 2878 531 3122 666 
L 3122 134 
Q 2881 22 2623 -34 
Q 2366 -91 2075 -91 
Q 1284 -91 818 406 
Q 353 903 353 1747 
Q 353 2603 823 3093 
Q 1294 3584 2113 3584 
Q 2378 3584 2631 3529 
Q 2884 3475 3122 3366 
z
" transform="scale(0.015625)"/>
       <path id="DejaVuSans-6f" d="M 1959 3097 
Q 1497 3097 1228 2736 
Q 959 2375 959 1747 
Q 959 1119 1226 758 
Q 1494 397 1959 397 
Q 2419 397 2687 759 
Q 2956 1122 2956 1747 
Q 2956 2369 2687 2733 
Q 2419 3097 1959 3097 
z
M 1959 3584 
Q 2709 3584 3137 3096 
Q 3566 2609 3566 1747 
Q 3566 888 3137 398 
Q 2709 -91 1959 -91 
Q 1206 -91 779 398 
Q 353 888 353 1747 
Q 353 2609 779 3096 
Q 1206 3584 1959 3584 
z
" transform="scale(0.015625)"/>
       <path id="DejaVuSans-73" d="M 2834 3397 
L 2834 2853 
Q 2591 2978 2328 3040 
Q 2066 3103 1784 3103 
Q 1356 3103 1142 2972 
Q 928 2841 928 2578 
Q 928 2378 1081 2264 
Q 1234 2150 1697 2047 
L 1894 2003 
Q 2506 1872 2764 1633 
Q 3022 1394 3022 966 
Q 3022 478 2636 193 
Q 2250 -91 1575 -91 
Q 1294 -91 989 -36 
Q 684 19 347 128 
L 347 722 
Q 666 556 975 473 
Q 1284 391 1588 391 
Q 1994 391 2212 530 
Q 2431 669 2431 922 
Q 2431 1156 2273 1281 
Q 2116 1406 1581 1522 
L 1381 1569 
Q 847 1681 609 1914 
Q 372 2147 372 2553 
Q 372 3047 722 3315 
Q 1072 3584 1716 3584 
Q 2034 3584 2315 3537 
Q 2597 3491 2834 3397 
z
" transform="scale(0.015625)"/>
       <path id="DejaVuSans-74" d="M 1172 4494 
L 1172 3500 
L 2356 3500 
L 2356 3053 
L 1172 3053 
L 1172 1153 
Q 1172 725 1289 603 
Q 1406 481 1766 481 
L 2356 481 
L 2356 0 
L 1766 0 
Q 1100 0 847 248 
Q 594 497 594 1153 
L 594 3053 
L 172 3053 
L 172 3500 
L 594 3500 
L 594 4494 
L 1172 4494 
z
" transform="scale(0.015625)"/>
       <path id="DejaVuSans-28" d="M 1984 4856 
Q 1566 4138 1362 3434 
Q 1159 2731 1159 2009 
Q 1159 1288 1364 580 
Q 1569 -128 1984 -844 
L 1484 -844 
Q 1016 -109 783 600 
Q 550 1309 550 2009 
Q 550 2706 781 3412 
Q 1013 4119 1484 4856 
L 1984 4856 
z
" transform="scale(0.015625)"/>
       <path id="DejaVuSans-65" d="M 3597 1894 
L 3597 1613 
L 953 1613 
Q 991 1019 1311 708 
Q 1631 397 2203 397 
Q 2534 397 2845 478 
Q 3156 559 3463 722 
L 3463 178 
Q 3153 47 2828 -22 
Q 2503 -91 2169 -91 
Q 1331 -91 842 396 
Q 353 884 353 1716 
Q 353 2575 817 3079 
Q 1281 3584 2069 3584 
Q 2775 3584 3186 3129 
Q 3597 2675 3597 1894 
z
M 3022 2063 
Q 3016 2534 2758 2815 
Q 2500 3097 2075 3097 
Q 1594 3097 1305 2825 
Q 1016 2553 972 2059 
L 3022 2063 
z
" transform="scale(0.015625)"/>
       <path id="DejaVuSans-6d" d="M 3328 2828 
Q 3544 3216 3844 3400 
Q 4144 3584 4550 3584 
Q 5097 3584 5394 3201 
Q 5691 2819 5691 2113 
L 5691 0 
L 5113 0 
L 5113 2094 
Q 5113 2597 4934 2840 
Q 4756 3084 4391 3084 
Q 3944 3084 3684 2787 
Q 3425 2491 3425 1978 
L 3425 0 
L 2847 0 
L 2847 2094 
Q 2847 2600 2669 2842 
Q 2491 3084 2119 3084 
Q 1678 3084 1418 2786 
Q 1159 2488 1159 1978 
L 1159 0 
L 581 0 
L 581 3500 
L 1159 3500 
L 1159 2956 
Q 1356 3278 1631 3431 
Q 1906 3584 2284 3584 
Q 2666 3584 2933 3390 
Q 3200 3197 3328 2828 
z
" transform="scale(0.015625)"/>
       <path id="DejaVuSans-70" d="M 1159 525 
L 1159 -1331 
L 581 -1331 
L 581 3500 
L 1159 3500 
L 1159 2969 
Q 1341 3281 1617 3432 
Q 1894 3584 2278 3584 
Q 2916 3584 3314 3078 
Q 3713 2572 3713 1747 
Q 3713 922 3314 415 
Q 2916 -91 2278 -91 
Q 1894 -91 1617 61 
Q 1341 213 1159 525 
z
M 3116 1747 
Q 3116 2381 2855 2742 
Q 2594 3103 2138 3103 
Q 1681 3103 1420 2742 
Q 1159 2381 1159 1747 
Q 1159 1113 1420 752 
Q 1681 391 2138 391 
Q 2594 391 2855 752 
Q 3116 1113 3116 1747 
z
" transform="scale(0.015625)"/>
       <path id="DejaVuSans-79" d="M 2059 -325 
Q 1816 -950 1584 -1140 
Q 1353 -1331 966 -1331 
L 506 -1331 
L 506 -850 
L 844 -850 
Q 1081 -850 1212 -737 
Q 1344 -625 1503 -206 
L 1606 56 
L 191 3500 
L 800 3500 
L 1894 763 
L 2988 3500 
L 3597 3500 
L 2059 -325 
z
" transform="scale(0.015625)"/>
       <path id="DejaVuSans-72" d="M 2631 2963 
Q 2534 3019 2420 3045 
Q 2306 3072 2169 3072 
Q 1681 3072 1420 2755 
Q 1159 2438 1159 1844 
L 1159 0 
L 581 0 
L 581 3500 
L 1159 3500 
L 1159 2956 
Q 1341 3275 1631 3429 
Q 1922 3584 2338 3584 
Q 2397 3584 2469 3576 
Q 2541 3569 2628 3553 
L 2631 2963 
z
" transform="scale(0.015625)"/>
       <path id="DejaVuSans-69" d="M 603 3500 
L 1178 3500 
L 1178 0 
L 603 0 
L 603 3500 
z
M 603 4863 
L 1178 4863 
L 1178 4134 
L 603 4134 
L 603 4863 
z
" transform="scale(0.015625)"/>
       <path id="DejaVuSans-2c" d="M 750 794 
L 1409 794 
L 1409 256 
L 897 -744 
L 494 -744 
L 750 256 
L 750 794 
z
" transform="scale(0.015625)"/>
       <path id="DejaVuSans-66" d="M 2375 4863 
L 2375 4384 
L 1825 4384 
Q 1516 4384 1395 4259 
Q 1275 4134 1275 3809 
L 1275 3500 
L 2222 3500 
L 2222 3053 
L 1275 3053 
L 1275 0 
L 697 0 
L 697 3053 
L 147 3053 
L 147 3500 
L 697 3500 
L 697 3744 
Q 697 4328 969 4595 
Q 1241 4863 1831 4863 
L 2375 4863 
z
" transform="scale(0.015625)"/>
       <path id="DejaVuSans-76" d="M 191 3500 
L 800 3500 
L 1894 563 
L 2988 3500 
L 3597 3500 
L 2284 0 
L 1503 0 
L 191 3500 
z
" transform="scale(0.015625)"/>
       <path id="DejaVuSans-67" d="M 2906 1791 
Q 2906 2416 2648 2759 
Q 2391 3103 1925 3103 
Q 1463 3103 1205 2759 
Q 947 2416 947 1791 
Q 947 1169 1205 825 
Q 1463 481 1925 481 
Q 2391 481 2648 825 
Q 2906 1169 2906 1791 
z
M 3481 434 
Q 3481 -459 3084 -895 
Q 2688 -1331 1869 -1331 
Q 1566 -1331 1297 -1286 
Q 1028 -1241 775 -1147 
L 775 -588 
Q 1028 -725 1275 -790 
Q 1522 -856 1778 -856 
Q 2344 -856 2625 -561 
Q 2906 -266 2906 331 
L 2906 616 
Q 2728 306 2450 153 
Q 2172 0 1784 0 
Q 1141 0 747 490 
Q 353 981 353 1791 
Q 353 2603 747 3093 
Q 1141 3584 1784 3584 
Q 2172 3584 2450 3431 
Q 2728 3278 2906 2969 
L 2906 3500 
L 3481 3500 
L 3481 434 
z
" transform="scale(0.015625)"/>
       <path id="DejaVuSans-29" d="M 513 4856 
L 1013 4856 
Q 1481 4119 1714 3412 
Q 1947 2706 1947 2009 
Q 1947 1309 1714 600 
Q 1481 -109 1013 -844 
L 513 -844 
Q 928 -128 1133 580 
Q 1338 1288 1338 2009 
Q 1338 2731 1133 3434 
Q 928 4138 513 4856 
z
" transform="scale(0.015625)"/>
       <path id="DejaVuSans-2014" d="M 313 1978 
L 6088 1978 
L 6088 1528 
L 313 1528 
L 313 1978 
z
" transform="scale(0.015625)"/>
       <path id="DejaVuSans-24" d="M 2163 -941 
L 1850 -941 
L 1847 0 
Q 1519 6 1191 76 
Q 863 147 531 288 
L 531 850 
Q 850 650 1176 548 
Q 1503 447 1850 444 
L 1850 1869 
Q 1159 1981 845 2250 
Q 531 2519 531 2988 
Q 531 3497 872 3790 
Q 1213 4084 1850 4128 
L 1850 4863 
L 2163 4863 
L 2163 4138 
Q 2453 4125 2725 4076 
Q 2997 4028 3256 3944 
L 3256 3397 
Q 2997 3528 2723 3600 
Q 2450 3672 2163 3684 
L 2163 2350 
Q 2872 2241 3206 1959 
Q 3541 1678 3541 1191 
Q 3541 663 3186 358 
Q 2831 53 2163 6 
L 2163 -941 
z
M 1850 2406 
L 1850 3688 
Q 1488 3647 1297 3481 
Q 1106 3316 1106 3041 
Q 1106 2772 1282 2622 
Q 1459 2472 1850 2406 
z
M 2163 1806 
L 2163 453 
Q 2559 506 2761 678 
Q 2963 850 2963 1131 
Q 2963 1406 2770 1568 
Q 2578 1731 2163 1806 
z
" transform="scale(0.015625)"/>
      </defs>
      <use xlink:href="#DejaVuSans-41"/>
      <use xlink:href="#DejaVuSans-6e" transform="translate(68.408203 0)"/>
      <use xlink:href="#DejaVuSans-6e" transform="translate(131.787109 0)"/>
      <use xlink:href="#DejaVuSans-75" transform="translate(195.166016 0)"/>
      <use xlink:href="#DejaVuSans-61" transform="translate(258.544922 0)"/>
      <use xlink:href="#DejaVuSans-6c" transform="translate(319.824219 0)"/>
      <use xlink:href="#DejaVuSans-20" transform="translate(347.607422 0)"/>
      <use xlink:href="#DejaVuSans-63" transform="translate(379.394531 0)"/>
      <use xlink:href="#DejaVuSans-6f" transform="translate(434.375 0)"/>
      <use xlink:href="#DejaVuSans-73" transform="translate(495.556641 0)"/>
      <use xlink:href="#DejaVuSans-74" transform="translate(547.65625 0)"/>
      <use xlink:href="#DejaVuSans-20" transform="translate(586.865234 0)"/>
      <use xlink:href="#DejaVuSans-28" transform="translate(618.652344 0)"/>
      <use xlink:href="#DejaVuSans-65" transform="translate(657.666016 0)"/>
      <use xlink:href="#DejaVuSans-6d" transform="translate(719.189453 0)"/>
      <use xlink:href="#DejaVuSans-70" transform="translate(816.601562 0)"/>
      <use xlink:href="#DejaVuSans-6c" transform="translate(880.078125 0)"/>
      <use xlink:href="#DejaVuSans-6f" transform="translate(907.861328 0)"/>
      <use xlink:href="#DejaVuSans-79" transform="translate(969.042969 0)"/>
      <use xlink:href="#DejaVuSans-65" transform="translate(1028.222656 0)"/>
      <use xlink:href="#DejaVuSans-65" transform="translate(1089.746094 0)"/>
      <use xlink:href="#DejaVuSans-20" transform="translate(1151.269531 0)"/>
      <use xlink:href="#DejaVuSans-70" transform="translate(1183.056641 0)"/>
      <use xlink:href="#DejaVuSans-6f" transform="translate(1246.533203 0)"/>
      <use xlink:href="#DejaVuSans-72" transform="translate(1307.714844 0)"/>
      <use xlink:href="#DejaVuSans-74" transform="translate(1348.828125 0)"/>
      <use xlink:href="#DejaVuSans-69" transform="translate(1388.037109 0)"/>
      <use xlink:href="#DejaVuSans-6f" transform="translate(1415.820312 0)"/>
      <use xlink:href="#DejaVuSans-6e" transform="translate(1477.001953 0)"/>
      <use xlink:href="#DejaVuSans-2c" transform="translate(1540.380859 0)"/>
      <use xlink:href="#DejaVuSans-20" transform="translate(1572.167969 0)"/>
      <use xlink:href="#DejaVuSans-66" transform="translate(1603.955078 0)"/>
      <use xlink:href="#DejaVuSans-61" transform="translate(1639.160156 0)"/>
      <use xlink:href="#DejaVuSans-6d" transform="translate(1700.439453 0)"/>
      <use xlink:href="#DejaVuSans-69" transform="translate(1797.851562 0)"/>
      <use xlink:href="#DejaVuSans-6c" transform="translate(1825.634766 0)"/>
      <use xlink:href="#DejaVuSans-79" transform="translate(1853.417969 0)"/>
      <use xlink:href="#DejaVuSans-20" transform="translate(1912.597656 0)"/>
      <use xlink:href="#DejaVuSans-63" transform="translate(1944.384766 0)"/>
      <use xlink:href="#DejaVuSans-6f" transform="translate(1999.365234 0)"/>
      <use xlink:href="#DejaVuSans-76" transform="translate(2060.546875 0)"/>
      <use xlink:href="#DejaVuSans-65" transform="translate(2119.726562 0)"/>
      <use xlink:href="#DejaVuSans-72" transform="translate(2181.25 0)"/>
      <use xlink:href="#DejaVuSans-61" transform="translate(2222.363281 0)"/>
      <use xlink:href="#DejaVuSans-67" transform="translate(2283.642578 0)"/>
      <use xlink:href="#DejaVuSans-65" transform="translate(2347.119141 0)"/>
      <use xlink:href="#DejaVuSans-29" transform="translate(2408.642578 0)"/>
      <use xlink:href="#DejaVuSans-20" transform="translate(2447.65625 0)"/>
      <use xlink:href="#DejaVuSans-2014" transform="translate(2479.443359 0)"/>
      <use xlink:href="#DejaVuSans-20" transform="translate(2579.443359 0)"/>
      <use xlink:href="#DejaVuSans-24" transform="translate(2611.230469 0)"/>
     </g>
    </g>
   </g>
   <g id="matplotlib.axis_2">
    <g id="ytick_1">
     <g id="line2d_15"/>
     <g id="text_9">
      <!-- APS  ·  CareFirst HMO -->
      <g style="fill: #1d2330" transform="translate(107.520312 308.45168) scale(0.1 -0.1)">
       <defs>
        <path id="DejaVuSans-50" d="M 1259 4147 
L 1259 2394 
L 2053 2394 
Q 2494 2394 2734 2622 
Q 2975 2850 2975 3272 
Q 2975 3691 2734 3919 
Q 2494 4147 2053 4147 
L 1259 4147 
z
M 628 4666 
L 2053 4666 
Q 2838 4666 3239 4311 
Q 3641 3956 3641 3272 
Q 3641 2581 3239 2228 
Q 2838 1875 2053 1875 
L 1259 1875 
L 1259 0 
L 628 0 
L 628 4666 
z
" transform="scale(0.015625)"/>
        <path id="DejaVuSans-53" d="M 3425 4513 
L 3425 3897 
Q 3066 4069 2747 4153 
Q 2428 4238 2131 4238 
Q 1616 4238 1336 4038 
Q 1056 3838 1056 3469 
Q 1056 3159 1242 3001 
Q 1428 2844 1947 2747 
L 2328 2669 
Q 3034 2534 3370 2195 
Q 3706 1856 3706 1288 
Q 3706 609 3251 259 
Q 2797 -91 1919 -91 
Q 1588 -91 1214 -16 
Q 841 59 441 206 
L 441 856 
Q 825 641 1194 531 
Q 1563 422 1919 422 
Q 2459 422 2753 634 
Q 3047 847 3047 1241 
Q 3047 1584 2836 1778 
Q 2625 1972 2144 2069 
L 1759 2144 
Q 1053 2284 737 2584 
Q 422 2884 422 3419 
Q 422 4038 858 4394 
Q 1294 4750 2059 4750 
Q 2388 4750 2728 4690 
Q 3069 4631 3425 4513 
z
" transform="scale(0.015625)"/>
        <path id="DejaVuSans-b7" d="M 684 2619 
L 1344 2619 
L 1344 1825 
L 684 1825 
L 684 2619 
z
" transform="scale(0.015625)"/>
        <path id="DejaVuSans-43" d="M 4122 4306 
L 4122 3641 
Q 3803 3938 3442 4084 
Q 3081 4231 2675 4231 
Q 1875 4231 1450 3742 
Q 1025 3253 1025 2328 
Q 1025 1406 1450 917 
Q 1875 428 2675 428 
Q 3081 428 3442 575 
Q 3803 722 4122 1019 
L 4122 359 
Q 3791 134 3420 21 
Q 3050 -91 2638 -91 
Q 1578 -91 968 557 
Q 359 1206 359 2328 
Q 359 3453 968 4101 
Q 1578 4750 2638 4750 
Q 3056 4750 3426 4639 
Q 3797 4528 4122 4306 
z
" transform="scale(0.015625)"/>
        <path id="DejaVuSans-46" d="M 628 4666 
L 3309 4666 
L 3309 4134 
L 1259 4134 
L 1259 2759 
L 3109 2759 
L 3109 2228 
L 1259 2228 
L 1259 0 
L 628 0 
L 628 4666 
z
" transform="scale(0.015625)"/>
        <path id="DejaVuSans-48" d="M 628 4666 
L 1259 4666 
L 1259 2753 
L 3553 2753 
L 3553 4666 
L 4184 4666 
L 4184 0 
L 3553 0 
L 3553 2222 
L 1259 2222 
L 1259 0 
L 628 0 
L 628 4666 
z
" transform="scale(0.015625)"/>
        <path id="DejaVuSans-4d" d="M 628 4666 
L 1569 4666 
L 2759 1491 
L 3956 4666 
L 4897 4666 
L 4897 0 
L 4281 0 
L 4281 4097 
L 3078 897 
L 2444 897 
L 1241 4097 
L 1241 0 
L 628 0 
L 628 4666 
z
" transform="scale(0.015625)"/>
        <path id="DejaVuSans-4f" d="M 2522 4238 
Q 1834 4238 1429 3725 
Q 1025 3213 1025 2328 
Q 1025 1447 1429 934 
Q 1834 422 2522 422 
Q 3209 422 3611 934 
Q 4013 1447 4013 2328 
Q 4013 3213 3611 3725 
Q 3209 4238 2522 4238 
z
M 2522 4750 
Q 3503 4750 4090 4092 
Q 4678 3434 4678 2328 
Q 4678 1225 4090 567 
Q 3503 -91 2522 -91 
Q 1538 -91 948 565 
Q 359 1222 359 2328 
Q 359 3434 948 4092 
Q 1538 4750 2522 4750 
z
" transform="scale(0.015625)"/>
       </defs>
       <use xlink:href="#DejaVuSans-41"/>
       <use xlink:href="#DejaVuSans-50" transform="translate(68.408203 0)"/>
       <use xlink:href="#DejaVuSans-53" transform="translate(128.710938 0)"/>
       <use xlink:href="#DejaVuSans-20" transform="translate(192.1875 0)"/>
       <use xlink:href="#DejaVuSans-20" transform="translate(223.974609 0)"/>
       <use xlink:href="#DejaVuSans-b7" transform="translate(255.761719 0)"/>
       <use xlink:href="#DejaVuSans-20" transform="translate(287.548828 0)"/>
       <use xlink:href="#DejaVuSans-20" transform="translate(319.335938 0)"/>
       <use xlink:href="#DejaVuSans-43" transform="translate(351.123047 0)"/>
       <use xlink:href="#DejaVuSans-61" transform="translate(420.947266 0)"/>
       <use xlink:href="#DejaVuSans-72" transform="translate(482.226562 0)"/>
       <use xlink:href="#DejaVuSans-65" transform="translate(521.089844 0)"/>
       <use xlink:href="#DejaVuSans-46" transform="translate(582.613281 0)"/>
       <use xlink:href="#DejaVuSans-69" transform="translate(632.882812 0)"/>
       <use xlink:href="#DejaVuSans-72" transform="translate(660.666016 0)"/>
       <use xlink:href="#DejaVuSans-73" transform="translate(701.779297 0)"/>
       <use xlink:href="#DejaVuSans-74" transform="translate(753.878906 0)"/>
       <use xlink:href="#DejaVuSans-20" transform="translate(793.087891 0)"/>
       <use xlink:href="#DejaVuSans-48" transform="translate(824.875 0)"/>
       <use xlink:href="#DejaVuSans-4d" transform="translate(900.070312 0)"/>
       <use xlink:href="#DejaVuSans-4f" transform="translate(986.349609 0)"/>
      </g>
     </g>
    </g>
    <g id="ytick_2">
     <g id="line2d_16"/>
     <g id="text_10">
      <!-- PWCS  ·  Kaiser HMO -->
      <g style="fill: #1d2330" transform="translate(110.923437 254.120012) scale(0.1 -0.1)">
       <defs>
        <path id="DejaVuSans-57" d="M 213 4666 
L 850 4666 
L 1831 722 
L 2809 4666 
L 3519 4666 
L 4500 722 
L 5478 4666 
L 6119 4666 
L 4947 0 
L 4153 0 
L 3169 4050 
L 2175 0 
L 1381 0 
L 213 4666 
z
" transform="scale(0.015625)"/>
        <path id="DejaVuSans-4b" d="M 628 4666 
L 1259 4666 
L 1259 2694 
L 3353 4666 
L 4166 4666 
L 1850 2491 
L 4331 0 
L 3500 0 
L 1259 2247 
L 1259 0 
L 628 0 
L 628 4666 
z
" transform="scale(0.015625)"/>
       </defs>
       <use xlink:href="#DejaVuSans-50"/>
       <use xlink:href="#DejaVuSans-57" transform="translate(60.302734 0)"/>
       <use xlink:href="#DejaVuSans-43" transform="translate(159.179688 0)"/>
       <use xlink:href="#DejaVuSans-53" transform="translate(229.003906 0)"/>
       <use xlink:href="#DejaVuSans-20" transform="translate(292.480469 0)"/>
       <use xlink:href="#DejaVuSans-20" transform="translate(324.267578 0)"/>
       <use xlink:href="#DejaVuSans-b7" transform="translate(356.054688 0)"/>
       <use xlink:href="#DejaVuSans-20" transform="translate(387.841797 0)"/>
       <use xlink:href="#DejaVuSans-20" transform="translate(419.628906 0)"/>
       <use xlink:href="#DejaVuSans-4b" transform="translate(451.416016 0)"/>
       <use xlink:href="#DejaVuSans-61" transform="translate(515.242188 0)"/>
       <use xlink:href="#DejaVuSans-69" transform="translate(576.521484 0)"/>
       <use xlink:href="#DejaVuSans-73" transform="translate(604.304688 0)"/>
       <use xlink:href="#DejaVuSans-65" transform="translate(656.404297 0)"/>
       <use xlink:href="#DejaVuSans-72" transform="translate(717.927734 0)"/>
       <use xlink:href="#DejaVuSans-20" transform="translate(759.041016 0)"/>
       <use xlink:href="#DejaVuSans-48" transform="translate(790.828125 0)"/>
       <use xlink:href="#DejaVuSans-4d" transform="translate(866.023438 0)"/>
       <use xlink:href="#DejaVuSans-4f" transform="translate(952.302734 0)"/>
      </g>
     </g>
    </g>
    <g id="ytick_3">
     <g id="line2d_17"/>
     <g id="text_11">
      <!-- FCCPS  ·  Kaiser HMO (dental bundled) -->
      <g style="fill: #1d2330" transform="translate(21.6 199.788344) scale(0.1 -0.1)">
       <defs>
        <path id="DejaVuSans-64" d="M 2906 2969 
L 2906 4863 
L 3481 4863 
L 3481 0 
L 2906 0 
L 2906 525 
Q 2725 213 2448 61 
Q 2172 -91 1784 -91 
Q 1150 -91 751 415 
Q 353 922 353 1747 
Q 353 2572 751 3078 
Q 1150 3584 1784 3584 
Q 2172 3584 2448 3432 
Q 2725 3281 2906 2969 
z
M 947 1747 
Q 947 1113 1208 752 
Q 1469 391 1925 391 
Q 2381 391 2643 752 
Q 2906 1113 2906 1747 
Q 2906 2381 2643 2742 
Q 2381 3103 1925 3103 
Q 1469 3103 1208 2742 
Q 947 2381 947 1747 
z
" transform="scale(0.015625)"/>
        <path id="DejaVuSans-62" d="M 3116 1747 
Q 3116 2381 2855 2742 
Q 2594 3103 2138 3103 
Q 1681 3103 1420 2742 
Q 1159 2381 1159 1747 
Q 1159 1113 1420 752 
Q 1681 391 2138 391 
Q 2594 391 2855 752 
Q 3116 1113 3116 1747 
z
M 1159 2969 
Q 1341 3281 1617 3432 
Q 1894 3584 2278 3584 
Q 2916 3584 3314 3078 
Q 3713 2572 3713 1747 
Q 3713 922 3314 415 
Q 2916 -91 2278 -91 
Q 1894 -91 1617 61 
Q 1341 213 1159 525 
L 1159 0 
L 581 0 
L 581 4863 
L 1159 4863 
L 1159 2969 
z
" transform="scale(0.015625)"/>
       </defs>
       <use xlink:href="#DejaVuSans-46"/>
       <use xlink:href="#DejaVuSans-43" transform="translate(57.519531 0)"/>
       <use xlink:href="#DejaVuSans-43" transform="translate(127.34375 0)"/>
       <use xlink:href="#DejaVuSans-50" transform="translate(197.167969 0)"/>
       <use xlink:href="#DejaVuSans-53" transform="translate(257.470703 0)"/>
       <use xlink:href="#DejaVuSans-20" transform="translate(320.947266 0)"/>
       <use xlink:href="#DejaVuSans-20" transform="translate(352.734375 0)"/>
       <use xlink:href="#DejaVuSans-b7" transform="translate(384.521484 0)"/>
       <use xlink:href="#DejaVuSans-20" transform="translate(416.308594 0)"/>
       <use xlink:href="#DejaVuSans-20" transform="translate(448.095703 0)"/>
       <use xlink:href="#DejaVuSans-4b" transform="translate(479.882812 0)"/>
       <use xlink:href="#DejaVuSans-61" transform="translate(543.708984 0)"/>
       <use xlink:href="#DejaVuSans-69" transform="translate(604.988281 0)"/>
       <use xlink:href="#DejaVuSans-73" transform="translate(632.771484 0)"/>
       <use xlink:href="#DejaVuSans-65" transform="translate(684.871094 0)"/>
       <use xlink:href="#DejaVuSans-72" transform="translate(746.394531 0)"/>
       <use xlink:href="#DejaVuSans-20" transform="translate(787.507812 0)"/>
       <use xlink:href="#DejaVuSans-48" transform="translate(819.294922 0)"/>
       <use xlink:href="#DejaVuSans-4d" transform="translate(894.490234 0)"/>
       <use xlink:href="#DejaVuSans-4f" transform="translate(980.769531 0)"/>
       <use xlink:href="#DejaVuSans-20" transform="translate(1059.480469 0)"/>
       <use xlink:href="#DejaVuSans-28" transform="translate(1091.267578 0)"/>
       <use xlink:href="#DejaVuSans-64" transform="translate(1130.28125 0)"/>
       <use xlink:href="#DejaVuSans-65" transform="translate(1193.757812 0)"/>
       <use xlink:href="#DejaVuSans-6e" transform="translate(1255.28125 0)"/>
       <use xlink:href="#DejaVuSans-74" transform="translate(1318.660156 0)"/>
       <use xlink:href="#DejaVuSans-61" transform="translate(1357.869141 0)"/>
       <use xlink:href="#DejaVuSans-6c" transform="translate(1419.148438 0)"/>
       <use xlink:href="#DejaVuSans-20" transform="translate(1446.931641 0)"/>
       <use xlink:href="#DejaVuSans-62" transform="translate(1478.71875 0)"/>
       <use xlink:href="#DejaVuSans-75" transform="translate(1542.195312 0)"/>
       <use xlink:href="#DejaVuSans-6e" transform="translate(1605.574219 0)"/>
       <use xlink:href="#DejaVuSans-64" transform="translate(1668.953125 0)"/>
       <use xlink:href="#DejaVuSans-6c" transform="translate(1732.429688 0)"/>
       <use xlink:href="#DejaVuSans-65" transform="translate(1760.212891 0)"/>
       <use xlink:href="#DejaVuSans-64" transform="translate(1821.736328 0)"/>
       <use xlink:href="#DejaVuSans-29" transform="translate(1885.212891 0)"/>
      </g>
     </g>
    </g>
    <g id="ytick_4">
     <g id="line2d_18"/>
     <g id="text_12">
      <!-- ACPS  ·  Kaiser HMO -->
      <g style="fill: #1d2330" transform="translate(114.145312 145.456675) scale(0.1 -0.1)">
       <use xlink:href="#DejaVuSans-41"/>
       <use xlink:href="#DejaVuSans-43" transform="translate(66.658203 0)"/>
       <use xlink:href="#DejaVuSans-50" transform="translate(136.482422 0)"/>
       <use xlink:href="#DejaVuSans-53" transform="translate(196.785156 0)"/>
       <use xlink:href="#DejaVuSans-20" transform="translate(260.261719 0)"/>
       <use xlink:href="#DejaVuSans-20" transform="translate(292.048828 0)"/>
       <use xlink:href="#DejaVuSans-b7" transform="translate(323.835938 0)"/>
       <use xlink:href="#DejaVuSans-20" transform="translate(355.623047 0)"/>
       <use xlink:href="#DejaVuSans-20" transform="translate(387.410156 0)"/>
       <use xlink:href="#DejaVuSans-4b" transform="translate(419.197266 0)"/>
       <use xlink:href="#DejaVuSans-61" transform="translate(483.023438 0)"/>
       <use xlink:href="#DejaVuSans-69" transform="translate(544.302734 0)"/>
       <use xlink:href="#DejaVuSans-73" transform="translate(572.085938 0)"/>
       <use xlink:href="#DejaVuSans-65" transform="translate(624.185547 0)"/>
       <use xlink:href="#DejaVuSans-72" transform="translate(685.708984 0)"/>
       <use xlink:href="#DejaVuSans-20" transform="translate(726.822266 0)"/>
       <use xlink:href="#DejaVuSans-48" transform="translate(758.609375 0)"/>
       <use xlink:href="#DejaVuSans-4d" transform="translate(833.804688 0)"/>
       <use xlink:href="#DejaVuSans-4f" transform="translate(920.083984 0)"/>
      </g>
     </g>
    </g>
    <g id="ytick_5">
     <g id="line2d_19"/>
     <g id="text_13">
      <!-- FCPS  ·  Kaiser HMO -->
      <g style="fill: #1d2330" transform="translate(115.059375 91.125007) scale(0.1 -0.1)">
       <use xlink:href="#DejaVuSans-46"/>
       <use xlink:href="#DejaVuSans-43" transform="translate(57.519531 0)"/>
       <use xlink:href="#DejaVuSans-50" transform="translate(127.34375 0)"/>
       <use xlink:href="#DejaVuSans-53" transform="translate(187.646484 0)"/>
       <use xlink:href="#DejaVuSans-20" transform="translate(251.123047 0)"/>
       <use xlink:href="#DejaVuSans-20" transform="translate(282.910156 0)"/>
       <use xlink:href="#DejaVuSans-b7" transform="translate(314.697266 0)"/>
       <use xlink:href="#DejaVuSans-20" transform="translate(346.484375 0)"/>
       <use xlink:href="#DejaVuSans-20" transform="translate(378.271484 0)"/>
       <use xlink:href="#DejaVuSans-4b" transform="translate(410.058594 0)"/>
       <use xlink:href="#DejaVuSans-61" transform="translate(473.884766 0)"/>
       <use xlink:href="#DejaVuSans-69" transform="translate(535.164062 0)"/>
       <use xlink:href="#DejaVuSans-73" transform="translate(562.947266 0)"/>
       <use xlink:href="#DejaVuSans-65" transform="translate(615.046875 0)"/>
       <use xlink:href="#DejaVuSans-72" transform="translate(676.570312 0)"/>
       <use xlink:href="#DejaVuSans-20" transform="translate(717.683594 0)"/>
       <use xlink:href="#DejaVuSans-48" transform="translate(749.470703 0)"/>
       <use xlink:href="#DejaVuSans-4d" transform="translate(824.666016 0)"/>
       <use xlink:href="#DejaVuSans-4f" transform="translate(910.945312 0)"/>
      </g>
     </g>
    </g>
   </g>
   <g id="patch_3">
    <path d="M 302.016085 319.59367 
L 674.897498 319.59367 
L 674.897498 289.711253 
L 302.016085 289.711253 
z
" clip-path="url(#p8ebf3d7d87)" style="fill: #d97706; opacity: 0.9; stroke: #ffffff; stroke-width: 0.5; stroke-linejoin: miter"/>
   </g>
   <g id="patch_4">
    <path d="M 302.016085 265.262002 
L 607.380192 265.262002 
L 607.380192 235.379585 
L 302.016085 235.379585 
z
" clip-path="url(#p8ebf3d7d87)" style="fill: #1e3a8a; opacity: 0.9; stroke: #ffffff; stroke-width: 0.5; stroke-linejoin: miter"/>
   </g>
   <g id="patch_5">
    <path d="M 302.016085 210.930334 
L 569.089661 210.930334 
L 569.089661 181.047916 
L 302.016085 181.047916 
z
" clip-path="url(#p8ebf3d7d87)" style="fill: #6b21a8; opacity: 0.9; stroke: #ffffff; stroke-width: 0.5; stroke-linejoin: miter"/>
   </g>
   <g id="patch_6">
    <path d="M 302.016085 156.598665 
L 549.848381 156.598665 
L 549.848381 126.716248 
L 302.016085 126.716248 
z
" clip-path="url(#p8ebf3d7d87)" style="fill: #1a8cc4; opacity: 0.9; stroke: #ffffff; stroke-width: 0.5; stroke-linejoin: miter"/>
   </g>
   <g id="patch_7">
    <path d="M 302.016085 102.266997 
L 549.3107 102.266997 
L 549.3107 72.38458 
L 302.016085 72.38458 
z
" clip-path="url(#p8ebf3d7d87)" style="fill: #1f5e3a; opacity: 0.9; stroke: #ffffff; stroke-width: 0.5; stroke-linejoin: miter"/>
   </g>
   <g id="patch_8">
    <path d="M 217.523438 331.954125 
L 935.710938 331.954125 
" style="fill: none; stroke: #000000; stroke-width: 0.8; stroke-linejoin: miter; stroke-linecap: square"/>
   </g>
   <g id="text_14">
    <!-- $9,709 -->
    <g style="fill: #1d2330" transform="translate(682.578648 307.411837) scale(0.1 -0.1)">
     <defs>
      <path id="DejaVuSans-Bold-24" d="M 2484 -941 
L 1978 -941 
L 1975 0 
Q 1584 16 1218 87 
Q 853 159 506 288 
L 506 1106 
Q 866 922 1233 823 
Q 1600 725 1978 713 
L 1978 1684 
L 1875 1703 
Q 1128 1834 814 2115 
Q 500 2397 500 2925 
Q 500 3484 883 3798 
Q 1266 4113 1975 4141 
L 1978 4863 
L 2484 4863 
L 2484 4153 
Q 2797 4128 3109 4075 
Q 3422 4022 3738 3938 
L 3738 3144 
Q 3425 3275 3112 3348 
Q 2800 3422 2484 3438 
L 2484 2541 
L 2584 2522 
Q 3378 2397 3698 2105 
Q 4019 1813 4019 1241 
Q 4019 666 3637 358 
Q 3256 50 2484 6 
L 2484 -941 
z
M 1978 2613 
L 1978 3428 
Q 1756 3416 1623 3308 
Q 1491 3200 1491 3034 
Q 1491 2850 1612 2745 
Q 1734 2641 1978 2613 
z
M 2484 1594 
L 2484 725 
Q 2756 728 2892 831 
Q 3028 934 3028 1141 
Q 3028 1353 2903 1458 
Q 2778 1563 2484 1594 
z
" transform="scale(0.015625)"/>
      <path id="DejaVuSans-Bold-39" d="M 641 103 
L 641 966 
Q 928 831 1190 764 
Q 1453 697 1709 697 
Q 2247 697 2547 995 
Q 2847 1294 2900 1881 
Q 2688 1725 2447 1647 
Q 2206 1569 1925 1569 
Q 1209 1569 770 1986 
Q 331 2403 331 3084 
Q 331 3838 820 4291 
Q 1309 4744 2131 4744 
Q 3044 4744 3544 4128 
Q 4044 3513 4044 2388 
Q 4044 1231 3459 570 
Q 2875 -91 1856 -91 
Q 1528 -91 1228 -42 
Q 928 6 641 103 
z
M 2125 2350 
Q 2441 2350 2600 2554 
Q 2759 2759 2759 3169 
Q 2759 3575 2600 3781 
Q 2441 3988 2125 3988 
Q 1809 3988 1650 3781 
Q 1491 3575 1491 3169 
Q 1491 2759 1650 2554 
Q 1809 2350 2125 2350 
z
" transform="scale(0.015625)"/>
      <path id="DejaVuSans-Bold-2c" d="M 653 1209 
L 1778 1209 
L 1778 256 
L 1006 -909 
L 341 -909 
L 653 256 
L 653 1209 
z
" transform="scale(0.015625)"/>
      <path id="DejaVuSans-Bold-37" d="M 428 4666 
L 3944 4666 
L 3944 3988 
L 2125 0 
L 953 0 
L 2675 3781 
L 428 3781 
L 428 4666 
z
" transform="scale(0.015625)"/>
      <path id="DejaVuSans-Bold-30" d="M 2944 2338 
Q 2944 3213 2780 3570 
Q 2616 3928 2228 3928 
Q 1841 3928 1675 3570 
Q 1509 3213 1509 2338 
Q 1509 1453 1675 1090 
Q 1841 728 2228 728 
Q 2613 728 2778 1090 
Q 2944 1453 2944 2338 
z
M 4147 2328 
Q 4147 1169 3647 539 
Q 3147 -91 2228 -91 
Q 1306 -91 806 539 
Q 306 1169 306 2328 
Q 306 3491 806 4120 
Q 1306 4750 2228 4750 
Q 3147 4750 3647 4120 
Q 4147 3491 4147 2328 
z
" transform="scale(0.015625)"/>
     </defs>
     <use xlink:href="#DejaVuSans-Bold-24"/>
     <use xlink:href="#DejaVuSans-Bold-39" transform="translate(69.580078 0)"/>
     <use xlink:href="#DejaVuSans-Bold-2c" transform="translate(139.160156 0)"/>
     <use xlink:href="#DejaVuSans-Bold-37" transform="translate(177.148438 0)"/>
     <use xlink:href="#DejaVuSans-Bold-30" transform="translate(246.728516 0)"/>
     <use xlink:href="#DejaVuSans-Bold-39" transform="translate(316.308594 0)"/>
    </g>
   </g>
   <g id="text_15">
    <!-- $9,709 -->
    <g style="fill: #ffffff" transform="translate(472.057104 306.99793) scale(0.085 -0.085)">
     <use xlink:href="#DejaVuSans-Bold-24"/>
     <use xlink:href="#DejaVuSans-Bold-39" transform="translate(69.580078 0)"/>
     <use xlink:href="#DejaVuSans-Bold-2c" transform="translate(139.160156 0)"/>
     <use xlink:href="#DejaVuSans-Bold-37" transform="translate(177.148438 0)"/>
     <use xlink:href="#DejaVuSans-Bold-30" transform="translate(246.728516 0)"/>
     <use xlink:href="#DejaVuSans-Bold-39" transform="translate(316.308594 0)"/>
    </g>
   </g>
   <g id="text_16">
    <!-- OOP max: $6,000 -->
    <g style="fill: #5b6573" transform="translate(829.378007 307.135899) scale(0.09 -0.09)">
     <defs>
      <path id="DejaVuSans-Oblique-4f" d="M 2919 4238 
Q 2400 4238 2003 3986 
Q 1606 3734 1313 3219 
Q 1125 2891 1026 2522 
Q 928 2153 928 1778 
Q 928 1128 1239 775 
Q 1550 422 2119 422 
Q 2631 422 3032 676 
Q 3434 931 3719 1434 
Q 3909 1772 4009 2142 
Q 4109 2513 4109 2881 
Q 4109 3528 3796 3883 
Q 3484 4238 2919 4238 
z
M 2100 -91 
Q 1241 -91 748 418 
Q 256 928 256 1813 
Q 256 2319 448 2847 
Q 641 3375 978 3788 
Q 1375 4272 1862 4511 
Q 2350 4750 2938 4750 
Q 3794 4750 4287 4245 
Q 4781 3741 4781 2869 
Q 4781 2331 4593 1812 
Q 4406 1294 4056 872 
Q 3656 384 3173 146 
Q 2691 -91 2100 -91 
z
" transform="scale(0.015625)"/>
      <path id="DejaVuSans-Oblique-50" d="M 1081 4666 
L 2541 4666 
Q 3178 4666 3512 4369 
Q 3847 4072 3847 3500 
Q 3847 2731 3353 2303 
Q 2859 1875 1966 1875 
L 1172 1875 
L 806 0 
L 172 0 
L 1081 4666 
z
M 1613 4147 
L 1275 2394 
L 2069 2394 
Q 2606 2394 2893 2669 
Q 3181 2944 3181 3456 
Q 3181 3784 2986 3965 
Q 2791 4147 2438 4147 
L 1613 4147 
z
" transform="scale(0.015625)"/>
      <path id="DejaVuSans-Oblique-20" transform="scale(0.015625)"/>
      <path id="DejaVuSans-Oblique-6d" d="M 5747 2113 
L 5338 0 
L 4763 0 
L 5166 2094 
Q 5191 2228 5203 2325 
Q 5216 2422 5216 2491 
Q 5216 2772 5059 2928 
Q 4903 3084 4622 3084 
Q 4203 3084 3875 2770 
Q 3547 2456 3450 1953 
L 3066 0 
L 2491 0 
L 2900 2094 
Q 2925 2209 2937 2307 
Q 2950 2406 2950 2484 
Q 2950 2769 2794 2926 
Q 2638 3084 2363 3084 
Q 1938 3084 1609 2770 
Q 1281 2456 1184 1953 
L 800 0 
L 225 0 
L 909 3500 
L 1484 3500 
L 1375 2956 
Q 1609 3263 1923 3423 
Q 2238 3584 2597 3584 
Q 2978 3584 3223 3384 
Q 3469 3184 3519 2828 
Q 3781 3197 4126 3390 
Q 4472 3584 4856 3584 
Q 5306 3584 5551 3325 
Q 5797 3066 5797 2591 
Q 5797 2488 5784 2364 
Q 5772 2241 5747 2113 
z
" transform="scale(0.015625)"/>
      <path id="DejaVuSans-Oblique-61" d="M 3438 1997 
L 3047 0 
L 2472 0 
L 2578 531 
Q 2325 219 2001 64 
Q 1678 -91 1281 -91 
Q 834 -91 548 182 
Q 263 456 263 884 
Q 263 1497 752 1853 
Q 1241 2209 2100 2209 
L 2900 2209 
L 2931 2363 
Q 2938 2388 2941 2417 
Q 2944 2447 2944 2509 
Q 2944 2788 2717 2942 
Q 2491 3097 2081 3097 
Q 1800 3097 1504 3025 
Q 1209 2953 897 2809 
L 997 3341 
Q 1322 3463 1633 3523 
Q 1944 3584 2234 3584 
Q 2853 3584 3176 3315 
Q 3500 3047 3500 2534 
Q 3500 2431 3484 2292 
Q 3469 2153 3438 1997 
z
M 2816 1759 
L 2241 1759 
Q 1534 1759 1195 1570 
Q 856 1381 856 984 
Q 856 709 1029 553 
Q 1203 397 1509 397 
Q 1978 397 2328 733 
Q 2678 1069 2791 1631 
L 2816 1759 
z
" transform="scale(0.015625)"/>
      <path id="DejaVuSans-Oblique-78" d="M 3841 3500 
L 2234 1784 
L 3219 0 
L 2559 0 
L 1819 1388 
L 531 0 
L -166 0 
L 1556 1844 
L 641 3500 
L 1300 3500 
L 1972 2234 
L 3144 3500 
L 3841 3500 
z
" transform="scale(0.015625)"/>
      <path id="DejaVuSans-Oblique-3a" d="M 978 3309 
L 1638 3309 
L 1484 2516 
L 825 2516 
L 978 3309 
z
M 488 794 
L 1147 794 
L 991 0 
L 331 0 
L 488 794 
z
" transform="scale(0.015625)"/>
      <path id="DejaVuSans-Oblique-24" d="M 1875 453 
Q 2309 472 2562 673 
Q 2816 875 2816 1197 
Q 2816 1459 2656 1603 
Q 2497 1747 2138 1806 
L 1875 453 
z
M 2188 3688 
Q 1775 3644 1540 3444 
Q 1306 3244 1306 2931 
Q 1306 2713 1454 2589 
Q 1603 2466 1941 2406 
L 2188 3688 
z
M 3647 3944 
L 3541 3378 
Q 3272 3522 3011 3600 
Q 2750 3678 2503 3684 
L 2241 2350 
Q 2816 2259 3117 1990 
Q 3419 1722 3419 1300 
Q 3419 753 2972 395 
Q 2525 38 1784 0 
L 1600 -941 
L 1288 -941 
L 1472 0 
Q 1109 9 790 82 
Q 472 156 213 288 
L 319 863 
Q 606 669 918 562 
Q 1231 456 1563 444 
L 1838 1869 
Q 1247 1981 978 2214 
Q 709 2447 709 2841 
Q 709 3359 1139 3718 
Q 1569 4078 2272 4134 
L 2419 4863 
L 2731 4863 
L 2594 4134 
Q 2875 4125 3142 4076 
Q 3409 4028 3647 3944 
z
" transform="scale(0.015625)"/>
      <path id="DejaVuSans-Oblique-36" d="M 2938 1728 
Q 2938 2125 2734 2354 
Q 2531 2584 2181 2584 
Q 1697 2584 1367 2211 
Q 1038 1838 1038 1288 
Q 1038 875 1239 642 
Q 1441 409 1797 409 
Q 2284 409 2611 792 
Q 2938 1175 2938 1728 
z
M 3788 4556 
L 3681 3981 
Q 3500 4100 3265 4162 
Q 3031 4225 2766 4225 
Q 2119 4225 1726 3819 
Q 1334 3413 1141 2547 
Q 1369 2813 1670 2948 
Q 1972 3084 2322 3084 
Q 2894 3084 3233 2754 
Q 3572 2425 3572 1869 
Q 3572 1413 3405 1020 
Q 3238 628 2919 331 
Q 2700 128 2409 18 
Q 2119 -91 1791 -91 
Q 1147 -91 775 318 
Q 403 728 403 1441 
Q 403 2103 573 2717 
Q 744 3331 1050 3781 
Q 1372 4256 1830 4503 
Q 2288 4750 2841 4750 
Q 3084 4750 3321 4701 
Q 3559 4653 3788 4556 
z
" transform="scale(0.015625)"/>
      <path id="DejaVuSans-Oblique-2c" d="M 575 794 
L 1234 794 
L 1131 256 
L 422 -744 
L 19 -744 
L 469 256 
L 575 794 
z
" transform="scale(0.015625)"/>
      <path id="DejaVuSans-Oblique-30" d="M 2444 4750 
Q 3078 4750 3414 4328 
Q 3750 3906 3750 3116 
Q 3750 2516 3592 1923 
Q 3434 1331 3150 863 
Q 2859 394 2467 151 
Q 2075 -91 1600 -91 
Q 988 -91 653 334 
Q 319 759 319 1544 
Q 319 2138 480 2733 
Q 641 3328 928 3794 
Q 1216 4263 1602 4506 
Q 1988 4750 2444 4750 
z
M 2406 4250 
Q 2169 4250 1955 4123 
Q 1741 3997 1569 3750 
Q 1281 3338 1111 2720 
Q 941 2103 941 1453 
Q 941 938 1123 673 
Q 1306 409 1663 409 
Q 1913 409 2125 536 
Q 2338 663 2509 909 
Q 2794 1319 2961 1936 
Q 3128 2553 3128 3206 
Q 3128 3722 2945 3986 
Q 2763 4250 2406 4250 
z
" transform="scale(0.015625)"/>
     </defs>
     <use xlink:href="#DejaVuSans-Oblique-4f"/>
     <use xlink:href="#DejaVuSans-Oblique-4f" transform="translate(78.710938 0)"/>
     <use xlink:href="#DejaVuSans-Oblique-50" transform="translate(157.421875 0)"/>
     <use xlink:href="#DejaVuSans-Oblique-20" transform="translate(217.724609 0)"/>
     <use xlink:href="#DejaVuSans-Oblique-6d" transform="translate(249.511719 0)"/>
     <use xlink:href="#DejaVuSans-Oblique-61" transform="translate(346.923828 0)"/>
     <use xlink:href="#DejaVuSans-Oblique-78" transform="translate(408.203125 0)"/>
     <use xlink:href="#DejaVuSans-Oblique-3a" transform="translate(467.382812 0)"/>
     <use xlink:href="#DejaVuSans-Oblique-20" transform="translate(501.074219 0)"/>
     <use xlink:href="#DejaVuSans-Oblique-24" transform="translate(532.861328 0)"/>
     <use xlink:href="#DejaVuSans-Oblique-36" transform="translate(596.484375 0)"/>
     <use xlink:href="#DejaVuSans-Oblique-2c" transform="translate(660.107422 0)"/>
     <use xlink:href="#DejaVuSans-Oblique-30" transform="translate(691.894531 0)"/>
     <use xlink:href="#DejaVuSans-Oblique-30" transform="translate(755.517578 0)"/>
     <use xlink:href="#DejaVuSans-Oblique-30" transform="translate(819.140625 0)"/>
    </g>
   </g>
   <g id="text_17">
    <!-- $7,951 -->
    <g style="fill: #1d2330" transform="translate(615.061342 253.080168) scale(0.1 -0.1)">
     <defs>
      <path id="DejaVuSans-Bold-35" d="M 678 4666 
L 3669 4666 
L 3669 3781 
L 1638 3781 
L 1638 3059 
Q 1775 3097 1914 3117 
Q 2053 3138 2203 3138 
Q 3056 3138 3531 2711 
Q 4006 2284 4006 1522 
Q 4006 766 3489 337 
Q 2972 -91 2053 -91 
Q 1656 -91 1267 -14 
Q 878 63 494 219 
L 494 1166 
Q 875 947 1217 837 
Q 1559 728 1863 728 
Q 2300 728 2551 942 
Q 2803 1156 2803 1522 
Q 2803 1891 2551 2103 
Q 2300 2316 1863 2316 
Q 1603 2316 1309 2248 
Q 1016 2181 678 2041 
L 678 4666 
z
" transform="scale(0.015625)"/>
      <path id="DejaVuSans-Bold-31" d="M 750 831 
L 1813 831 
L 1813 3847 
L 722 3622 
L 722 4441 
L 1806 4666 
L 2950 4666 
L 2950 831 
L 4013 831 
L 4013 0 
L 750 0 
L 750 831 
z
" transform="scale(0.015625)"/>
     </defs>
     <use xlink:href="#DejaVuSans-Bold-24"/>
     <use xlink:href="#DejaVuSans-Bold-37" transform="translate(69.580078 0)"/>
     <use xlink:href="#DejaVuSans-Bold-2c" transform="translate(139.160156 0)"/>
     <use xlink:href="#DejaVuSans-Bold-39" transform="translate(177.148438 0)"/>
     <use xlink:href="#DejaVuSans-Bold-35" transform="translate(246.728516 0)"/>
     <use xlink:href="#DejaVuSans-Bold-31" transform="translate(316.308594 0)"/>
    </g>
   </g>
   <g id="text_18">
    <!-- $7,951 -->
    <g style="fill: #ffffff" transform="translate(438.298451 252.666262) scale(0.085 -0.085)">
     <use xlink:href="#DejaVuSans-Bold-24"/>
     <use xlink:href="#DejaVuSans-Bold-37" transform="translate(69.580078 0)"/>
     <use xlink:href="#DejaVuSans-Bold-2c" transform="translate(139.160156 0)"/>
     <use xlink:href="#DejaVuSans-Bold-39" transform="translate(177.148438 0)"/>
     <use xlink:href="#DejaVuSans-Bold-35" transform="translate(246.728516 0)"/>
     <use xlink:href="#DejaVuSans-Bold-31" transform="translate(316.308594 0)"/>
    </g>
   </g>
   <g id="text_19">
    <!-- OOP max: $9,400 -->
    <g style="fill: #5b6573" transform="translate(829.378007 252.804231) scale(0.09 -0.09)">
     <defs>
      <path id="DejaVuSans-Oblique-39" d="M 281 103 
L 397 678 
Q 578 559 809 496 
Q 1041 434 1306 434 
Q 1953 434 2348 843 
Q 2744 1253 2938 2119 
Q 2706 1853 2401 1714 
Q 2097 1575 1747 1575 
Q 1178 1575 842 1904 
Q 506 2234 506 2791 
Q 506 3247 672 3639 
Q 838 4031 1159 4325 
Q 1378 4531 1665 4640 
Q 1953 4750 2278 4750 
Q 2925 4750 3300 4339 
Q 3675 3928 3675 3219 
Q 3675 2559 3501 1943 
Q 3328 1328 3022 878 
Q 2697 403 2240 156 
Q 1784 -91 1228 -91 
Q 988 -91 748 -42 
Q 509 6 281 103 
z
M 1131 2938 
Q 1131 2541 1337 2308 
Q 1544 2075 1894 2075 
Q 2378 2075 2706 2447 
Q 3034 2819 3034 3372 
Q 3034 3784 2831 4017 
Q 2628 4250 2272 4250 
Q 1788 4250 1459 3870 
Q 1131 3491 1131 2938 
z
" transform="scale(0.015625)"/>
      <path id="DejaVuSans-Oblique-34" d="M 2753 4666 
L 3547 4666 
L 2950 1625 
L 3616 1625 
L 3513 1100 
L 2847 1100 
L 2638 0 
L 2009 0 
L 2222 1100 
L 116 1100 
L 238 1709 
L 2753 4666 
z
M 2809 4116 
L 728 1625 
L 2322 1625 
L 2809 4116 
z
" transform="scale(0.015625)"/>
     </defs>
     <use xlink:href="#DejaVuSans-Oblique-4f"/>
     <use xlink:href="#DejaVuSans-Oblique-4f" transform="translate(78.710938 0)"/>
     <use xlink:href="#DejaVuSans-Oblique-50" transform="translate(157.421875 0)"/>
     <use xlink:href="#DejaVuSans-Oblique-20" transform="translate(217.724609 0)"/>
     <use xlink:href="#DejaVuSans-Oblique-6d" transform="translate(249.511719 0)"/>
     <use xlink:href="#DejaVuSans-Oblique-61" transform="translate(346.923828 0)"/>
     <use xlink:href="#DejaVuSans-Oblique-78" transform="translate(408.203125 0)"/>
     <use xlink:href="#DejaVuSans-Oblique-3a" transform="translate(467.382812 0)"/>
     <use xlink:href="#DejaVuSans-Oblique-20" transform="translate(501.074219 0)"/>
     <use xlink:href="#DejaVuSans-Oblique-24" transform="translate(532.861328 0)"/>
     <use xlink:href="#DejaVuSans-Oblique-39" transform="translate(596.484375 0)"/>
     <use xlink:href="#DejaVuSans-Oblique-2c" transform="translate(660.107422 0)"/>
     <use xlink:href="#DejaVuSans-Oblique-34" transform="translate(691.894531 0)"/>
     <use xlink:href="#DejaVuSans-Oblique-30" transform="translate(755.517578 0)"/>
     <use xlink:href="#DejaVuSans-Oblique-30" transform="translate(819.140625 0)"/>
    </g>
   </g>
   <g id="text_20">
    <!-- $6,954 -->
    <g style="fill: #1d2330" transform="translate(576.77081 198.7485) scale(0.1 -0.1)">
     <defs>
      <path id="DejaVuSans-Bold-36" d="M 2316 2303 
Q 2000 2303 1842 2098 
Q 1684 1894 1684 1484 
Q 1684 1075 1842 870 
Q 2000 666 2316 666 
Q 2634 666 2792 870 
Q 2950 1075 2950 1484 
Q 2950 1894 2792 2098 
Q 2634 2303 2316 2303 
z
M 3803 4544 
L 3803 3681 
Q 3506 3822 3243 3889 
Q 2981 3956 2731 3956 
Q 2194 3956 1894 3657 
Q 1594 3359 1544 2772 
Q 1750 2925 1990 3001 
Q 2231 3078 2516 3078 
Q 3231 3078 3670 2659 
Q 4109 2241 4109 1563 
Q 4109 813 3618 361 
Q 3128 -91 2303 -91 
Q 1394 -91 895 523 
Q 397 1138 397 2266 
Q 397 3422 980 4083 
Q 1563 4744 2578 4744 
Q 2900 4744 3203 4694 
Q 3506 4644 3803 4544 
z
" transform="scale(0.015625)"/>
      <path id="DejaVuSans-Bold-34" d="M 2356 3675 
L 1038 1722 
L 2356 1722 
L 2356 3675 
z
M 2156 4666 
L 3494 4666 
L 3494 1722 
L 4159 1722 
L 4159 850 
L 3494 850 
L 3494 0 
L 2356 0 
L 2356 850 
L 288 850 
L 288 1881 
L 2156 4666 
z
" transform="scale(0.015625)"/>
     </defs>
     <use xlink:href="#DejaVuSans-Bold-24"/>
     <use xlink:href="#DejaVuSans-Bold-36" transform="translate(69.580078 0)"/>
     <use xlink:href="#DejaVuSans-Bold-2c" transform="translate(139.160156 0)"/>
     <use xlink:href="#DejaVuSans-Bold-39" transform="translate(177.148438 0)"/>
     <use xlink:href="#DejaVuSans-Bold-35" transform="translate(246.728516 0)"/>
     <use xlink:href="#DejaVuSans-Bold-34" transform="translate(316.308594 0)"/>
    </g>
   </g>
   <g id="text_21">
    <!-- $6,954 -->
    <g style="fill: #ffffff" transform="translate(419.153185 198.334594) scale(0.085 -0.085)">
     <use xlink:href="#DejaVuSans-Bold-24"/>
     <use xlink:href="#DejaVuSans-Bold-36" transform="translate(69.580078 0)"/>
     <use xlink:href="#DejaVuSans-Bold-2c" transform="translate(139.160156 0)"/>
     <use xlink:href="#DejaVuSans-Bold-39" transform="translate(177.148438 0)"/>
     <use xlink:href="#DejaVuSans-Bold-35" transform="translate(246.728516 0)"/>
     <use xlink:href="#DejaVuSans-Bold-34" transform="translate(316.308594 0)"/>
    </g>
   </g>
   <g id="text_22">
    <!-- OOP max: $4,500 -->
    <g style="fill: #5b6573" transform="translate(829.378007 198.472563) scale(0.09 -0.09)">
     <defs>
      <path id="DejaVuSans-Oblique-35" d="M 3719 4666 
L 3622 4141 
L 1691 4141 
L 1466 2988 
Q 1609 3034 1757 3056 
Q 1906 3078 2059 3078 
Q 2706 3078 3081 2731 
Q 3456 2384 3456 1791 
Q 3456 1375 3264 994 
Q 3072 613 2719 325 
Q 2469 125 2108 17 
Q 1747 -91 1319 -91 
Q 1038 -91 744 -41 
Q 450 9 128 109 
L 244 697 
Q 531 556 820 486 
Q 1109 416 1403 416 
Q 2013 416 2411 781 
Q 2809 1147 2809 1697 
Q 2809 2103 2548 2328 
Q 2288 2553 1819 2553 
Q 1572 2553 1305 2495 
Q 1038 2438 756 2322 
L 1209 4666 
L 3719 4666 
z
" transform="scale(0.015625)"/>
     </defs>
     <use xlink:href="#DejaVuSans-Oblique-4f"/>
     <use xlink:href="#DejaVuSans-Oblique-4f" transform="translate(78.710938 0)"/>
     <use xlink:href="#DejaVuSans-Oblique-50" transform="translate(157.421875 0)"/>
     <use xlink:href="#DejaVuSans-Oblique-20" transform="translate(217.724609 0)"/>
     <use xlink:href="#DejaVuSans-Oblique-6d" transform="translate(249.511719 0)"/>
     <use xlink:href="#DejaVuSans-Oblique-61" transform="translate(346.923828 0)"/>
     <use xlink:href="#DejaVuSans-Oblique-78" transform="translate(408.203125 0)"/>
     <use xlink:href="#DejaVuSans-Oblique-3a" transform="translate(467.382812 0)"/>
     <use xlink:href="#DejaVuSans-Oblique-20" transform="translate(501.074219 0)"/>
     <use xlink:href="#DejaVuSans-Oblique-24" transform="translate(532.861328 0)"/>
     <use xlink:href="#DejaVuSans-Oblique-34" transform="translate(596.484375 0)"/>
     <use xlink:href="#DejaVuSans-Oblique-2c" transform="translate(660.107422 0)"/>
     <use xlink:href="#DejaVuSans-Oblique-35" transform="translate(691.894531 0)"/>
     <use xlink:href="#DejaVuSans-Oblique-30" transform="translate(755.517578 0)"/>
     <use xlink:href="#DejaVuSans-Oblique-30" transform="translate(819.140625 0)"/>
    </g>
   </g>
   <g id="text_23">
    <!-- $6,453 -->
    <g style="fill: #1d2330" transform="translate(557.52953 144.416832) scale(0.1 -0.1)">
     <defs>
      <path id="DejaVuSans-Bold-33" d="M 2981 2516 
Q 3453 2394 3698 2092 
Q 3944 1791 3944 1325 
Q 3944 631 3412 270 
Q 2881 -91 1863 -91 
Q 1503 -91 1142 -33 
Q 781 25 428 141 
L 428 1069 
Q 766 900 1098 814 
Q 1431 728 1753 728 
Q 2231 728 2486 893 
Q 2741 1059 2741 1369 
Q 2741 1688 2480 1852 
Q 2219 2016 1709 2016 
L 1228 2016 
L 1228 2791 
L 1734 2791 
Q 2188 2791 2409 2933 
Q 2631 3075 2631 3366 
Q 2631 3634 2415 3781 
Q 2200 3928 1806 3928 
Q 1516 3928 1219 3862 
Q 922 3797 628 3669 
L 628 4550 
Q 984 4650 1334 4700 
Q 1684 4750 2022 4750 
Q 2931 4750 3382 4451 
Q 3834 4153 3834 3553 
Q 3834 3144 3618 2883 
Q 3403 2622 2981 2516 
z
" transform="scale(0.015625)"/>
     </defs>
     <use xlink:href="#DejaVuSans-Bold-24"/>
     <use xlink:href="#DejaVuSans-Bold-36" transform="translate(69.580078 0)"/>
     <use xlink:href="#DejaVuSans-Bold-2c" transform="translate(139.160156 0)"/>
     <use xlink:href="#DejaVuSans-Bold-34" transform="translate(177.148438 0)"/>
     <use xlink:href="#DejaVuSans-Bold-35" transform="translate(246.728516 0)"/>
     <use xlink:href="#DejaVuSans-Bold-33" transform="translate(316.308594 0)"/>
    </g>
   </g>
   <g id="text_24">
    <!-- $6,453 -->
    <g style="fill: #ffffff" transform="translate(409.532545 144.002925) scale(0.085 -0.085)">
     <use xlink:href="#DejaVuSans-Bold-24"/>
     <use xlink:href="#DejaVuSans-Bold-36" transform="translate(69.580078 0)"/>
     <use xlink:href="#DejaVuSans-Bold-2c" transform="translate(139.160156 0)"/>
     <use xlink:href="#DejaVuSans-Bold-34" transform="translate(177.148438 0)"/>
     <use xlink:href="#DejaVuSans-Bold-35" transform="translate(246.728516 0)"/>
     <use xlink:href="#DejaVuSans-Bold-33" transform="translate(316.308594 0)"/>
    </g>
   </g>
   <g id="text_25">
    <!-- OOP max: $4,500 -->
    <g style="fill: #5b6573" transform="translate(829.378007 144.140894) scale(0.09 -0.09)">
     <use xlink:href="#DejaVuSans-Oblique-4f"/>
     <use xlink:href="#DejaVuSans-Oblique-4f" transform="translate(78.710938 0)"/>
     <use xlink:href="#DejaVuSans-Oblique-50" transform="translate(157.421875 0)"/>
     <use xlink:href="#DejaVuSans-Oblique-20" transform="translate(217.724609 0)"/>
     <use xlink:href="#DejaVuSans-Oblique-6d" transform="translate(249.511719 0)"/>
     <use xlink:href="#DejaVuSans-Oblique-61" transform="translate(346.923828 0)"/>
     <use xlink:href="#DejaVuSans-Oblique-78" transform="translate(408.203125 0)"/>
     <use xlink:href="#DejaVuSans-Oblique-3a" transform="translate(467.382812 0)"/>
     <use xlink:href="#DejaVuSans-Oblique-20" transform="translate(501.074219 0)"/>
     <use xlink:href="#DejaVuSans-Oblique-24" transform="translate(532.861328 0)"/>
     <use xlink:href="#DejaVuSans-Oblique-34" transform="translate(596.484375 0)"/>
     <use xlink:href="#DejaVuSans-Oblique-2c" transform="translate(660.107422 0)"/>
     <use xlink:href="#DejaVuSans-Oblique-35" transform="translate(691.894531 0)"/>
     <use xlink:href="#DejaVuSans-Oblique-30" transform="translate(755.517578 0)"/>
     <use xlink:href="#DejaVuSans-Oblique-30" transform="translate(819.140625 0)"/>
    </g>
   </g>
   <g id="text_26">
    <!-- $6,439 -->
    <g style="fill: #1d2330" transform="translate(556.99185 90.085163) scale(0.1 -0.1)">
     <use xlink:href="#DejaVuSans-Bold-24"/>
     <use xlink:href="#DejaVuSans-Bold-36" transform="translate(69.580078 0)"/>
     <use xlink:href="#DejaVuSans-Bold-2c" transform="translate(139.160156 0)"/>
     <use xlink:href="#DejaVuSans-Bold-34" transform="translate(177.148438 0)"/>
     <use xlink:href="#DejaVuSans-Bold-33" transform="translate(246.728516 0)"/>
     <use xlink:href="#DejaVuSans-Bold-39" transform="translate(316.308594 0)"/>
    </g>
   </g>
   <g id="text_27">
    <!-- $6,439 -->
    <g style="fill: #ffffff" transform="translate(409.263705 89.671257) scale(0.085 -0.085)">
     <use xlink:href="#DejaVuSans-Bold-24"/>
     <use xlink:href="#DejaVuSans-Bold-36" transform="translate(69.580078 0)"/>
     <use xlink:href="#DejaVuSans-Bold-2c" transform="translate(139.160156 0)"/>
     <use xlink:href="#DejaVuSans-Bold-34" transform="translate(177.148438 0)"/>
     <use xlink:href="#DejaVuSans-Bold-33" transform="translate(246.728516 0)"/>
     <use xlink:href="#DejaVuSans-Bold-39" transform="translate(316.308594 0)"/>
    </g>
   </g>
   <g id="text_28">
    <!-- OOP max: $4,000 -->
    <g style="fill: #5b6573" transform="translate(829.378007 89.809226) scale(0.09 -0.09)">
     <use xlink:href="#DejaVuSans-Oblique-4f"/>
     <use xlink:href="#DejaVuSans-Oblique-4f" transform="translate(78.710938 0)"/>
     <use xlink:href="#DejaVuSans-Oblique-50" transform="translate(157.421875 0)"/>
     <use xlink:href="#DejaVuSans-Oblique-20" transform="translate(217.724609 0)"/>
     <use xlink:href="#DejaVuSans-Oblique-6d" transform="translate(249.511719 0)"/>
     <use xlink:href="#DejaVuSans-Oblique-61" transform="translate(346.923828 0)"/>
     <use xlink:href="#DejaVuSans-Oblique-78" transform="translate(408.203125 0)"/>
     <use xlink:href="#DejaVuSans-Oblique-3a" transform="translate(467.382812 0)"/>
     <use xlink:href="#DejaVuSans-Oblique-20" transform="translate(501.074219 0)"/>
     <use xlink:href="#DejaVuSans-Oblique-24" transform="translate(532.861328 0)"/>
     <use xlink:href="#DejaVuSans-Oblique-34" transform="translate(596.484375 0)"/>
     <use xlink:href="#DejaVuSans-Oblique-2c" transform="translate(660.107422 0)"/>
     <use xlink:href="#DejaVuSans-Oblique-30" transform="translate(691.894531 0)"/>
     <use xlink:href="#DejaVuSans-Oblique-30" transform="translate(755.517578 0)"/>
     <use xlink:href="#DejaVuSans-Oblique-30" transform="translate(819.140625 0)"/>
    </g>
   </g>
   <g id="text_29">
    <g id="patch_9">
     <path d="M 238.658999 311.991524 
L 253.996499 311.991524 
Q 256.496499 311.991524 256.496499 309.491524 
L 256.496499 299.813399 
Q 256.496499 297.313399 253.996499 297.313399 
L 238.658999 297.313399 
Q 236.158999 297.313399 236.158999 299.813399 
L 236.158999 309.491524 
Q 236.158999 311.991524 238.658999 311.991524 
z
" style="fill: #e5e8ee"/>
    </g>
    <!-- #5 -->
    <g style="fill: #5b6573" transform="translate(238.658999 307.411837) scale(0.1 -0.1)">
     <defs>
      <path id="DejaVuSans-Bold-23" d="M 2847 4594 
L 2547 3391 
L 3372 3391 
L 3675 4594 
L 4366 4594 
L 4063 3391 
L 4928 3391 
L 4928 2725 
L 3897 2725 
L 3681 1869 
L 4569 1869 
L 4569 1197 
L 3519 1197 
L 3219 0 
L 2528 0 
L 2828 1197 
L 2003 1197 
L 1703 0 
L 1006 0 
L 1306 1197 
L 434 1197 
L 434 1869 
L 1459 1869 
L 1678 2725 
L 794 2725 
L 794 3391 
L 1850 3391 
L 2150 4594 
L 2847 4594 
z
M 3200 2725 
L 2375 2725 
L 2156 1869 
L 2981 1869 
L 3200 2725 
z
" transform="scale(0.015625)"/>
     </defs>
     <use xlink:href="#DejaVuSans-Bold-23"/>
     <use xlink:href="#DejaVuSans-Bold-35" transform="translate(83.789062 0)"/>
    </g>
   </g>
   <g id="text_30">
    <g id="patch_10">
     <path d="M 238.658999 257.659856 
L 253.996499 257.659856 
Q 256.496499 257.659856 256.496499 255.159856 
L 256.496499 245.481731 
Q 256.496499 242.981731 253.996499 242.981731 
L 238.658999 242.981731 
Q 236.158999 242.981731 236.158999 245.481731 
L 236.158999 255.159856 
Q 236.158999 257.659856 238.658999 257.659856 
z
" style="fill: #e5e8ee"/>
    </g>
    <!-- #4 -->
    <g style="fill: #5b6573" transform="translate(238.658999 253.080168) scale(0.1 -0.1)">
     <use xlink:href="#DejaVuSans-Bold-23"/>
     <use xlink:href="#DejaVuSans-Bold-34" transform="translate(83.789062 0)"/>
    </g>
   </g>
   <g id="text_31">
    <g id="patch_11">
     <path d="M 238.658999 203.328188 
L 253.996499 203.328188 
Q 256.496499 203.328188 256.496499 200.828188 
L 256.496499 191.150063 
Q 256.496499 188.650063 253.996499 188.650063 
L 238.658999 188.650063 
Q 236.158999 188.650063 236.158999 191.150063 
L 236.158999 200.828188 
Q 236.158999 203.328188 238.658999 203.328188 
z
" style="fill: #e5e8ee"/>
    </g>
    <!-- #3 -->
    <g style="fill: #5b6573" transform="translate(238.658999 198.7485) scale(0.1 -0.1)">
     <use xlink:href="#DejaVuSans-Bold-23"/>
     <use xlink:href="#DejaVuSans-Bold-33" transform="translate(83.789062 0)"/>
    </g>
   </g>
   <g id="text_32">
    <g id="patch_12">
     <path d="M 238.658999 148.996519 
L 253.996499 148.996519 
Q 256.496499 148.996519 256.496499 146.496519 
L 256.496499 136.818394 
Q 256.496499 134.318394 253.996499 134.318394 
L 238.658999 134.318394 
Q 236.158999 134.318394 236.158999 136.818394 
L 236.158999 146.496519 
Q 236.158999 148.996519 238.658999 148.996519 
z
" style="fill: #e5e8ee"/>
    </g>
    <!-- #2 -->
    <g style="fill: #5b6573" transform="translate(238.658999 144.416832) scale(0.1 -0.1)">
     <defs>
      <path id="DejaVuSans-Bold-32" d="M 1844 884 
L 3897 884 
L 3897 0 
L 506 0 
L 506 884 
L 2209 2388 
Q 2438 2594 2547 2791 
Q 2656 2988 2656 3200 
Q 2656 3528 2436 3728 
Q 2216 3928 1850 3928 
Q 1569 3928 1234 3808 
Q 900 3688 519 3450 
L 519 4475 
Q 925 4609 1322 4679 
Q 1719 4750 2100 4750 
Q 2938 4750 3402 4381 
Q 3866 4013 3866 3353 
Q 3866 2972 3669 2642 
Q 3472 2313 2841 1759 
L 1844 884 
z
" transform="scale(0.015625)"/>
     </defs>
     <use xlink:href="#DejaVuSans-Bold-23"/>
     <use xlink:href="#DejaVuSans-Bold-32" transform="translate(83.789062 0)"/>
    </g>
   </g>
   <g id="text_33">
    <g id="patch_13">
     <path d="M 238.658999 94.664851 
L 253.996499 94.664851 
Q 256.496499 94.664851 256.496499 92.164851 
L 256.496499 82.486726 
Q 256.496499 79.986726 253.996499 79.986726 
L 238.658999 79.986726 
Q 236.158999 79.986726 236.158999 82.486726 
L 236.158999 92.164851 
Q 236.158999 94.664851 238.658999 94.664851 
z
" style="fill: #15803d"/>
    </g>
    <!-- #1 -->
    <g style="fill: #ffffff" transform="translate(238.658999 90.085163) scale(0.1 -0.1)">
     <use xlink:href="#DejaVuSans-Bold-23"/>
     <use xlink:href="#DejaVuSans-Bold-31" transform="translate(83.789062 0)"/>
    </g>
   </g>
   <g id="text_34">
    <!-- HMO Plans — ranked by Family Premium -->
    <g style="fill: #1d2330" transform="translate(217.523438 32.237812) scale(0.14 -0.14)">
     <defs>
      <path id="DejaVuSans-Bold-48" d="M 588 4666 
L 1791 4666 
L 1791 2888 
L 3566 2888 
L 3566 4666 
L 4769 4666 
L 4769 0 
L 3566 0 
L 3566 1978 
L 1791 1978 
L 1791 0 
L 588 0 
L 588 4666 
z
" transform="scale(0.015625)"/>
      <path id="DejaVuSans-Bold-4d" d="M 588 4666 
L 2119 4666 
L 3181 2169 
L 4250 4666 
L 5778 4666 
L 5778 0 
L 4641 0 
L 4641 3413 
L 3566 897 
L 2803 897 
L 1728 3413 
L 1728 0 
L 588 0 
L 588 4666 
z
" transform="scale(0.015625)"/>
      <path id="DejaVuSans-Bold-4f" d="M 2719 3878 
Q 2169 3878 1866 3472 
Q 1563 3066 1563 2328 
Q 1563 1594 1866 1187 
Q 2169 781 2719 781 
Q 3272 781 3575 1187 
Q 3878 1594 3878 2328 
Q 3878 3066 3575 3472 
Q 3272 3878 2719 3878 
z
M 2719 4750 
Q 3844 4750 4481 4106 
Q 5119 3463 5119 2328 
Q 5119 1197 4481 553 
Q 3844 -91 2719 -91 
Q 1597 -91 958 553 
Q 319 1197 319 2328 
Q 319 3463 958 4106 
Q 1597 4750 2719 4750 
z
" transform="scale(0.015625)"/>
      <path id="DejaVuSans-Bold-20" transform="scale(0.015625)"/>
      <path id="DejaVuSans-Bold-50" d="M 588 4666 
L 2584 4666 
Q 3475 4666 3951 4270 
Q 4428 3875 4428 3144 
Q 4428 2409 3951 2014 
Q 3475 1619 2584 1619 
L 1791 1619 
L 1791 0 
L 588 0 
L 588 4666 
z
M 1791 3794 
L 1791 2491 
L 2456 2491 
Q 2806 2491 2997 2661 
Q 3188 2831 3188 3144 
Q 3188 3456 2997 3625 
Q 2806 3794 2456 3794 
L 1791 3794 
z
" transform="scale(0.015625)"/>
      <path id="DejaVuSans-Bold-6c" d="M 538 4863 
L 1656 4863 
L 1656 0 
L 538 0 
L 538 4863 
z
" transform="scale(0.015625)"/>
      <path id="DejaVuSans-Bold-61" d="M 2106 1575 
Q 1756 1575 1579 1456 
Q 1403 1338 1403 1106 
Q 1403 894 1545 773 
Q 1688 653 1941 653 
Q 2256 653 2472 879 
Q 2688 1106 2688 1447 
L 2688 1575 
L 2106 1575 
z
M 3816 1997 
L 3816 0 
L 2688 0 
L 2688 519 
Q 2463 200 2181 54 
Q 1900 -91 1497 -91 
Q 953 -91 614 226 
Q 275 544 275 1050 
Q 275 1666 698 1953 
Q 1122 2241 2028 2241 
L 2688 2241 
L 2688 2328 
Q 2688 2594 2478 2717 
Q 2269 2841 1825 2841 
Q 1466 2841 1156 2769 
Q 847 2697 581 2553 
L 581 3406 
Q 941 3494 1303 3539 
Q 1666 3584 2028 3584 
Q 2975 3584 3395 3211 
Q 3816 2838 3816 1997 
z
" transform="scale(0.015625)"/>
      <path id="DejaVuSans-Bold-6e" d="M 4056 2131 
L 4056 0 
L 2931 0 
L 2931 347 
L 2931 1631 
Q 2931 2084 2911 2256 
Q 2891 2428 2841 2509 
Q 2775 2619 2662 2680 
Q 2550 2741 2406 2741 
Q 2056 2741 1856 2470 
Q 1656 2200 1656 1722 
L 1656 0 
L 538 0 
L 538 3500 
L 1656 3500 
L 1656 2988 
Q 1909 3294 2193 3439 
Q 2478 3584 2822 3584 
Q 3428 3584 3742 3212 
Q 4056 2841 4056 2131 
z
" transform="scale(0.015625)"/>
      <path id="DejaVuSans-Bold-73" d="M 3272 3391 
L 3272 2541 
Q 2913 2691 2578 2766 
Q 2244 2841 1947 2841 
Q 1628 2841 1473 2761 
Q 1319 2681 1319 2516 
Q 1319 2381 1436 2309 
Q 1553 2238 1856 2203 
L 2053 2175 
Q 2913 2066 3209 1816 
Q 3506 1566 3506 1031 
Q 3506 472 3093 190 
Q 2681 -91 1863 -91 
Q 1516 -91 1145 -36 
Q 775 19 384 128 
L 384 978 
Q 719 816 1070 734 
Q 1422 653 1784 653 
Q 2113 653 2278 743 
Q 2444 834 2444 1013 
Q 2444 1163 2330 1236 
Q 2216 1309 1875 1350 
L 1678 1375 
Q 931 1469 631 1722 
Q 331 1975 331 2491 
Q 331 3047 712 3315 
Q 1094 3584 1881 3584 
Q 2191 3584 2531 3537 
Q 2872 3491 3272 3391 
z
" transform="scale(0.015625)"/>
      <path id="DejaVuSans-Bold-2014" d="M 344 2156 
L 6056 2156 
L 6056 1350 
L 344 1350 
L 344 2156 
z
" transform="scale(0.015625)"/>
      <path id="DejaVuSans-Bold-72" d="M 3138 2547 
Q 2991 2616 2845 2648 
Q 2700 2681 2553 2681 
Q 2122 2681 1889 2404 
Q 1656 2128 1656 1613 
L 1656 0 
L 538 0 
L 538 3500 
L 1656 3500 
L 1656 2925 
Q 1872 3269 2151 3426 
Q 2431 3584 2822 3584 
Q 2878 3584 2943 3579 
Q 3009 3575 3134 3559 
L 3138 2547 
z
" transform="scale(0.015625)"/>
      <path id="DejaVuSans-Bold-6b" d="M 538 4863 
L 1656 4863 
L 1656 2216 
L 2944 3500 
L 4244 3500 
L 2534 1894 
L 4378 0 
L 3022 0 
L 1656 1459 
L 1656 0 
L 538 0 
L 538 4863 
z
" transform="scale(0.015625)"/>
      <path id="DejaVuSans-Bold-65" d="M 4031 1759 
L 4031 1441 
L 1416 1441 
Q 1456 1047 1700 850 
Q 1944 653 2381 653 
Q 2734 653 3104 758 
Q 3475 863 3866 1075 
L 3866 213 
Q 3469 63 3072 -14 
Q 2675 -91 2278 -91 
Q 1328 -91 801 392 
Q 275 875 275 1747 
Q 275 2603 792 3093 
Q 1309 3584 2216 3584 
Q 3041 3584 3536 3087 
Q 4031 2591 4031 1759 
z
M 2881 2131 
Q 2881 2450 2695 2645 
Q 2509 2841 2209 2841 
Q 1884 2841 1681 2658 
Q 1478 2475 1428 2131 
L 2881 2131 
z
" transform="scale(0.015625)"/>
      <path id="DejaVuSans-Bold-64" d="M 2919 2988 
L 2919 4863 
L 4044 4863 
L 4044 0 
L 2919 0 
L 2919 506 
Q 2688 197 2409 53 
Q 2131 -91 1766 -91 
Q 1119 -91 703 423 
Q 288 938 288 1747 
Q 288 2556 703 3070 
Q 1119 3584 1766 3584 
Q 2128 3584 2408 3439 
Q 2688 3294 2919 2988 
z
M 2181 722 
Q 2541 722 2730 984 
Q 2919 1247 2919 1747 
Q 2919 2247 2730 2509 
Q 2541 2772 2181 2772 
Q 1825 2772 1636 2509 
Q 1447 2247 1447 1747 
Q 1447 1247 1636 984 
Q 1825 722 2181 722 
z
" transform="scale(0.015625)"/>
      <path id="DejaVuSans-Bold-62" d="M 2400 722 
Q 2759 722 2948 984 
Q 3138 1247 3138 1747 
Q 3138 2247 2948 2509 
Q 2759 2772 2400 2772 
Q 2041 2772 1848 2508 
Q 1656 2244 1656 1747 
Q 1656 1250 1848 986 
Q 2041 722 2400 722 
z
M 1656 2988 
Q 1888 3294 2169 3439 
Q 2450 3584 2816 3584 
Q 3463 3584 3878 3070 
Q 4294 2556 4294 1747 
Q 4294 938 3878 423 
Q 3463 -91 2816 -91 
Q 2450 -91 2169 54 
Q 1888 200 1656 506 
L 1656 0 
L 538 0 
L 538 4863 
L 1656 4863 
L 1656 2988 
z
" transform="scale(0.015625)"/>
      <path id="DejaVuSans-Bold-79" d="M 78 3500 
L 1197 3500 
L 2138 1125 
L 2938 3500 
L 4056 3500 
L 2584 -331 
Q 2363 -916 2067 -1148 
Q 1772 -1381 1288 -1381 
L 641 -1381 
L 641 -647 
L 991 -647 
Q 1275 -647 1404 -556 
Q 1534 -466 1606 -231 
L 1638 -134 
L 78 3500 
z
" transform="scale(0.015625)"/>
      <path id="DejaVuSans-Bold-46" d="M 588 4666 
L 3834 4666 
L 3834 3756 
L 1791 3756 
L 1791 2888 
L 3713 2888 
L 3713 1978 
L 1791 1978 
L 1791 0 
L 588 0 
L 588 4666 
z
" transform="scale(0.015625)"/>
      <path id="DejaVuSans-Bold-6d" d="M 3781 2919 
Q 3994 3244 4286 3414 
Q 4578 3584 4928 3584 
Q 5531 3584 5847 3212 
Q 6163 2841 6163 2131 
L 6163 0 
L 5038 0 
L 5038 1825 
Q 5041 1866 5042 1909 
Q 5044 1953 5044 2034 
Q 5044 2406 4934 2573 
Q 4825 2741 4581 2741 
Q 4263 2741 4089 2478 
Q 3916 2216 3909 1719 
L 3909 0 
L 2784 0 
L 2784 1825 
Q 2784 2406 2684 2573 
Q 2584 2741 2328 2741 
Q 2006 2741 1831 2477 
Q 1656 2213 1656 1722 
L 1656 0 
L 531 0 
L 531 3500 
L 1656 3500 
L 1656 2988 
Q 1863 3284 2130 3434 
Q 2397 3584 2719 3584 
Q 3081 3584 3359 3409 
Q 3638 3234 3781 2919 
z
" transform="scale(0.015625)"/>
      <path id="DejaVuSans-Bold-69" d="M 538 3500 
L 1656 3500 
L 1656 0 
L 538 0 
L 538 3500 
z
M 538 4863 
L 1656 4863 
L 1656 3950 
L 538 3950 
L 538 4863 
z
" transform="scale(0.015625)"/>
      <path id="DejaVuSans-Bold-75" d="M 500 1363 
L 500 3500 
L 1625 3500 
L 1625 3150 
Q 1625 2866 1622 2436 
Q 1619 2006 1619 1863 
Q 1619 1441 1641 1255 
Q 1663 1069 1716 984 
Q 1784 875 1895 815 
Q 2006 756 2150 756 
Q 2500 756 2700 1025 
Q 2900 1294 2900 1772 
L 2900 3500 
L 4019 3500 
L 4019 0 
L 2900 0 
L 2900 506 
Q 2647 200 2364 54 
Q 2081 -91 1741 -91 
Q 1134 -91 817 281 
Q 500 653 500 1363 
z
" transform="scale(0.015625)"/>
     </defs>
     <use xlink:href="#DejaVuSans-Bold-48"/>
     <use xlink:href="#DejaVuSans-Bold-4d" transform="translate(83.691406 0)"/>
     <use xlink:href="#DejaVuSans-Bold-4f" transform="translate(183.203125 0)"/>
     <use xlink:href="#DejaVuSans-Bold-20" transform="translate(268.212891 0)"/>
     <use xlink:href="#DejaVuSans-Bold-50" transform="translate(303.027344 0)"/>
     <use xlink:href="#DejaVuSans-Bold-6c" transform="translate(376.318359 0)"/>
     <use xlink:href="#DejaVuSans-Bold-61" transform="translate(410.595703 0)"/>
     <use xlink:href="#DejaVuSans-Bold-6e" transform="translate(478.076172 0)"/>
     <use xlink:href="#DejaVuSans-Bold-73" transform="translate(549.267578 0)"/>
     <use xlink:href="#DejaVuSans-Bold-20" transform="translate(608.789062 0)"/>
     <use xlink:href="#DejaVuSans-Bold-2014" transform="translate(643.603516 0)"/>
     <use xlink:href="#DejaVuSans-Bold-20" transform="translate(743.603516 0)"/>
     <use xlink:href="#DejaVuSans-Bold-72" transform="translate(778.417969 0)"/>
     <use xlink:href="#DejaVuSans-Bold-61" transform="translate(827.734375 0)"/>
     <use xlink:href="#DejaVuSans-Bold-6e" transform="translate(895.214844 0)"/>
     <use xlink:href="#DejaVuSans-Bold-6b" transform="translate(966.40625 0)"/>
     <use xlink:href="#DejaVuSans-Bold-65" transform="translate(1030.285156 0)"/>
     <use xlink:href="#DejaVuSans-Bold-64" transform="translate(1098.107422 0)"/>
     <use xlink:href="#DejaVuSans-Bold-20" transform="translate(1169.689453 0)"/>
     <use xlink:href="#DejaVuSans-Bold-62" transform="translate(1204.503906 0)"/>
     <use xlink:href="#DejaVuSans-Bold-79" transform="translate(1276.085938 0)"/>
     <use xlink:href="#DejaVuSans-Bold-20" transform="translate(1341.271484 0)"/>
     <use xlink:href="#DejaVuSans-Bold-46" transform="translate(1376.085938 0)"/>
     <use xlink:href="#DejaVuSans-Bold-61" transform="translate(1438.521484 0)"/>
     <use xlink:href="#DejaVuSans-Bold-6d" transform="translate(1506.001953 0)"/>
     <use xlink:href="#DejaVuSans-Bold-69" transform="translate(1610.201172 0)"/>
     <use xlink:href="#DejaVuSans-Bold-6c" transform="translate(1644.478516 0)"/>
     <use xlink:href="#DejaVuSans-Bold-79" transform="translate(1678.755859 0)"/>
     <use xlink:href="#DejaVuSans-Bold-20" transform="translate(1743.941406 0)"/>
     <use xlink:href="#DejaVuSans-Bold-50" transform="translate(1778.755859 0)"/>
     <use xlink:href="#DejaVuSans-Bold-72" transform="translate(1852.046875 0)"/>
     <use xlink:href="#DejaVuSans-Bold-65" transform="translate(1901.363281 0)"/>
     <use xlink:href="#DejaVuSans-Bold-6d" transform="translate(1969.185547 0)"/>
     <use xlink:href="#DejaVuSans-Bold-69" transform="translate(2073.384766 0)"/>
     <use xlink:href="#DejaVuSans-Bold-75" transform="translate(2107.662109 0)"/>
     <use xlink:href="#DejaVuSans-Bold-6d" transform="translate(2178.853516 0)"/>
    </g>
    <!-- FY 2026 · NoVA School Districts -->
    <g style="fill: #1d2330" transform="translate(217.523438 48.024125) scale(0.14 -0.14)">
     <defs>
      <path id="DejaVuSans-Bold-59" d="M -63 4666 
L 1253 4666 
L 2316 3003 
L 3378 4666 
L 4697 4666 
L 2919 1966 
L 2919 0 
L 1716 0 
L 1716 1966 
L -63 4666 
z
" transform="scale(0.015625)"/>
      <path id="DejaVuSans-Bold-b7" d="M 653 2828 
L 1778 2828 
L 1778 1619 
L 653 1619 
L 653 2828 
z
" transform="scale(0.015625)"/>
      <path id="DejaVuSans-Bold-4e" d="M 588 4666 
L 1931 4666 
L 3628 1466 
L 3628 4666 
L 4769 4666 
L 4769 0 
L 3425 0 
L 1728 3200 
L 1728 0 
L 588 0 
L 588 4666 
z
" transform="scale(0.015625)"/>
      <path id="DejaVuSans-Bold-6f" d="M 2203 2784 
Q 1831 2784 1636 2517 
Q 1441 2250 1441 1747 
Q 1441 1244 1636 976 
Q 1831 709 2203 709 
Q 2569 709 2762 976 
Q 2956 1244 2956 1747 
Q 2956 2250 2762 2517 
Q 2569 2784 2203 2784 
z
M 2203 3584 
Q 3106 3584 3614 3096 
Q 4122 2609 4122 1747 
Q 4122 884 3614 396 
Q 3106 -91 2203 -91 
Q 1297 -91 786 396 
Q 275 884 275 1747 
Q 275 2609 786 3096 
Q 1297 3584 2203 3584 
z
" transform="scale(0.015625)"/>
      <path id="DejaVuSans-Bold-56" d="M 31 4666 
L 1241 4666 
L 2478 1222 
L 3713 4666 
L 4922 4666 
L 3194 0 
L 1759 0 
L 31 4666 
z
" transform="scale(0.015625)"/>
      <path id="DejaVuSans-Bold-41" d="M 3419 850 
L 1538 850 
L 1241 0 
L 31 0 
L 1759 4666 
L 3194 4666 
L 4922 0 
L 3713 0 
L 3419 850 
z
M 1838 1716 
L 3116 1716 
L 2478 3572 
L 1838 1716 
z
" transform="scale(0.015625)"/>
      <path id="DejaVuSans-Bold-53" d="M 3834 4519 
L 3834 3531 
Q 3450 3703 3084 3790 
Q 2719 3878 2394 3878 
Q 1963 3878 1756 3759 
Q 1550 3641 1550 3391 
Q 1550 3203 1689 3098 
Q 1828 2994 2194 2919 
L 2706 2816 
Q 3484 2659 3812 2340 
Q 4141 2022 4141 1434 
Q 4141 663 3683 286 
Q 3225 -91 2284 -91 
Q 1841 -91 1394 -6 
Q 947 78 500 244 
L 500 1259 
Q 947 1022 1364 901 
Q 1781 781 2169 781 
Q 2563 781 2772 912 
Q 2981 1044 2981 1288 
Q 2981 1506 2839 1625 
Q 2697 1744 2272 1838 
L 1806 1941 
Q 1106 2091 782 2419 
Q 459 2747 459 3303 
Q 459 4000 909 4375 
Q 1359 4750 2203 4750 
Q 2588 4750 2994 4692 
Q 3400 4634 3834 4519 
z
" transform="scale(0.015625)"/>
      <path id="DejaVuSans-Bold-63" d="M 3366 3391 
L 3366 2478 
Q 3138 2634 2908 2709 
Q 2678 2784 2431 2784 
Q 1963 2784 1702 2511 
Q 1441 2238 1441 1747 
Q 1441 1256 1702 982 
Q 1963 709 2431 709 
Q 2694 709 2930 787 
Q 3166 866 3366 1019 
L 3366 103 
Q 3103 6 2833 -42 
Q 2563 -91 2291 -91 
Q 1344 -91 809 395 
Q 275 881 275 1747 
Q 275 2613 809 3098 
Q 1344 3584 2291 3584 
Q 2566 3584 2833 3536 
Q 3100 3488 3366 3391 
z
" transform="scale(0.015625)"/>
      <path id="DejaVuSans-Bold-68" d="M 4056 2131 
L 4056 0 
L 2931 0 
L 2931 347 
L 2931 1625 
Q 2931 2084 2911 2256 
Q 2891 2428 2841 2509 
Q 2775 2619 2662 2680 
Q 2550 2741 2406 2741 
Q 2056 2741 1856 2470 
Q 1656 2200 1656 1722 
L 1656 0 
L 538 0 
L 538 4863 
L 1656 4863 
L 1656 2988 
Q 1909 3294 2193 3439 
Q 2478 3584 2822 3584 
Q 3428 3584 3742 3212 
Q 4056 2841 4056 2131 
z
" transform="scale(0.015625)"/>
      <path id="DejaVuSans-Bold-44" d="M 1791 3756 
L 1791 909 
L 2222 909 
Q 2959 909 3348 1275 
Q 3738 1641 3738 2338 
Q 3738 3031 3350 3393 
Q 2963 3756 2222 3756 
L 1791 3756 
z
M 588 4666 
L 1856 4666 
Q 2919 4666 3439 4514 
Q 3959 4363 4331 4000 
Q 4659 3684 4818 3271 
Q 4978 2859 4978 2338 
Q 4978 1809 4818 1395 
Q 4659 981 4331 666 
Q 3956 303 3431 151 
Q 2906 0 1856 0 
L 588 0 
L 588 4666 
z
" transform="scale(0.015625)"/>
      <path id="DejaVuSans-Bold-74" d="M 1759 4494 
L 1759 3500 
L 2913 3500 
L 2913 2700 
L 1759 2700 
L 1759 1216 
Q 1759 972 1856 886 
Q 1953 800 2241 800 
L 2816 800 
L 2816 0 
L 1856 0 
Q 1194 0 917 276 
Q 641 553 641 1216 
L 641 2700 
L 84 2700 
L 84 3500 
L 641 3500 
L 641 4494 
L 1759 4494 
z
" transform="scale(0.015625)"/>
     </defs>
     <use xlink:href="#DejaVuSans-Bold-46"/>
     <use xlink:href="#DejaVuSans-Bold-59" transform="translate(68.310547 0)"/>
     <use xlink:href="#DejaVuSans-Bold-20" transform="translate(140.722656 0)"/>
     <use xlink:href="#DejaVuSans-Bold-32" transform="translate(175.537109 0)"/>
     <use xlink:href="#DejaVuSans-Bold-30" transform="translate(245.117188 0)"/>
     <use xlink:href="#DejaVuSans-Bold-32" transform="translate(314.697266 0)"/>
     <use xlink:href="#DejaVuSans-Bold-36" transform="translate(384.277344 0)"/>
     <use xlink:href="#DejaVuSans-Bold-20" transform="translate(453.857422 0)"/>
     <use xlink:href="#DejaVuSans-Bold-b7" transform="translate(488.671875 0)"/>
     <use xlink:href="#DejaVuSans-Bold-20" transform="translate(526.660156 0)"/>
     <use xlink:href="#DejaVuSans-Bold-4e" transform="translate(561.474609 0)"/>
     <use xlink:href="#DejaVuSans-Bold-6f" transform="translate(645.166016 0)"/>
     <use xlink:href="#DejaVuSans-Bold-56" transform="translate(713.867188 0)"/>
     <use xlink:href="#DejaVuSans-Bold-41" transform="translate(784.509766 0)"/>
     <use xlink:href="#DejaVuSans-Bold-20" transform="translate(861.902344 0)"/>
     <use xlink:href="#DejaVuSans-Bold-53" transform="translate(896.716797 0)"/>
     <use xlink:href="#DejaVuSans-Bold-63" transform="translate(968.738281 0)"/>
     <use xlink:href="#DejaVuSans-Bold-68" transform="translate(1028.015625 0)"/>
     <use xlink:href="#DejaVuSans-Bold-6f" transform="translate(1099.207031 0)"/>
     <use xlink:href="#DejaVuSans-Bold-6f" transform="translate(1167.908203 0)"/>
     <use xlink:href="#DejaVuSans-Bold-6c" transform="translate(1236.609375 0)"/>
     <use xlink:href="#DejaVuSans-Bold-20" transform="translate(1270.886719 0)"/>
     <use xlink:href="#DejaVuSans-Bold-44" transform="translate(1305.701172 0)"/>
     <use xlink:href="#DejaVuSans-Bold-69" transform="translate(1388.708984 0)"/>
     <use xlink:href="#DejaVuSans-Bold-73" transform="translate(1422.986328 0)"/>
     <use xlink:href="#DejaVuSans-Bold-74" transform="translate(1482.507812 0)"/>
     <use xlink:href="#DejaVuSans-Bold-72" transform="translate(1530.310547 0)"/>
     <use xlink:href="#DejaVuSans-Bold-69" transform="translate(1579.626953 0)"/>
     <use xlink:href="#DejaVuSans-Bold-63" transform="translate(1613.904297 0)"/>
     <use xlink:href="#DejaVuSans-Bold-74" transform="translate(1673.181641 0)"/>
     <use xlink:href="#DejaVuSans-Bold-73" transform="translate(1720.984375 0)"/>
    </g>
   </g>
   <g id="legend_1">
    <g id="patch_14">
     <path d="M 736.664688 321.982406 
L 754.664688 321.982406 
L 754.664688 315.682406 
L 736.664688 315.682406 
z
" style="fill: #d97706; opacity: 0.9; stroke: #ffffff; stroke-width: 0.5; stroke-linejoin: miter"/>
    </g>
    <g id="text_35">
     <!-- Premium (HMOs have $0 deductible) -->
     <g transform="translate(761.864688 321.982406) scale(0.09 -0.09)">
      <defs>
       <path id="DejaVuSans-68" d="M 3513 2113 
L 3513 0 
L 2938 0 
L 2938 2094 
Q 2938 2591 2744 2837 
Q 2550 3084 2163 3084 
Q 1697 3084 1428 2787 
Q 1159 2491 1159 1978 
L 1159 0 
L 581 0 
L 581 4863 
L 1159 4863 
L 1159 2956 
Q 1366 3272 1645 3428 
Q 1925 3584 2291 3584 
Q 2894 3584 3203 3211 
Q 3513 2838 3513 2113 
z
" transform="scale(0.015625)"/>
      </defs>
      <use xlink:href="#DejaVuSans-50"/>
      <use xlink:href="#DejaVuSans-72" transform="translate(58.552734 0)"/>
      <use xlink:href="#DejaVuSans-65" transform="translate(97.416016 0)"/>
      <use xlink:href="#DejaVuSans-6d" transform="translate(158.939453 0)"/>
      <use xlink:href="#DejaVuSans-69" transform="translate(256.351562 0)"/>
      <use xlink:href="#DejaVuSans-75" transform="translate(284.134766 0)"/>
      <use xlink:href="#DejaVuSans-6d" transform="translate(347.513672 0)"/>
      <use xlink:href="#DejaVuSans-20" transform="translate(444.925781 0)"/>
      <use xlink:href="#DejaVuSans-28" transform="translate(476.712891 0)"/>
      <use xlink:href="#DejaVuSans-48" transform="translate(515.726562 0)"/>
      <use xlink:href="#DejaVuSans-4d" transform="translate(590.921875 0)"/>
      <use xlink:href="#DejaVuSans-4f" transform="translate(677.201172 0)"/>
      <use xlink:href="#DejaVuSans-73" transform="translate(755.912109 0)"/>
      <use xlink:href="#DejaVuSans-20" transform="translate(808.011719 0)"/>
      <use xlink:href="#DejaVuSans-68" transform="translate(839.798828 0)"/>
      <use xlink:href="#DejaVuSans-61" transform="translate(903.177734 0)"/>
      <use xlink:href="#DejaVuSans-76" transform="translate(964.457031 0)"/>
      <use xlink:href="#DejaVuSans-65" transform="translate(1023.636719 0)"/>
      <use xlink:href="#DejaVuSans-20" transform="translate(1085.160156 0)"/>
      <use xlink:href="#DejaVuSans-24" transform="translate(1116.947266 0)"/>
      <use xlink:href="#DejaVuSans-30" transform="translate(1180.570312 0)"/>
      <use xlink:href="#DejaVuSans-20" transform="translate(1244.193359 0)"/>
      <use xlink:href="#DejaVuSans-64" transform="translate(1275.980469 0)"/>
      <use xlink:href="#DejaVuSans-65" transform="translate(1339.457031 0)"/>
      <use xlink:href="#DejaVuSans-64" transform="translate(1400.980469 0)"/>
      <use xlink:href="#DejaVuSans-75" transform="translate(1464.457031 0)"/>
      <use xlink:href="#DejaVuSans-63" transform="translate(1527.835938 0)"/>
      <use xlink:href="#DejaVuSans-74" transform="translate(1582.816406 0)"/>
      <use xlink:href="#DejaVuSans-69" transform="translate(1622.025391 0)"/>
      <use xlink:href="#DejaVuSans-62" transform="translate(1649.808594 0)"/>
      <use xlink:href="#DejaVuSans-6c" transform="translate(1713.285156 0)"/>
      <use xlink:href="#DejaVuSans-65" transform="translate(1741.068359 0)"/>
      <use xlink:href="#DejaVuSans-29" transform="translate(1802.591797 0)"/>
     </g>
    </g>
   </g>
  </g>
 </g>
 <defs>
  <clipPath id="p8ebf3d7d87">
   <rect x="217.523438" y="60.024125" width="718.1875" height="271.93"/>
  </clipPath>
 </defs>
</svg>
